<?xml version="1.0" encoding="utf-8"?>
<!-- Generator: Adobe Illustrator 18.0.0, SVG Export Plug-In . SVG Version: 6.00 Build 0)  -->
<!DOCTYPE svg PUBLIC "-//W3C//DTD SVG 1.1//EN" "http://www.w3.org/Graphics/SVG/1.1/DTD/svg11.dtd">
<svg version="1.1" id="Layer_1" xmlns="http://www.w3.org/2000/svg" xmlns:xlink="http://www.w3.org/1999/xlink" x="0px" y="0px"
	 viewBox="0 0 158.721 118.481" enable-background="new 0 0 158.721 118.481" xml:space="preserve">
<polygon points="73.297,39.933 47.006,59.842 31.946,45.548 18.163,46.059 56.01,110.372 61.045,95.578 55.685,76.944 86.57,61.884 
	98.057,96.854 111.585,79.752 115.414,63.926 115.414,44.782 131.239,32.786 131.239,20.534 118.572,19.57 99.843,25.383 
	86.205,16.251 68.104,9.922 45.817,11.664 "/>
<polygon points="0,42.832 4.807,42.832 4.807,0 27.482,0 27.482,6 10.807,6 10.807,112.481 23.261,112.481 23.261,118.481 
	4.807,118.481 4.807,72.832 0,72.832 "/>
<polygon points="158.721,42.832 153.915,42.832 153.915,0 131.239,0 131.239,6 147.915,6 147.915,112.481 135.46,112.481 
	135.46,118.481 153.915,118.481 153.915,72.832 158.721,72.832 "/>
</svg>
