<?xml version="1.0" encoding="utf-8"?>
<!-- Generator: Adobe Illustrator 18.0.0, SVG Export Plug-In . SVG Version: 6.00 Build 0)  -->
<!DOCTYPE svg PUBLIC "-//W3C//DTD SVG 1.1//EN" "http://www.w3.org/Graphics/SVG/1.1/DTD/svg11.dtd">
<svg version="1.1" id="Layer_1" xmlns="http://www.w3.org/2000/svg" xmlns:xlink="http://www.w3.org/1999/xlink" x="0px" y="0px"
	 viewBox="0 0 221.244 147.264" enable-background="new 0 0 221.244 147.264" xml:space="preserve">
<polygon points="52.41,141.401 0,141.401 0,0 141.887,0 141.887,73.132 127.887,73.132 127.887,14 29.368,14 14,27.91 14,127.401 
	52.41,127.401 "/>
<g>
	<polygon points="85.649,51.685 85.649,24.685 42.346,24.685 42.346,34.701 36.051,34.701 36.051,24.685 23.936,24.685 
		23.936,51.685 36.051,51.685 36.051,41.903 42.346,41.903 42.346,51.685 	"/>
	<polygon points="90.542,24.685 90.542,51.685 116.542,38.185 	"/>
</g>
<g>
	<polygon points="85.649,84.201 85.649,57.201 42.346,57.201 42.346,67.217 36.051,67.217 36.051,57.201 23.936,57.201 
		23.936,84.201 36.051,84.201 36.051,74.419 42.346,74.419 42.346,84.201 	"/>
	<polygon points="90.542,57.201 90.542,84.201 116.542,70.701 	"/>
</g>
<g>
	<polygon points="59.318,102.418 80.885,102.418 80.885,88.918 42.346,88.918 42.346,98.934 36.051,98.934 36.051,88.918 
		23.936,88.918 23.936,115.918 36.051,115.918 36.051,106.137 42.346,106.137 42.346,115.918 59.318,115.918 	"/>
</g>
<polygon points="90.542,98.61 162.81,98.61 162.81,102.418 221.244,102.418 221.244,112.462 162.81,112.462 162.81,119.352 
	119.59,119.352 119.59,115.918 99.151,115.918 "/>
<polygon points="73.327,125.233 63.714,134.846 76.131,147.264 177.874,147.264 177.874,136.248 191.893,136.248 191.893,130.04 
	110.454,130.04 110.454,125.233 "/>
</svg>
