<?xml version="1.0" encoding="utf-8"?>
<!-- Generator: Adobe Illustrator 18.0.0, SVG Export Plug-In . SVG Version: 6.00 Build 0)  -->
<!DOCTYPE svg PUBLIC "-//W3C//DTD SVG 1.1//EN" "http://www.w3.org/Graphics/SVG/1.1/DTD/svg11.dtd">
<svg version="1.1" id="Layer_1" xmlns="http://www.w3.org/2000/svg" xmlns:xlink="http://www.w3.org/1999/xlink" x="0px" y="0px"
	 viewBox="0 0 214.809 214.426" enable-background="new 0 0 214.809 214.426" xml:space="preserve">
<g>
	<polygon points="15,76.727 15,15 78.696,15 78.696,0 0,0 0,76.727 	"/>
	<polygon points="135.347,15 199.809,15 199.809,76.727 214.809,76.727 214.809,0 135.347,0 	"/>
	<polygon points="199.809,133.378 199.809,199.426 135.347,199.426 135.347,214.426 214.809,214.426 214.809,133.378 	"/>
	<polygon points="78.696,199.426 15,199.426 15,133.378 0,133.378 0,214.426 78.696,214.426 	"/>
</g>
<rect x="17.384" y="46.431" fill="none" width="180.526" height="137.564"/>
<text transform="matrix(1 0 0 1 60.6884 158.2707)" font-family="'GeogrotesqueMedium'" font-size="160">B</text>
</svg>
