<?xml version="1.0" encoding="utf-8"?>
<!-- Generator: Adobe Illustrator 18.0.0, SVG Export Plug-In . SVG Version: 6.00 Build 0)  -->
<!DOCTYPE svg PUBLIC "-//W3C//DTD SVG 1.1//EN" "http://www.w3.org/Graphics/SVG/1.1/DTD/svg11.dtd">
<svg version="1.1" id="Layer_1" xmlns="http://www.w3.org/2000/svg" xmlns:xlink="http://www.w3.org/1999/xlink" x="0px" y="0px"
	 viewBox="0 0 243.859 243.859" enable-background="new 0 0 243.859 243.859" xml:space="preserve">
<circle stroke="#FFFFFF" stroke-width="13" stroke-miterlimit="10" cx="121.93" cy="121.93" r="115.43"/>
<path fill="#FFFFFF" d="M172.852,156.54c-11.703-18.71-28.05-44.486-36.583-57.92V71.318h22.366V54.773H84.489v16.545h22.366v26.895
	c-8.46,13.318-25.022,39.432-36.841,58.327c-4.399,7.033-7.693,18.051-4.525,25.623c1.577,3.769,4.546,6.314,8.361,7.165
	l0.791,0.176h41.057h11.468h41.057l0.791-0.176c3.815-0.851,6.784-3.396,8.361-7.165
	C180.544,174.592,177.251,163.574,172.852,156.54z M127.167,174.798h-11.468H78.923c0.118-2.412,1.129-6.573,3.559-10.459
	c12.914-20.645,31.504-49.929,38.95-61.644c7.446,11.715,26.036,40.999,38.951,61.644c2.43,3.886,3.44,8.047,3.558,10.459H127.167z"
	/>
</svg>
