<?xml version="1.0" encoding="utf-8"?>
<!-- Generator: Adobe Illustrator 18.0.0, SVG Export Plug-In . SVG Version: 6.00 Build 0)  -->
<!DOCTYPE svg PUBLIC "-//W3C//DTD SVG 1.1//EN" "http://www.w3.org/Graphics/SVG/1.1/DTD/svg11.dtd">
<svg version="1.1" id="Layer_1" xmlns="http://www.w3.org/2000/svg" xmlns:xlink="http://www.w3.org/1999/xlink" x="0px" y="0px"
	 viewBox="0 0 158.721 118.481" enable-background="new 0 0 158.721 118.481" xml:space="preserve">
<path d="M127.897,35.316l-3.816-5.151H70.084v-5.277h-6.68v5.277h-8.072v-5.277h-6.681v5.277H33.926l-5.625,5.803v16.902
	l5.914,1.483l-5.914,24.847V96.18h24.803V79.008l3.816-8.013h18.316l7.823-8.395v-9.54h44.646v-6.105h4.961V35.316H127.897z
	 M76.367,61.576l-3.892,4.042H61.548V53.643h14.819V61.576z"/>
<polygon points="0,42.832 4.807,42.832 4.807,0 27.482,0 27.482,6 10.807,6 10.807,112.481 23.261,112.481 23.261,118.481 
	4.807,118.481 4.807,72.832 0,72.832 "/>
<polygon points="158.721,42.832 153.915,42.832 153.915,0 131.239,0 131.239,6 147.915,6 147.915,112.481 135.46,112.481 
	135.46,118.481 153.915,118.481 153.915,72.832 158.721,72.832 "/>
</svg>
