<?xml version="1.0" encoding="utf-8"?>
<!-- Generator: Adobe Illustrator 18.0.0, SVG Export Plug-In . SVG Version: 6.00 Build 0)  -->
<!DOCTYPE svg PUBLIC "-//W3C//DTD SVG 1.1//EN" "http://www.w3.org/Graphics/SVG/1.1/DTD/svg11.dtd">
<svg version="1.1" id="Layer_1" xmlns="http://www.w3.org/2000/svg" xmlns:xlink="http://www.w3.org/1999/xlink" x="0px" y="0px"
	 viewBox="0 0 158.721 123.42" enable-background="new 0 0 158.721 123.42" xml:space="preserve">
<polygon points="128.704,25.974 125.805,35.339 120.453,35.339 116.44,26.196 87.897,26.196 86.151,0.776 72.185,0.776 
	70.44,26.196 41.897,26.196 37.883,35.339 32.531,35.339 29.632,25.974 24.058,25.974 24.058,52.286 29.632,52.286 32.754,42.921 
	38.106,42.921 41.451,56.746 58.621,56.746 61.52,67.004 69.548,67.004 69.548,95.992 61.52,98.222 59.736,104.02 49.478,105.358 
	45.242,110.71 49.924,116.062 68.433,116.062 72.669,123.42 85.667,123.42 89.904,116.062 108.412,116.062 113.095,110.71 
	108.858,105.358 98.6,104.02 96.816,98.222 88.789,95.992 88.789,67.004 96.816,67.004 99.715,56.746 116.886,56.746 120.23,42.921 
	125.582,42.921 128.704,52.286 134.279,52.286 134.279,25.974 "/>
<polygon points="0,42.832 4.807,42.832 4.807,0 27.482,0 27.482,6 10.807,6 10.807,112.481 23.261,112.481 23.261,118.481 
	4.807,118.481 4.807,72.832 0,72.832 "/>
<polygon points="158.721,42.832 153.915,42.832 153.915,0 131.239,0 131.239,6 147.915,6 147.915,112.481 135.46,112.481 
	135.46,118.481 153.915,118.481 153.915,72.832 158.721,72.832 "/>
</svg>
