<?xml version="1.0" encoding="utf-8"?>
<!-- Generator: Adobe Illustrator 18.0.0, SVG Export Plug-In . SVG Version: 6.00 Build 0)  -->
<!DOCTYPE svg PUBLIC "-//W3C//DTD SVG 1.1//EN" "http://www.w3.org/Graphics/SVG/1.1/DTD/svg11.dtd">
<svg version="1.1" id="Layer_1" xmlns="http://www.w3.org/2000/svg" xmlns:xlink="http://www.w3.org/1999/xlink" x="0px" y="0px"
	 viewBox="0 0 159.932 203.301" enable-background="new 0 0 159.932 203.301" xml:space="preserve">
<path d="M129.328,73.312H78.337l-3.428,7.284H24.131v17.568l12.212,17.14h85.271l14.14-16.133V79.096L129.328,73.312z
	 M43.842,105.235c-5.088,0-9.213-4.125-9.213-9.213c0-5.088,4.125-9.213,9.213-9.213c5.088,0,9.213,4.125,9.213,9.213
	C53.055,101.11,48.93,105.235,43.842,105.235z M69.075,105.235c-5.088,0-9.213-4.125-9.213-9.213c0-5.088,4.125-9.213,9.213-9.213
	c5.088,0,9.213,4.125,9.213,9.213C78.288,101.11,74.163,105.235,69.075,105.235z M94.156,105.235c-5.088,0-9.213-4.125-9.213-9.213
	c0-5.088,4.125-9.213,9.213-9.213c5.088,0,9.213,4.125,9.213,9.213C103.369,101.11,99.244,105.235,94.156,105.235z M118.937,105.235
	c-5.088,0-9.213-4.125-9.213-9.213c0-5.088,4.125-9.213,9.213-9.213c5.088,0,9.213,4.125,9.213,9.213
	C128.15,101.11,124.025,105.235,118.937,105.235z"/>
<polygon points="72.338,53.124 111.117,53.124 111.117,69.621 66.124,69.621 "/>
<g>
	<line x1="28.202" y1="46.696" x2="67.196" y2="58.052"/>
	<rect x="27.392" y="48.368" transform="matrix(0.9601 0.2796 -0.2796 0.9601 16.5455 -11.2474)" width="40.613" height="8.011"/>
</g>
<path d="M155.339,15.623c-1.731-0.633-42.494-15.423-75.049-15.618V0c-0.108,0-0.216,0.002-0.324,0.002
	C79.858,0.002,79.75,0,79.642,0v0.005C47.087,0.199,6.323,14.989,4.593,15.623L0,17.305v83.934l0.697,1.443
	c1.051,2.175,45.051,74.167,79.269,100.62c39.711-27.49,78.218-98.445,79.269-100.62l0.697-1.443V17.305L155.339,15.623z
	 M145.932,97.972c-4.163,8.095-26.847,50.173-65.966,86.583C40.847,148.145,18.163,106.067,14,97.972V27.189
	c11.414-3.794,41.867-13.103,65.966-13.186c24.099,0.083,54.552,9.392,65.966,13.186V97.972z"/>
</svg>
