<?xml version="1.0" encoding="utf-8"?>
<!-- Generator: Adobe Illustrator 18.0.0, SVG Export Plug-In . SVG Version: 6.00 Build 0)  -->
<!DOCTYPE svg PUBLIC "-//W3C//DTD SVG 1.1//EN" "http://www.w3.org/Graphics/SVG/1.1/DTD/svg11.dtd">
<svg version="1.1" id="Layer_1" xmlns="http://www.w3.org/2000/svg" xmlns:xlink="http://www.w3.org/1999/xlink" x="0px" y="0px"
	 viewBox="0 0 158.721 130.577" enable-background="new 0 0 158.721 130.577" xml:space="preserve">
<g>
	<polygon points="75.945,33.319 75.945,36.319 75.945,67.738 73.582,70.101 84.904,70.101 82.563,67.738 82.563,36.319 
		82.563,33.319 82.563,18.259 88.2,14.122 88.2,10.205 79.254,0 70.307,10.205 70.307,14.122 75.945,18.259 	"/>
	<polygon points="87.49,72.666 71.027,72.666 68.399,75.284 68.399,104.105 71.894,107.6 86.614,107.6 90.108,104.105 
		90.108,75.284 	"/>
</g>
<polygon points="110.97,36.319 85.563,36.319 85.563,66.495 92.229,73.162 93.108,74.041 93.108,75.284 93.108,104.105 
	93.108,105.348 92.229,106.227 88.735,109.721 87.856,110.6 86.614,110.6 71.894,110.6 70.651,110.6 69.772,109.721 66.278,106.227 
	65.399,105.348 65.399,104.105 65.399,75.284 65.399,74.041 66.278,73.162 72.945,66.495 72.945,36.319 47.978,36.319 
	41.793,43.246 41.793,120.681 53.382,120.681 62.079,130.577 75.345,130.577 83.603,130.577 96.869,130.577 105.566,120.681 
	117.155,120.681 117.155,43.246 "/>
<polygon points="0,53.4 4.807,53.4 4.807,10.568 27.482,10.568 27.482,16.568 10.807,16.568 10.807,123.049 23.261,123.049 
	23.261,129.049 4.807,129.049 4.807,83.4 0,83.4 "/>
<polygon points="158.721,53.4 153.915,53.4 153.915,10.568 131.239,10.568 131.239,16.568 147.915,16.568 147.915,123.049 
	135.46,123.049 135.46,129.049 153.915,129.049 153.915,83.4 158.721,83.4 "/>
</svg>
