<?xml version="1.0" encoding="utf-8"?>
<!-- Generator: Adobe Illustrator 18.0.0, SVG Export Plug-In . SVG Version: 6.00 Build 0)  -->
<!DOCTYPE svg PUBLIC "-//W3C//DTD SVG 1.1//EN" "http://www.w3.org/Graphics/SVG/1.1/DTD/svg11.dtd">
<svg version="1.1" id="Layer_1" xmlns="http://www.w3.org/2000/svg" xmlns:xlink="http://www.w3.org/1999/xlink" x="0px" y="0px"
	 viewBox="0 0 158.721 119.172" enable-background="new 0 0 158.721 119.172" xml:space="preserve">
<polygon points="128.993,34.164 135.196,21.214 113.981,0 101.031,6.203 91.564,6.747 82.967,15.344 82.532,22.091 113.105,52.664 
	119.852,52.229 128.449,43.632 "/>
<path d="M87.735,82.214L52.982,47.461l-10.665,1.953L25.043,67.889l-1.157,26.606l16.815,16.815l26.606-1.157l18.476-17.274
	L87.735,82.214z M59.06,98.811l-6.374-6.374l8.499-8.499l-9.398-9.398l-8.499,8.499l-6.374-6.374l14.975-14.975l22.147,22.147
	L59.06,98.811z"/>
<path d="M111.769,54.576L80.62,23.427l-13.068,0.751L56.437,35.294L54.934,47.31l32.951,32.951l12.017-1.502l11.115-11.115
	L111.769,54.576z M89.672,66.017l-6.462-2.585L72.225,52.448l-1.292-6.677l9.908-9.908l3.985,3.985l-7.862,7.862l11.739,11.739
	l7.862-7.862l3.769,3.769L89.672,66.017z"/>
<polygon points="0,43.523 4.807,43.523 4.807,0.691 27.482,0.691 27.482,6.691 10.807,6.691 10.807,113.172 23.261,113.172 
	23.261,119.172 4.807,119.172 4.807,73.523 0,73.523 "/>
<polygon points="158.721,43.523 153.915,43.523 153.915,0.691 131.239,0.691 131.239,6.691 147.915,6.691 147.915,113.172 
	135.46,113.172 135.46,119.172 153.915,119.172 153.915,73.523 158.721,73.523 "/>
</svg>
