<?xml version="1.0" encoding="utf-8"?>
<!-- Generator: Adobe Illustrator 18.0.0, SVG Export Plug-In . SVG Version: 6.00 Build 0)  -->
<!DOCTYPE svg PUBLIC "-//W3C//DTD SVG 1.1//EN" "http://www.w3.org/Graphics/SVG/1.1/DTD/svg11.dtd">
<svg version="1.1" id="Layer_1" xmlns="http://www.w3.org/2000/svg" xmlns:xlink="http://www.w3.org/1999/xlink" x="0px" y="0px"
	 viewBox="0 0 159.932 203.301" enable-background="new 0 0 159.932 203.301" xml:space="preserve">
<path d="M155.339,15.623c-1.731-0.633-42.494-15.423-75.049-15.618V0c-0.108,0-0.216,0.002-0.324,0.002
	C79.858,0.002,79.75,0,79.642,0v0.005C47.087,0.199,6.323,14.989,4.593,15.623L0,17.305v83.934l0.697,1.443
	c1.051,2.175,45.051,74.167,79.269,100.62c39.711-27.49,78.218-98.445,79.269-100.62l0.697-1.443V17.305L155.339,15.623z
	 M145.932,97.972c-4.163,8.095-26.847,50.173-65.966,86.583C40.847,148.145,18.163,106.067,14,97.972V27.189
	c11.414-3.794,41.867-13.103,65.966-13.186c24.099,0.083,54.552,9.392,65.966,13.186V97.972z"/>
<g>
	<line x1="23.893" y1="79.157" x2="134.235" y2="79.157"/>
	<rect x="23.893" y="68.657" width="110.342" height="21"/>
</g>
<g>
	<line x1="23.893" y1="50.777" x2="134.235" y2="50.777"/>
	<rect x="23.893" y="44.277" width="110.342" height="13"/>
</g>
<g>
	<line x1="32.212" y1="107.049" x2="125.427" y2="107.049"/>
	<rect x="32.212" y="99.548" width="93.216" height="15"/>
</g>
</svg>
