<?xml version="1.0" encoding="utf-8"?>
<!-- Generator: Adobe Illustrator 18.0.0, SVG Export Plug-In . SVG Version: 6.00 Build 0)  -->
<!DOCTYPE svg PUBLIC "-//W3C//DTD SVG 1.1//EN" "http://www.w3.org/Graphics/SVG/1.1/DTD/svg11.dtd">
<svg version="1.1" id="Layer_1" xmlns="http://www.w3.org/2000/svg" xmlns:xlink="http://www.w3.org/1999/xlink" x="0px" y="0px"
	 viewBox="0 0 189.216 186.166" enable-background="new 0 0 189.216 186.166" xml:space="preserve">
<polygon points="70.943,141.401 0,141.401 0,0 141.887,0 141.887,73.132 127.887,73.132 127.887,14 29.368,14 14,27.91 14,127.401 
	70.943,127.401 "/>
<g>
	<polygon points="85.649,51.685 85.649,24.685 42.346,24.685 42.346,34.701 36.051,34.701 36.051,24.685 23.936,24.685 
		23.936,51.685 36.051,51.685 36.051,41.903 42.346,41.903 42.346,51.685 	"/>
	<polygon points="90.542,24.685 90.542,51.685 116.542,38.185 	"/>
</g>
<g>
	<polygon points="85.649,84.201 85.649,57.201 42.346,57.201 42.346,67.217 36.051,67.217 36.051,57.201 23.936,57.201 
		23.936,84.201 36.051,84.201 36.051,74.419 42.346,74.419 42.346,84.201 	"/>
	<polygon points="90.542,57.201 90.542,84.201 116.542,70.701 	"/>
</g>
<g>
	<polygon points="85.649,115.918 85.649,88.918 42.346,88.918 42.346,98.934 36.051,98.934 36.051,88.918 23.936,88.918 
		23.936,115.918 36.051,115.918 36.051,106.137 42.346,106.137 42.346,115.918 	"/>
	<polygon points="90.542,88.918 90.542,115.918 116.542,102.418 	"/>
</g>
<path d="M146.931,140.699h42.284l-6.193-11.358l-36.091-15.704V91.201c0-4.418-3.581-11.325-8-11.325s-8,6.907-8,11.325v22.643
	l-35.618,15.498l-6.193,11.358h41.811v28.608h-25.408v7.358c0,3.038,2.462,9.5,5.5,9.5s5.5-5.858,5.5-5.858h22.645
	c0.317,0,0.625-0.033,0.927-0.084c0.302,0.051,0.611,0.084,0.927,0.084h22.645c0,0,2.462,5.858,5.5,5.858s5.5-6.462,5.5-9.5v-7.358
	h-27.737V140.699z"/>
</svg>
