<?xml version="1.0" encoding="utf-8"?>
<!-- Generator: Adobe Illustrator 18.0.0, SVG Export Plug-In . SVG Version: 6.00 Build 0)  -->
<!DOCTYPE svg PUBLIC "-//W3C//DTD SVG 1.1//EN" "http://www.w3.org/Graphics/SVG/1.1/DTD/svg11.dtd">
<svg version="1.1" id="Layer_1" xmlns="http://www.w3.org/2000/svg" xmlns:xlink="http://www.w3.org/1999/xlink" x="0px" y="0px"
	 viewBox="0 0 222.994 225.824" enable-background="new 0 0 222.994 225.824" xml:space="preserve">
<polygon fill="#FFFFFF" stroke="#000000" stroke-width="2" stroke-miterlimit="10" points="221.994,34.229 164.707,1.155 
	111.497,31.876 58.286,1.155 1,34.229 1,100.377 54.034,130.996 54.034,191.595 111.32,224.67 168.607,191.595 168.607,131.201 
	221.994,100.377 "/>
<g>
	<polygon fill="#89171A" points="115.492,95.718 115.492,38.889 164.708,10.475 213.923,38.889 213.923,95.718 164.708,124.132 	"/>
	<path d="M164.707,11.629l48.215,27.837V95.14l-48.215,27.837L116.492,95.14V39.466L164.707,11.629 M164.707,9.32l-50.215,28.992
		v57.984l50.215,28.992l50.215-28.992V38.311L164.707,9.32L164.707,9.32z"/>
</g>
<g>
	<polygon fill="#1266B2" points="9.071,95.718 9.071,38.889 58.286,10.475 107.502,38.889 107.502,95.718 58.286,124.132 	"/>
	<path d="M58.286,11.629l48.215,27.837V95.14l-48.215,27.837L10.071,95.14V39.466L58.286,11.629 M58.286,9.32L8.071,38.311v57.984
		l50.215,28.992l50.215-28.992V38.311L58.286,9.32L58.286,9.32z"/>
</g>
<g>
	<polygon fill="#7E2A90" points="62.105,186.936 62.105,130.107 111.32,101.692 160.535,130.107 160.535,186.936 111.32,215.35 	"/>
	<path d="M111.32,102.847l48.215,27.837v55.674l-48.215,27.837l-48.215-27.837v-55.674L111.32,102.847 M111.32,100.538
		l-50.215,28.992v57.984l50.215,28.992l50.215-28.992v-57.984L111.32,100.538L111.32,100.538z"/>
</g>
</svg>
