<?xml version="1.0" encoding="utf-8"?>
<!-- Generator: Adobe Illustrator 18.0.0, SVG Export Plug-In . SVG Version: 6.00 Build 0)  -->
<!DOCTYPE svg PUBLIC "-//W3C//DTD SVG 1.1//EN" "http://www.w3.org/Graphics/SVG/1.1/DTD/svg11.dtd">
<svg version="1.1" id="Layer_1" xmlns="http://www.w3.org/2000/svg" xmlns:xlink="http://www.w3.org/1999/xlink" x="0px" y="0px"
	 viewBox="180.798 24.062 301.467 64.451" enable-background="new 180.798 24.062 301.467 64.451" xml:space="preserve">
<g>
	<path d="M335.361,71.101V41.126c0-6.115,2.854-10.494,8.941-10.494h37.547c0.23,0,0.451-0.228,0.451-0.454v-5.964
		c0-0.052-0.015-0.103-0.035-0.152h-45.909c-9.951,1.265-14.812,8.2-14.812,17.064V71.1c0,6.115-2.934,10.495-8.94,10.495h-39.652
		c-0.225,0-0.451,0.151-0.451,0.453v5.965c0,0.247,0.152,0.436,0.33,0.499h45.019C329.584,88.204,335.361,80.713,335.361,71.101z"/>
	<path d="M181.104,88.513h13.183c0.178-0.063,0.33-0.252,0.33-0.499V68.911c0-6.115,3.454-10.344,8.486-10.344h54.301
		c12.242,0,18.176-7.55,18.176-17.441c0-8.864-4.857-15.799-14.813-17.064H180.86c-0.023,0.05-0.062,0.089-0.062,0.152v5.964
		c0,0.302,0.15,0.454,0.45,0.454h71.574c6.084,0,8.938,4.379,8.938,10.494c0,6.116-2.854,10.495-8.938,10.495h-56.628
		c-8.787,0-15.396,7.476-15.396,17.29v19.103C180.797,88.261,180.903,88.449,181.104,88.513z"/>
	<g>
		<path fill="none" d="M393.714,74.649h60.465c0.221,0,0.451-0.227,0.451-0.453V36.974c0-0.83-0.752-0.906-1.131-0.604
			l-60.156,37.223c-0.381,0.227-0.531,0.453-0.451,0.755C392.962,74.499,393.193,74.649,393.714,74.649z"/>
		<path d="M382.08,81.596h72.1c0.221,0,0.371,0.151,0.371,0.302v6.116c0,0.302,0.23,0.453,0.451,0.453h12.996
			c0.23,0,0.449-0.151,0.449-0.453v-5.965c0-0.227,0.23-0.453,0.451-0.453h12.916c0.301,0,0.451-0.227,0.451-0.452v-6.041
			c0-0.227-0.15-0.453-0.451-0.453h-12.916c-0.221,0-0.451-0.227-0.451-0.453V30.632c0-3.555-1.321-5.819-3.542-6.57h-3.76
			c-1.172,0.301-2.446,0.84-3.812,1.661l-77.656,47.945c-3.004,1.887-4.057,4-3.305,5.586
			C376.972,80.614,378.695,81.596,382.08,81.596z M393.343,73.593L453.5,36.37c0.379-0.302,1.131-0.226,1.131,0.604v37.223
			c0,0.227-0.23,0.453-0.451,0.453h-60.465c-0.521,0-0.752-0.15-0.822-0.302C392.812,74.046,392.962,73.819,393.343,73.593z"/>
	</g>
</g>
</svg>
