<?xml version="1.0" encoding="utf-8"?>
<!-- Generator: Adobe Illustrator 18.0.0, SVG Export Plug-In . SVG Version: 6.00 Build 0)  -->
<!DOCTYPE svg PUBLIC "-//W3C//DTD SVG 1.1//EN" "http://www.w3.org/Graphics/SVG/1.1/DTD/svg11.dtd">
<svg version="1.1" id="Layer_1" xmlns="http://www.w3.org/2000/svg" xmlns:xlink="http://www.w3.org/1999/xlink" x="0px" y="0px"
	 viewBox="0 0 119.425 101.735" enable-background="new 0 0 119.425 101.735" xml:space="preserve">
<path d="M96.552,67.096h0.013L73.714,52.913c5.472-3.783,9.573-9.749,11.298-16.794c0.292,0.086,0.593,0.135,0.901,0.135
	c2.692,0,4.874-3.41,4.874-7.616c0-4.206-2.182-7.616-4.874-7.616c-0.308,0-0.609,0.05-0.901,0.135C82.027,8.97,71.935,0,59.938,0
	S37.85,8.97,34.865,21.157c-0.292-0.086-0.593-0.135-0.901-0.135c-2.692,0-4.874,3.41-4.874,7.616c0,4.206,2.182,7.616,4.874,7.616
	c0.308,0,0.609-0.05,0.901-0.135c1.732,7.074,5.859,13.06,11.364,16.841L26.96,66.769C16.345,68.137,6.933,70.164,0,72.813v25.286
	l61.535,3.636l57.89-4.855c0,0,0,0,0-24.068C113.363,70.32,105.465,68.426,96.552,67.096z"/>
</svg>
