<?xml version="1.0" encoding="utf-8"?>
<!-- Generator: Adobe Illustrator 18.0.0, SVG Export Plug-In . SVG Version: 6.00 Build 0)  -->
<!DOCTYPE svg PUBLIC "-//W3C//DTD SVG 1.1//EN" "http://www.w3.org/Graphics/SVG/1.1/DTD/svg11.dtd">
<svg version="1.1" id="Layer_1" xmlns="http://www.w3.org/2000/svg" xmlns:xlink="http://www.w3.org/1999/xlink" x="0px" y="0px"
	 viewBox="0 0 216.463 240.114" enable-background="new 0 0 216.463 240.114" xml:space="preserve">
<path d="M139.051,28.78h-25.314V25.5c0-3.038-2.462-25.5-5.5-25.5c-0.002,0-0.004,0-0.005,0s-0.004,0-0.005,0
	c-3.038,0-5.5,22.462-5.5,25.5v3.28H77.412C76.501,28.78,0,31.242,0,34.28s76.501,5.5,77.412,5.5H96.81l-22.392,8.158v78.614
	l-7.594,7.594v94.969h-2.195c-3.038,0-5.5,2.462-5.5,5.5s2.462,5.5,5.5,5.5h36.896v-8.311h3.831h5.752h3.831v8.311h36.896
	c3.038,0,5.5-2.462,5.5-5.5s-2.462-5.5-5.5-5.5h-2.195v-94.969l-7.594-7.594V47.938l-22.392-8.158h19.398
	c0.911,0,77.412-2.462,77.412-5.5S139.962,28.78,139.051,28.78z M131.045,55.638v67.437l-9.745,2.2v6.6l12.711,2.2l4.627,4.627
	v90.412h-12.701v-8.311h-14.831h-5.752H90.525v8.311H77.824v-90.412l4.627-4.627l12.711-2.2v-6.6l-9.745-2.2V55.638l22.814-8.311
	L131.045,55.638z"/>
</svg>
