<?xml version="1.0" encoding="utf-8"?>
<!-- Generator: Adobe Illustrator 18.0.0, SVG Export Plug-In . SVG Version: 6.00 Build 0)  -->
<!DOCTYPE svg PUBLIC "-//W3C//DTD SVG 1.1//EN" "http://www.w3.org/Graphics/SVG/1.1/DTD/svg11.dtd">
<svg version="1.1" id="Layer_1" xmlns="http://www.w3.org/2000/svg" xmlns:xlink="http://www.w3.org/1999/xlink" x="0px" y="0px"
	 viewBox="0 0 243.859 243.859" enable-background="new 0 0 243.859 243.859" xml:space="preserve">
<circle stroke="#FFFFFF" stroke-width="13" stroke-miterlimit="10" cx="121.93" cy="121.93" r="115.43"/>
<path fill="#FFFFFF" d="M166.333,62.409c-12.131,0-22.268,8.679-24.538,20.153h-40.089V63.483H54.717v47.886h46.989V92.291h40.089
	c2.27,11.474,12.409,20.153,24.538,20.153c13.795,0,25.017-11.222,25.017-25.017S180.128,62.409,166.333,62.409z M91.977,101.641
	H64.446V73.211h27.531V101.641z M166.333,102.714c-8.43,0-15.288-6.858-15.288-15.288s6.858-15.288,15.288-15.288
	s15.288,6.858,15.288,15.288S174.764,102.714,166.333,102.714z"/>
<path fill="#FFFFFF" d="M166.333,130.611c-12.131,0-22.268,8.679-24.538,20.153h-38.994c-2.27-11.474-12.409-20.153-24.538-20.153
	c-13.795,0-25.017,11.222-25.017,25.017s11.222,25.017,25.017,25.017c12.131,0,22.268-8.679,24.538-20.153h38.994
	c2.27,11.474,12.409,20.153,24.538,20.153c13.795,0,25.017-11.222,25.017-25.017S180.128,130.611,166.333,130.611z M78.262,170.916
	c-8.43,0-15.288-6.858-15.288-15.288s6.858-15.288,15.288-15.288s15.288,6.858,15.288,15.288S86.692,170.916,78.262,170.916z
	 M166.333,170.916c-8.43,0-15.288-6.858-15.288-15.288s6.858-15.288,15.288-15.288s15.288,6.858,15.288,15.288
	S174.764,170.916,166.333,170.916z"/>
</svg>
