<?xml version="1.0" encoding="utf-8"?>
<!-- Generator: Adobe Illustrator 18.0.0, SVG Export Plug-In . SVG Version: 6.00 Build 0)  -->
<!DOCTYPE svg PUBLIC "-//W3C//DTD SVG 1.1//EN" "http://www.w3.org/Graphics/SVG/1.1/DTD/svg11.dtd">
<svg version="1.1" id="Layer_1" xmlns="http://www.w3.org/2000/svg" xmlns:xlink="http://www.w3.org/1999/xlink" x="0px" y="0px"
	 viewBox="0 0 153.153 215.038" enable-background="new 0 0 153.153 215.038" xml:space="preserve">
<polygon points="76.839,34.648 76.832,34.62 76.822,34.631 76.811,34.62 76.804,34.648 33.058,78.394 59.307,78.394 59.307,101.555 
	60.058,101.555 93.586,101.555 94.336,101.555 94.336,78.394 120.586,78.394 "/>
<polygon points="76.839,186.527 76.832,186.555 76.822,186.545 76.811,186.555 76.804,186.527 33.058,142.781 59.307,142.781 
	59.307,119.62 60.058,119.62 93.586,119.62 94.336,119.62 94.336,142.781 120.586,142.781 "/>
<path d="M77.656,0c-0.359,0-0.719,0.001-1.08,0.003C76.216,0.001,75.856,0,75.497,0C67.77,0,0,0.691,0,24.654
	c0,12.252,18.44,18.997,39.393,22.384l6.136-12.199c-4.792-0.671-9.305-1.491-13.427-2.454c-12.423-2.902-17.474-6.226-18.83-7.704
	c1.087-1.15,5.112-4.357,17.98-7.336C43.36,14.543,59.073,13,75.497,13c0.271,0,0.544,0.001,0.816,0.002l0.001,0.001
	c0.088,0,0.175,0,0.263-0.001c0.088,0,0.175,0,0.262,0.001c0,0,0.001-0.001,0.001-0.001C77.112,13.001,77.385,13,77.656,13
	c16.424,0,32.136,1.543,44.243,4.346c12.868,2.979,16.894,6.186,17.98,7.336c-1.356,1.478-6.407,4.802-18.83,7.704
	c-4.122,0.963-8.635,1.782-13.427,2.454l6.136,12.199c20.953-3.387,39.393-10.132,39.393-22.384C153.153,0.691,85.383,0,77.656,0z"
	/>
<path d="M77.656,215.038c-0.359,0-0.719-0.001-1.08-0.003c-0.36,0.001-0.721,0.003-1.08,0.003C67.77,215.038,0,214.347,0,190.384
	C0,178.132,18.44,171.387,39.393,168l6.136,12.199c-4.792,0.671-9.305,1.491-13.427,2.454c-12.423,2.902-17.474,6.226-18.83,7.704
	c1.087,1.15,5.112,4.357,17.98,7.336c12.107,2.802,27.819,4.346,44.243,4.346c0.271,0,0.544-0.001,0.816-0.002l0.001-0.001
	c0.088,0,0.175,0,0.263,0.001c0.088,0,0.175,0,0.262-0.001c0,0,0.001,0.001,0.001,0.001c0.272,0.001,0.545,0.002,0.816,0.002
	c16.424,0,32.136-1.543,44.243-4.346c12.868-2.979,16.894-6.186,17.98-7.336c-1.356-1.478-6.407-4.802-18.83-7.704
	c-4.122-0.963-8.635-1.782-13.427-2.454L113.76,168c20.953,3.387,39.393,10.132,39.393,22.384
	C153.153,214.347,85.383,215.038,77.656,215.038z"/>
</svg>
