<?xml version="1.0" encoding="utf-8"?>
<!-- Generator: Adobe Illustrator 18.0.0, SVG Export Plug-In . SVG Version: 6.00 Build 0)  -->
<!DOCTYPE svg PUBLIC "-//W3C//DTD SVG 1.1//EN" "http://www.w3.org/Graphics/SVG/1.1/DTD/svg11.dtd">
<svg version="1.1" id="Layer_1" xmlns="http://www.w3.org/2000/svg" xmlns:xlink="http://www.w3.org/1999/xlink" x="0px" y="0px"
	 viewBox="0 0 159.932 203.301" enable-background="new 0 0 159.932 203.301" xml:space="preserve">
<path d="M155.339,15.623c-1.731-0.633-42.494-15.423-75.049-15.618V0c-0.108,0-0.216,0.002-0.324,0.002
	C79.858,0.002,79.75,0,79.642,0v0.005C47.087,0.199,6.323,14.989,4.593,15.623L0,17.305v83.934l0.697,1.443
	c1.051,2.175,45.051,74.167,79.269,100.62c39.711-27.49,78.218-98.445,79.269-100.62l0.697-1.443V17.305L155.339,15.623z
	 M145.932,97.972c-4.163,8.095-26.847,50.173-65.966,86.583C40.847,148.145,18.163,106.067,14,97.972V27.189
	c11.414-3.794,41.867-13.103,65.966-13.186c24.099,0.083,54.552,9.392,65.966,13.186V97.972z"/>
<g>
	<line x1="79.966" y1="30.95" x2="79.966" y2="138.959"/>
	<rect x="69.466" y="30.95" width="21" height="108.009"/>
</g>
<g>
	<line x1="52.105" y1="34.475" x2="52.105" y2="128.637"/>
	<rect x="45.105" y="34.475" width="14" height="94.162"/>
</g>
<g>
	<line x1="107.998" y1="34.475" x2="107.998" y2="128.637"/>
	<rect x="100.998" y="34.475" width="14" height="94.162"/>
</g>
</svg>
