<?xml version="1.0" encoding="utf-8"?>
<!-- Generator: Adobe Illustrator 18.0.0, SVG Export Plug-In . SVG Version: 6.00 Build 0)  -->
<!DOCTYPE svg PUBLIC "-//W3C//DTD SVG 1.1//EN" "http://www.w3.org/Graphics/SVG/1.1/DTD/svg11.dtd">
<svg version="1.1" id="Layer_1" xmlns="http://www.w3.org/2000/svg" xmlns:xlink="http://www.w3.org/1999/xlink" x="0px" y="0px"
	 viewBox="0 0 243.439 255.86" enable-background="new 0 0 243.439 255.86" xml:space="preserve">
<g>

		<radialGradient id="vs-SVGID_1_" cx="352.6468" cy="-277.6457" r="87.749" fx="334.8677" fy="-336.2606" gradientTransform="matrix(1 0 0 -1 -279 -167.937)" gradientUnits="userSpaceOnUse">
		<stop  offset="0" style="stop-color:#E1E1E1"/>
		<stop  offset="1" style="stop-color:#52B848"/>
	</radialGradient>
	<path fill="url(#vs-SVGID_1_)" d="M106.567,174.497c-29.569-6.825-51.614-33.319-51.614-64.962c0-14.028,4.332-27.044,11.732-37.782
		L55.841,60.451c-10.228,13.687-16.284,30.674-16.284,49.075c0,40.963,30.012,74.916,69.247,81.069L106.567,174.497z"/>
	<path fill="#010101" d="M109.747,191.555l-1.067-0.167c-19.296-3.026-36.989-12.881-49.819-27.75
		c-6.355-7.365-11.318-15.69-14.751-24.745c-3.553-9.373-5.354-19.253-5.354-29.367c0-9.092,1.463-18.029,4.349-26.562
		c2.79-8.251,6.86-15.987,12.095-22.993l0.566-0.757l11.951,12.455l-0.371,0.538c-7.583,11.004-11.591,23.912-11.591,37.328
		c0,30.859,20.969,57.251,50.993,64.181l0.538,0.124L109.747,191.555z M55.921,61.692C45.736,75.65,40.359,92.168,40.359,109.526
		c0,39.923,28.322,73.439,67.502,80.103l-2.012-14.478c-14.402-3.452-27.454-11.72-36.801-23.326
		c-4.725-5.867-8.407-12.421-10.942-19.479c-2.624-7.304-3.954-14.979-3.954-22.811c0-13.523,3.976-26.543,11.505-37.697
		L55.921,61.692z"/>
</g>
<g>

		<radialGradient id="vs-SVGID_2_" cx="447.7424" cy="-297.6713" r="91.058" fx="471.3823" fy="-385.6072" gradientTransform="matrix(1 0 0 -1 -279 -167.937)" gradientUnits="userSpaceOnUse">
		<stop  offset="0" style="stop-color:#E1E1E1"/>
		<stop  offset="0.4685" style="stop-color:#8FCB87"/>
		<stop  offset="0.8294" style="stop-color:#62BC4D"/>
		<stop  offset="1" style="stop-color:#52B848"/>
	</radialGradient>
	<path fill="url(#vs-SVGID_2_)" d="M134.119,190.645c39.391-6.019,69.567-40.045,69.567-81.119c0-18.05-5.827-34.739-15.704-48.288
		l-11.374,10.587c7.37,10.725,11.682,23.714,11.682,37.71c0,31.725-22.159,58.274-51.844,65.014L134.119,190.645z"/>
	<path fill="#010101" d="M133.171,191.6l2.56-17.711l0.537-0.122c30.158-6.848,51.22-33.261,51.22-64.233
		c0-13.385-3.991-26.268-11.542-37.256l-0.391-0.57l12.542-11.674l0.532,0.73c10.374,14.232,15.858,31.093,15.858,48.761
		c0,10.141-1.811,20.047-5.383,29.441c-3.45,9.076-8.438,17.416-14.825,24.789c-12.899,14.891-30.67,24.722-50.04,27.681
		L133.171,191.6z M137.161,175.206l-2.092,14.475c38.739-6.458,67.816-40.725,67.816-80.156c0-17.023-5.191-33.283-15.022-47.083
		l-10.206,9.5c7.483,11.13,11.435,24.113,11.435,37.592c0,7.852-1.337,15.545-3.974,22.866c-2.548,7.074-6.247,13.64-10.995,19.514
		C164.728,163.54,151.619,171.796,137.161,175.206z"/>
</g>
<g>

		<linearGradient id="vs-SVGID_3_" gradientUnits="userSpaceOnUse" x1="429.3583" y1="-195.7312" x2="429.3583" y2="-221.6921" gradientTransform="matrix(1 0 0 -1 -279 -167.937)">
		<stop  offset="0" style="stop-color:#CDCCCC"/>
		<stop  offset="0.4194" style="stop-color:#88C986"/>
		<stop  offset="0.8129" style="stop-color:#5FBB4C"/>
		<stop  offset="1" style="stop-color:#52B848"/>
	</linearGradient>
	<path fill="url(#vs-SVGID_3_)" d="M137.818,44.847c7.333,1.83,14.186,4.875,20.332,8.908l13.505-9.282
		c-12.005-9.247-26.642-15.245-42.594-16.679L137.818,44.847z"/>
	<path fill="#010101" d="M158.16,54.72l-0.45-0.295c-6.18-4.055-12.938-7.016-20.086-8.8l-0.353-0.088l-9.587-18.671l1.449,0.13
		c15.661,1.407,30.534,7.231,43.011,16.842l0.872,0.672L158.16,54.72z M138.365,44.159c7.019,1.792,13.667,4.695,19.772,8.632
		l12.15-8.351c-11.661-8.734-25.385-14.142-39.841-15.704L138.365,44.159z"/>
</g>
<g>

		<linearGradient id="vs-SVGID_4_" gradientUnits="userSpaceOnUse" x1="372.1864" y1="-195.6889" x2="372.1864" y2="-221.2199" gradientTransform="matrix(1 0 0 -1 -279 -167.937)">
		<stop  offset="0" style="stop-color:#CDCCCC"/>
		<stop  offset="0.4119" style="stop-color:#88C987"/>
		<stop  offset="0.8108" style="stop-color:#60BB4D"/>
		<stop  offset="1" style="stop-color:#52B848"/>
	</linearGradient>
	<path fill="url(#vs-SVGID_4_)" d="M114.669,27.752c-16.09,1.35-30.86,7.342-42.966,16.632l14.12,8.899
		c6.258-3.991,13.226-6.966,20.673-8.693L114.669,27.752z"/>
	<path fill="#010101" d="M85.826,54.232l-15.523-9.783l0.913-0.7c12.59-9.663,27.593-15.47,43.386-16.795l1.403-0.118l-8.954,18.448
		l-0.373,0.086c-7.254,1.683-14.126,4.572-20.423,8.588L85.826,54.232z M73.112,44.324l12.711,8.011
		c6.225-3.905,12.99-6.742,20.119-8.439l7.385-15.216C98.74,30.161,84.887,35.548,73.112,44.324z"/>
</g>
<g>

		<radialGradient id="vs-SVGID_5_" cx="399.6885" cy="-422.5546" r="266.8567" gradientTransform="matrix(1 0 0 -1 -279 -167.937)" gradientUnits="userSpaceOnUse">
		<stop  offset="0" style="stop-color:#52B848"/>
		<stop  offset="1" style="stop-color:#CDCCCC"/>
	</radialGradient>
	<path fill="url(#vs-SVGID_5_)" d="M119.805,105.252L88.39,89.651L0.929,2.538c0,0-0.721-2.084,1.282-0.882
		s104.451,68.761,104.451,68.761l14.888,30.774l15.459-29.812L240.337,1.923c0,0,4.702-3.526,0.641,1.923
		c-4.061,5.45-85.591,85.591-85.591,85.591l-31.736,15.815l15.067,31.308l-15.174,113.8c0,0-1.87,10.204-3.473,0.534
		c-1.603-9.67-16.242-114.041-16.242-114.041L119.805,105.252z"/>
	<path fill="#010101" d="M121.63,255.86c-1.128,0-1.764-1.31-2.348-4.834c-1.586-9.569-16.099-113.017-16.245-114.06l-0.035-0.249
		l15.724-31.106l-30.809-15.3l-0.092-0.092L0.233,2.975L0.172,2.8C0.052,2.452-0.182,1.577,0.25,0.971
		c0.225-0.316,0.576-0.49,0.987-0.49c0.392,0,0.832,0.155,1.387,0.488c1.995,1.197,100.296,66.02,104.479,68.779l0.184,0.122
		l14.287,29.533l14.817-28.574l0.17-0.114L239.873,1.27c0.642-0.48,1.809-1.27,2.536-1.27c0.402,0,0.743,0.202,0.913,0.54
		c0.299,0.595,0.118,1.344-1.701,3.785c-4.051,5.437-82.341,82.409-85.672,85.683l-0.091,0.089l-0.114,0.057l-31.028,15.462
		l14.828,30.812l-0.032,0.238l-15.176,113.82l-0.004,0.019c-0.009,0.05-0.227,1.23-0.582,2.431
		C123.146,254.986,122.512,255.86,121.63,255.86z M104.659,136.992c0.8,5.702,14.659,104.451,16.204,113.772
		c0.314,1.895,0.606,2.795,0.793,3.215c0.356-0.691,0.822-2.246,1.098-3.744l15.139-113.543l-15.305-31.805l32.33-16.11
		c3.14-3.088,81.501-80.151,85.419-85.409c0.274-0.368,0.498-0.681,0.68-0.948c-0.067,0.048-0.133,0.096-0.198,0.145l-0.034,0.024
		L137.626,71.93l-16.101,31.051l-15.488-32.015C101.214,67.784,7.143,5.753,1.99,2.463l86.873,86.528l32.021,15.902L104.659,136.992
		z"/>
</g>
<g>

		<radialGradient id="vs-SVGID_6_" cx="400.6217" cy="-257.1071" r="59.6424" gradientTransform="matrix(1 0 0 -1 -279 -167.937)" gradientUnits="userSpaceOnUse">
		<stop  offset="0" style="stop-color:#52B848"/>
		<stop  offset="0.1506" style="stop-color:#55B948"/>
		<stop  offset="0.3137" style="stop-color:#5CBA48"/>
		<stop  offset="0.4827" style="stop-color:#68BE5C"/>
		<stop  offset="0.6557" style="stop-color:#7CC579"/>
		<stop  offset="0.83" style="stop-color:#9FCC9F"/>
		<stop  offset="1" style="stop-color:#CDCCCC"/>
	</radialGradient>
	<polygon fill="url(#vs-SVGID_6_)" points="121.717,90.292 103.991,55.778 121.717,20.409 140.001,55.351 	"/>
	<path fill="#010101" d="M121.71,92.034l-18.618-36.251l18.609-37.131l19.204,36.699l-0.195,0.372L121.71,92.034z M104.889,55.774
		l16.834,32.777l17.373-33.2l-17.364-33.184L104.889,55.774z"/>
</g>
<radialGradient id="vs-SVGID_7_" cx="401.3104" cy="-270.3161" r="119.2929" gradientTransform="matrix(1 0 0 -1 -279 -167.937)" gradientUnits="userSpaceOnUse">
	<stop  offset="0" style="stop-color:#5E57A5"/>
	<stop  offset="1" style="stop-color:#07070B"/>
</radialGradient>
<polygon fill="url(#vs-SVGID_7_)" points="118.576,101.191 89.726,87.407 17.759,15.12 104.311,72.501 "/>
<radialGradient id="vs-SVGID_8_" cx="401.3104" cy="-270.3161" r="120.2132" gradientTransform="matrix(1 0 0 -1 -279 -167.937)" gradientUnits="userSpaceOnUse">
	<stop  offset="0" style="stop-color:#5E57A5"/>
	<stop  offset="1" style="stop-color:#07070B"/>
</radialGradient>
<polygon fill="url(#vs-SVGID_8_)" points="125.255,101.191 138.932,73.302 225.378,15.12 153.999,87.621 "/>
<radialGradient id="vs-SVGID_9_" cx="400.6217" cy="-416.2673" r="139.7662" gradientTransform="matrix(1 0 0 -1 -279 -167.937)" gradientUnits="userSpaceOnUse">
	<stop  offset="0" style="stop-color:#5E57A5"/>
	<stop  offset="1" style="stop-color:#07070B"/>
</radialGradient>
<polygon fill="url(#vs-SVGID_9_)" points="121.862,108.271 136.154,137.629 121.83,241.812 106.983,137.522 "/>
<radialGradient id="vs-SVGID_10_" cx="400.6693" cy="-251.4028" r="48.2215" gradientTransform="matrix(1 0 0 -1 -279 -167.937)" gradientUnits="userSpaceOnUse">
	<stop  offset="0" style="stop-color:#5E57A5"/>
	<stop  offset="1" style="stop-color:#07070B"/>
</radialGradient>
<polygon fill="url(#vs-SVGID_10_)" points="121.862,85.27 106.983,55.778 121.862,26.286 136.742,55.778 "/>
</svg>
