<?xml version="1.0" encoding="utf-8"?>
<!-- Generator: Adobe Illustrator 18.0.0, SVG Export Plug-In . SVG Version: 6.00 Build 0)  -->
<!DOCTYPE svg PUBLIC "-//W3C//DTD SVG 1.1//EN" "http://www.w3.org/Graphics/SVG/1.1/DTD/svg11.dtd">
<svg version="1.1" id="Layer_1" xmlns="http://www.w3.org/2000/svg" xmlns:xlink="http://www.w3.org/1999/xlink" x="0px" y="0px"
	 viewBox="0 0 582.289 612" enable-background="new 0 0 582.289 612" xml:space="preserve">
	 <defs>
<radialGradient id="vs-SVGID_1_" cx="118.0473" cy="-274.6499" r="87.749" fx="100.2683" fy="-333.2648" gradientTransform="matrix(2.3919 0 0 -2.3919 -106.2105 -394.5471)" gradientUnits="userSpaceOnUse">
		<stop  offset="0" style="stop-color:#E1E1E1"/>
		<stop  offset="1" style="stop-color:#53B949"/>
	</radialGradient>
	<radialGradient id="vs-SVGID_2_" cx="213.143" cy="-294.6756" r="91.058" fx="236.7829" fy="-382.6114" gradientTransform="matrix(2.3919 0 0 -2.3919 -106.2105 -394.5471)" gradientUnits="userSpaceOnUse">
		<stop  offset="0" style="stop-color:#E1E1E1"/>
		<stop  offset="0.4685" style="stop-color:#90CC87"/>
		<stop  offset="0.8294" style="stop-color:#64BC4F"/>
		<stop  offset="1" style="stop-color:#53B949"/>
	</radialGradient>
	<linearGradient id="vs-SVGID_3_" gradientUnits="userSpaceOnUse" x1="194.7637" y1="-192.7468" x2="194.7637" y2="-218.7082" gradientTransform="matrix(2.3919 0 0 -2.3919 -106.2105 -394.5471)">
		<stop  offset="0" style="stop-color:#CECCCC"/>
		<stop  offset="0.4194" style="stop-color:#88C986"/>
		<stop  offset="0.8129" style="stop-color:#60BB4D"/>
		<stop  offset="1" style="stop-color:#53B949"/>
	</linearGradient>
	<linearGradient id="vs-SVGID_4_" gradientUnits="userSpaceOnUse" x1="137.5912" y1="-192.7037" x2="137.5912" y2="-218.2353" gradientTransform="matrix(2.3919 0 0 -2.3919 -106.2105 -394.5471)">
		<stop  offset="0" style="stop-color:#CECCCC"/>
		<stop  offset="0.4119" style="stop-color:#88CA88"/>
		<stop  offset="0.8108" style="stop-color:#62BC4E"/>
		<stop  offset="1" style="stop-color:#53B949"/>
	</linearGradient>
	<radialGradient id="vs-SVGID_5_" cx="165.089" cy="-419.5588" r="266.8567" gradientTransform="matrix(2.3919 0 0 -2.3919 -106.2105 -394.5471)" gradientUnits="userSpaceOnUse">
		<stop  offset="0" style="stop-color:#53B949"/>
		<stop  offset="1" style="stop-color:#CECCCC"/>
	</radialGradient>
	<radialGradient id="vs-SVGID_6_" cx="166.0222" cy="-254.1114" r="59.6424" gradientTransform="matrix(2.3919 0 0 -2.3919 -106.2105 -394.5471)" gradientUnits="userSpaceOnUse">
			<stop  offset="0" style="stop-color:#53B949"/>
			<stop  offset="0.1506" style="stop-color:#56B949"/>
			<stop  offset="0.3137" style="stop-color:#5DBA48"/>
			<stop  offset="0.4827" style="stop-color:#69BE5D"/>
			<stop  offset="0.6557" style="stop-color:#7DC57A"/>
			<stop  offset="0.83" style="stop-color:#9FCC9F"/>
			<stop  offset="1" style="stop-color:#CECCCC"/>
		</radialGradient>
	<radialGradient id="vs-SVGID_7_" cx="166.711" cy="-267.3203" r="119.2929" gradientTransform="matrix(2.3919 0 0 -2.3919 -106.2105 -394.5471)" gradientUnits="userSpaceOnUse">
		<stop  offset="0" style="stop-color:#5F58A6"/>
		<stop  offset="1" style="stop-color:#0B0C0E"/>
	</radialGradient>
	<radialGradient id="vs-SVGID_8_" cx="166.711" cy="-267.3203" r="120.2132" gradientTransform="matrix(2.3919 0 0 -2.3919 -106.2105 -394.5471)" gradientUnits="userSpaceOnUse">
		<stop  offset="0" style="stop-color:#5F58A6"/>
		<stop  offset="1" style="stop-color:#0B0C0E"/>
	</radialGradient>
	<radialGradient id="vs-SVGID_9_" cx="166.0222" cy="-413.2716" r="139.7662" gradientTransform="matrix(2.3919 0 0 -2.3919 -106.2105 -394.5471)" gradientUnits="userSpaceOnUse">
		<stop  offset="0" style="stop-color:#5F58A6"/>
		<stop  offset="1" style="stop-color:#0B0C0E"/>
	</radialGradient>
	<radialGradient id="vs-SVGID_10_" cx="166.0699" cy="-248.4071" r="48.2215" gradientTransform="matrix(2.3919 0 0 -2.3919 -106.2105 -394.5471)" gradientUnits="userSpaceOnUse">
		<stop  offset="0" style="stop-color:#5F58A6"/>
		<stop  offset="1" style="stop-color:#0B0C0E"/>
	</radialGradient>
	 </defs>
<g>


	<path fill="url(#vs-SVGID_1_)" d="M254.9,417.386c-70.727-16.325-123.457-79.697-123.457-155.385
		c0-33.554,10.362-64.687,28.062-90.372l-25.936-27.031c-24.465,32.738-38.95,73.37-38.95,117.384
		c0,97.981,71.787,179.194,165.634,193.912L254.9,417.386z"/>
	<path fill="#020202" d="M262.507,458.187l-2.552-0.399c-46.155-7.238-88.475-30.81-119.164-66.376
		c-15.201-17.617-27.072-37.529-35.283-59.188c-8.499-22.42-12.806-46.052-12.806-70.244c0-21.747,3.499-43.124,10.403-63.535
		c6.673-19.736,16.409-38.24,28.93-54.998l1.354-1.811l28.586,29.792l-0.887,1.287c-18.138,26.321-27.725,57.196-27.725,89.286
		c0,73.813,50.156,136.941,121.972,153.517l1.287,0.297L262.507,458.187z M133.76,147.566
		c-24.364,33.387-37.226,72.894-37.226,114.416c0,95.493,67.744,175.661,161.46,191.601l-4.813-34.63
		c-34.449-8.257-65.668-28.033-88.026-55.794c-11.302-14.033-20.109-29.71-26.173-46.592c-6.276-17.471-9.458-35.829-9.458-54.562
		c0-32.346,9.51-63.489,27.519-90.169L133.76,147.566z"/>
</g>
<g>


	<path fill="url(#vs-SVGID_2_)" d="M320.805,456.011c94.221-14.397,166.4-95.785,166.4-194.031c0-43.174-13.938-83.093-37.563-115.502
		l-27.206,25.323c17.629,25.653,27.943,56.722,27.943,90.2c0,75.884-53.003,139.388-124.007,155.509L320.805,456.011z"/>
	<path fill="#020202" d="M318.537,458.297l6.123-42.364l1.284-0.292C398.08,399.261,448.459,336.083,448.459,262
		c0-32.016-9.546-62.831-27.608-89.114l-0.935-1.363l30-27.923l1.273,1.746c24.814,34.042,37.931,74.372,37.931,116.633
		c0,24.257-4.332,47.951-12.876,70.421c-8.252,21.709-20.183,41.658-35.46,59.294c-30.854,35.618-73.361,59.133-119.692,66.211
		L318.537,458.297z M328.08,419.084l-5.004,34.623c92.661-15.447,162.211-97.411,162.211-191.728
		c0-40.718-12.417-79.611-35.932-112.619l-24.412,22.723c17.899,26.622,27.352,57.677,27.352,89.918
		c0,18.781-3.198,37.183-9.506,54.694c-6.095,16.921-14.942,32.626-26.299,46.676C394.017,391.177,362.661,410.925,328.08,419.084z"
		/>
</g>
<g>


	<path fill="url(#vs-SVGID_3_)" d="M329.65,107.274c17.54,4.377,33.932,11.661,48.633,21.307l32.303-22.202
		c-28.715-22.118-63.726-36.465-101.882-39.895L329.65,107.274z"/>
	<path fill="#020202" d="M378.309,130.889l-1.076-0.706c-14.782-9.699-30.947-16.782-48.044-21.049l-0.844-0.21l-22.931-44.66
		l3.466,0.311c37.46,3.365,73.035,17.296,102.879,40.285l2.086,1.607L378.309,130.889z M330.961,105.628
		c16.789,4.286,32.691,11.23,47.293,20.647l29.062-19.975c-27.892-20.891-60.719-33.827-95.297-37.563L330.961,105.628z"/>
</g>
<g>


	<path fill="url(#vs-SVGID_4_)" d="M274.28,66.381c-38.486,3.229-73.815,17.562-102.772,39.783l33.774,21.286
		c14.969-9.546,31.636-16.662,49.448-20.793L274.28,66.381z"/>
	<path fill="#020202" d="M205.29,129.72l-37.13-23.4l2.184-1.674c30.114-23.113,66-37.003,103.775-40.173l3.356-0.282
		l-21.417,44.126l-0.892,0.206c-17.351,4.026-33.788,10.936-48.85,20.542L205.29,129.72z M174.879,106.023l30.404,19.162
		c14.89-9.34,31.071-16.126,48.123-20.186l17.664-36.396C236.181,72.144,203.043,85.031,174.879,106.023z"/>
</g>
<g>


	<path fill="url(#vs-SVGID_5_)" d="M286.564,251.756l-75.143-37.314L2.224,6.071c0,0-1.725-4.985,3.066-2.11
		c4.791,2.875,249.84,164.472,249.84,164.472l35.611,73.609l36.975-71.308L574.871,4.603c0,0,11.247-8.434,1.533,4.6
		c-9.714,13.036-204.728,204.728-204.728,204.728l-75.91,37.828l36.039,74.887L295.51,598.847c0,0-4.473,24.407-8.307,1.277
		s-38.85-272.778-38.85-272.778L286.564,251.756z"/>
	<path fill="#020202" d="M290.933,612c-2.698,0-4.219-3.133-5.616-11.563c-3.794-22.888-38.508-270.329-38.857-272.824l-0.084-0.596
		l37.611-74.403l-73.693-36.597l-0.22-0.22L0.556,7.116L0.41,6.697C0.123,5.865-0.434,3.774,0.597,2.325
		c0.538-0.756,1.378-1.172,2.361-1.172c0.938,0,1.99,0.371,3.318,1.167c4.772,2.863,239.901,157.915,249.907,164.515l0.44,0.292
		l34.174,70.641l35.441-68.347l0.407-0.273L573.761,3.038C575.297,1.89,578.088,0,579.827,0c0.962,0,1.777,0.483,2.184,1.292
		c0.715,1.423,0.282,3.215-4.069,9.053c-9.69,13.005-196.954,197.117-204.922,204.948l-0.218,0.213l-0.273,0.136l-74.217,36.984
		l35.468,73.7l-0.077,0.569l-36.3,272.25l-0.01,0.045c-0.022,0.12-0.543,2.942-1.392,5.815C294.556,609.91,293.04,612,290.933,612z
		 M250.337,327.676c1.914,13.639,35.063,249.84,38.759,272.135c0.751,4.533,1.45,6.685,1.897,7.69
		c0.852-1.653,1.966-5.372,2.626-8.955l36.211-271.587l-36.609-76.075l77.331-38.534c7.511-7.387,194.945-191.717,204.317-204.293
		c0.655-0.88,1.191-1.629,1.627-2.268c-0.16,0.115-0.318,0.23-0.474,0.347l-0.082,0.057L329.192,172.052l-38.512,74.272
		l-37.046-76.578C242.097,162.138,17.088,13.761,4.763,5.894l207.791,206.969l76.592,38.037L250.337,327.676z"/>
</g>
<g>


	<polygon fill="url(#vs-SVGID_6_)" points="291.137,215.975 248.739,133.42 291.137,48.82 334.872,132.396 	"/>
	<path fill="#020202" d="M291.123,220.14l-44.533-86.71l44.511-88.815l45.935,87.782l-0.466,0.89L291.123,220.14z M250.889,133.408
		l40.266,78.4l41.555-79.412l-41.534-79.374L250.889,133.408z"/>
</g>

<polygon fill="url(#vs-SVGID_7_)" points="283.629,242.045 214.618,209.075 42.478,36.167 249.507,173.418 "/>

<polygon fill="url(#vs-SVGID_8_)" points="299.601,242.045 332.315,175.336 539.088,36.167 368.354,209.584 "/>

<polygon fill="url(#vs-SVGID_9_)" points="291.485,258.977 325.671,329.2 291.408,578.401 255.895,328.946 "/>

<polygon fill="url(#vs-SVGID_10_)" points="291.485,203.963 255.895,133.42 291.485,62.877 327.076,133.42 "/>
</svg>
