<?xml version="1.0" encoding="utf-8"?>
<!-- Generator: Adobe Illustrator 18.0.0, SVG Export Plug-In . SVG Version: 6.00 Build 0)  -->
<!DOCTYPE svg PUBLIC "-//W3C//DTD SVG 1.1//EN" "http://www.w3.org/Graphics/SVG/1.1/DTD/svg11.dtd">
<svg version="1.1" id="Layer_1" xmlns="http://www.w3.org/2000/svg" xmlns:xlink="http://www.w3.org/1999/xlink" x="0px" y="0px"
	 viewBox="0 0 792 612" enable-background="new 0 0 792 612" xml:space="preserve">
<g>

		<radialGradient id="vs-SVGID_1_" cx="625.7381" cy="-101.1772" r="87.749" fx="607.959" fy="-159.7922" gradientTransform="matrix(1 0 0 -1 -279 185)" gradientUnits="userSpaceOnUse">
		<stop  offset="0" style="stop-color:#E1E1E1"/>
		<stop  offset="1" style="stop-color:#52B848"/>
	</radialGradient>
	<path fill="url(#vs-SVGID_1_)" d="M379.658,350.965c-29.569-6.825-51.614-33.319-51.614-64.962c0-14.028,4.332-27.044,11.732-37.782
		l-10.844-11.301c-10.228,13.687-16.284,30.674-16.284,49.075c0,40.963,30.012,74.916,69.247,81.069L379.658,350.965z"/>
	<path fill="#010101" d="M382.838,368.023l-1.067-0.167c-19.296-3.026-36.989-12.881-49.819-27.75
		c-6.355-7.365-11.318-15.69-14.751-24.745c-3.553-9.373-5.355-19.253-5.355-29.367c0-9.092,1.463-18.029,4.349-26.562
		c2.79-8.251,6.86-15.987,12.095-22.993l0.566-0.757l11.951,12.455l-0.371,0.538c-7.583,11.004-11.591,23.912-11.591,37.328
		c0,30.858,20.969,57.251,50.993,64.181l0.538,0.124L382.838,368.023z M329.013,238.161c-10.185,13.958-15.563,30.476-15.563,47.834
		c0,39.923,28.322,73.439,67.502,80.103l-2.012-14.478c-14.402-3.452-27.454-11.72-36.801-23.326
		c-4.725-5.867-8.407-12.421-10.942-19.479c-2.624-7.304-3.954-14.979-3.954-22.811c0-13.523,3.976-26.543,11.505-37.697
		L329.013,238.161z"/>
</g>
<g>

		<radialGradient id="vs-SVGID_2_" cx="720.8338" cy="-121.2029" r="91.058" fx="744.4737" fy="-209.1387" gradientTransform="matrix(1 0 0 -1 -279 185)" gradientUnits="userSpaceOnUse">
		<stop  offset="0" style="stop-color:#E1E1E1"/>
		<stop  offset="0.4685" style="stop-color:#8FCB87"/>
		<stop  offset="0.8294" style="stop-color:#62BC4D"/>
		<stop  offset="1" style="stop-color:#52B848"/>
	</radialGradient>
	<path fill="url(#vs-SVGID_2_)" d="M407.211,367.113c39.391-6.019,69.567-40.045,69.567-81.119c0-18.05-5.827-34.739-15.704-48.288
		l-11.374,10.587c7.37,10.725,11.682,23.714,11.682,37.71c0,31.725-22.159,58.274-51.844,65.014L407.211,367.113z"/>
	<path fill="#010101" d="M406.263,368.069l2.56-17.711l0.537-0.122c30.158-6.848,51.22-33.262,51.22-64.233
		c0-13.385-3.991-26.268-11.542-37.256l-0.391-0.57l12.542-11.674l0.532,0.73c10.374,14.232,15.858,31.093,15.858,48.761
		c0,10.141-1.811,20.047-5.383,29.441c-3.45,9.076-8.438,17.416-14.825,24.789c-12.899,14.891-30.67,24.722-50.04,27.681
		L406.263,368.069z M410.252,351.675l-2.092,14.475c38.739-6.458,67.816-40.725,67.816-80.156c0-17.023-5.191-33.283-15.022-47.083
		l-10.206,9.5c7.483,11.13,11.435,24.113,11.435,37.592c0,7.852-1.337,15.545-3.974,22.866c-2.548,7.074-6.247,13.64-10.995,19.514
		C437.819,340.008,424.71,348.264,410.252,351.675z"/>
</g>
<g>

		<linearGradient id="vs-SVGID_3_" gradientUnits="userSpaceOnUse" x1="702.4497" y1="-19.2627" x2="702.4497" y2="-45.2236" gradientTransform="matrix(1 0 0 -1 -279 185)">
		<stop  offset="0" style="stop-color:#CDCCCC"/>
		<stop  offset="0.4194" style="stop-color:#88C986"/>
		<stop  offset="0.8129" style="stop-color:#5FBB4C"/>
		<stop  offset="1" style="stop-color:#52B848"/>
	</linearGradient>
	<path fill="url(#vs-SVGID_3_)" d="M410.909,221.316c7.333,1.83,14.186,4.875,20.332,8.908l13.505-9.282
		c-12.005-9.247-26.642-15.245-42.594-16.679L410.909,221.316z"/>
	<path fill="#010101" d="M431.252,231.189l-0.45-0.295c-6.18-4.055-12.938-7.016-20.086-8.8l-0.353-0.088l-9.587-18.671l1.449,0.13
		c15.661,1.407,30.534,7.231,43.011,16.842l0.872,0.672L431.252,231.189z M411.457,220.628c7.019,1.792,13.667,4.695,19.772,8.632
		l12.15-8.351c-11.661-8.734-25.385-14.142-39.841-15.704L411.457,220.628z"/>
</g>
<g>

		<linearGradient id="vs-SVGID_4_" gradientUnits="userSpaceOnUse" x1="645.2777" y1="-19.2204" x2="645.2777" y2="-44.7514" gradientTransform="matrix(1 0 0 -1 -279 185)">
		<stop  offset="0" style="stop-color:#CDCCCC"/>
		<stop  offset="0.4119" style="stop-color:#88C987"/>
		<stop  offset="0.8108" style="stop-color:#60BB4D"/>
		<stop  offset="1" style="stop-color:#52B848"/>
	</linearGradient>
	<path fill="url(#vs-SVGID_4_)" d="M387.76,204.22c-16.09,1.35-30.86,7.342-42.966,16.632l14.12,8.899
		c6.258-3.991,13.227-6.966,20.673-8.693L387.76,204.22z"/>
	<path fill="#010101" d="M358.917,230.7l-15.523-9.783l0.913-0.7c12.59-9.663,27.593-15.47,43.386-16.795l1.403-0.118l-8.954,18.448
		l-0.373,0.086c-7.254,1.683-14.126,4.572-20.423,8.588L358.917,230.7z M346.203,220.793l12.711,8.011
		c6.225-3.905,12.99-6.742,20.119-8.439l7.385-15.216C371.832,206.629,357.978,212.017,346.203,220.793z"/>
</g>
<g>

		<radialGradient id="vs-SVGID_5_" cx="672.7798" cy="-246.0861" r="266.8567" gradientTransform="matrix(1 0 0 -1 -279 185)" gradientUnits="userSpaceOnUse">
		<stop  offset="0" style="stop-color:#52B848"/>
		<stop  offset="1" style="stop-color:#CDCCCC"/>
	</radialGradient>
	<path fill="url(#vs-SVGID_5_)" d="M392.896,281.72l-31.415-15.601l-87.461-87.113c0,0-0.721-2.084,1.282-0.882
		c2.004,1.202,104.451,68.761,104.451,68.761l14.888,30.774l15.459-29.812l103.329-69.456c0,0,4.702-3.526,0.641,1.923
		c-4.061,5.45-85.591,85.591-85.591,85.591l-31.736,15.815l15.067,31.308l-15.174,113.8c0,0-1.87,10.204-3.473,0.534
		c-1.603-9.67-16.242-114.041-16.242-114.041L392.896,281.72z"/>
	<path fill="#010101" d="M394.721,432.328c-1.128,0-1.764-1.31-2.348-4.834c-1.586-9.569-16.099-113.017-16.245-114.06l-0.035-0.249
		l15.724-31.106l-30.809-15.3l-0.092-0.092l-87.592-87.244l-0.061-0.175c-0.12-0.348-0.354-1.223,0.078-1.829
		c0.225-0.316,0.576-0.49,0.987-0.49c0.392,0,0.832,0.155,1.387,0.488c1.995,1.197,100.296,66.02,104.479,68.779l0.184,0.122
		l14.287,29.533l14.817-28.574l0.17-0.114l103.311-69.444c0.642-0.48,1.809-1.27,2.536-1.27c0.402,0,0.744,0.202,0.913,0.54
		c0.299,0.595,0.118,1.344-1.701,3.785c-4.051,5.437-82.341,82.409-85.672,85.683l-0.091,0.089l-0.114,0.057l-31.028,15.462
		l14.828,30.812l-0.032,0.238l-15.176,113.82l-0.004,0.019c-0.009,0.05-0.227,1.23-0.582,2.431
		C396.237,431.454,395.603,432.328,394.721,432.328z M377.75,313.46c0.8,5.702,14.659,104.451,16.204,113.772
		c0.314,1.895,0.606,2.795,0.793,3.215c0.356-0.691,0.822-2.246,1.098-3.744l15.139-113.543l-15.305-31.805l32.33-16.11
		c3.14-3.088,81.501-80.151,85.419-85.409c0.274-0.368,0.498-0.681,0.68-0.948c-0.067,0.048-0.133,0.096-0.198,0.145l-0.034,0.024
		l-103.159,69.341l-16.101,31.051l-15.488-32.015c-4.823-3.18-98.893-65.212-104.046-68.501l86.873,86.528l32.021,15.902
		L377.75,313.46z"/>
</g>
<g>

		<radialGradient id="vs-SVGID_6_" cx="673.7131" cy="-80.6387" r="59.6424" gradientTransform="matrix(1 0 0 -1 -279 185)" gradientUnits="userSpaceOnUse">
		<stop  offset="0" style="stop-color:#52B848"/>
		<stop  offset="0.1506" style="stop-color:#55B948"/>
		<stop  offset="0.3137" style="stop-color:#5CBA48"/>
		<stop  offset="0.4827" style="stop-color:#68BE5C"/>
		<stop  offset="0.6557" style="stop-color:#7CC579"/>
		<stop  offset="0.83" style="stop-color:#9FCC9F"/>
		<stop  offset="1" style="stop-color:#CDCCCC"/>
	</radialGradient>
	<polygon fill="url(#vs-SVGID_6_)" points="394.808,266.761 377.082,232.247 394.808,196.878 413.092,231.819 	"/>
	<path fill="#010101" d="M394.802,268.502l-18.618-36.251l18.609-37.131l19.204,36.699l-0.195,0.372L394.802,268.502z
		 M377.981,232.242l16.834,32.777l17.373-33.2l-17.364-33.184L377.981,232.242z"/>
</g>
<radialGradient id="vs-SVGID_7_" cx="674.4018" cy="-93.8476" r="119.2929" gradientTransform="matrix(1 0 0 -1 -279 185)" gradientUnits="userSpaceOnUse">
	<stop  offset="0" style="stop-color:#5E57A5"/>
	<stop  offset="1" style="stop-color:#07070B"/>
</radialGradient>
<polygon fill="url(#vs-SVGID_7_)" points="391.668,277.66 362.817,263.876 290.85,191.588 377.403,248.969 "/>
<radialGradient id="vs-SVGID_8_" cx="674.4018" cy="-93.8476" r="120.2132" gradientTransform="matrix(1 0 0 -1 -279 185)" gradientUnits="userSpaceOnUse">
	<stop  offset="0" style="stop-color:#5E57A5"/>
	<stop  offset="1" style="stop-color:#07070B"/>
</radialGradient>
<polygon fill="url(#vs-SVGID_8_)" points="398.346,277.66 412.023,249.771 498.469,191.588 427.09,264.089 "/>
<radialGradient id="vs-SVGID_9_" cx="673.7131" cy="-239.7988" r="139.7662" gradientTransform="matrix(1 0 0 -1 -279 185)" gradientUnits="userSpaceOnUse">
	<stop  offset="0" style="stop-color:#5E57A5"/>
	<stop  offset="1" style="stop-color:#07070B"/>
</radialGradient>
<polygon fill="url(#vs-SVGID_9_)" points="394.953,284.739 409.245,314.097 394.921,418.281 380.074,313.991 "/>
<radialGradient id="vs-SVGID_10_" cx="673.7606" cy="-74.9343" r="48.2215" gradientTransform="matrix(1 0 0 -1 -279 185)" gradientUnits="userSpaceOnUse">
	<stop  offset="0" style="stop-color:#5E57A5"/>
	<stop  offset="1" style="stop-color:#07070B"/>
</radialGradient>
<polygon fill="url(#vs-SVGID_10_)" points="394.953,261.739 380.074,232.247 394.953,202.755 409.833,232.247 "/>
</svg>
