<?xml version="1.0" encoding="utf-8"?>
<!-- Generator: Adobe Illustrator 18.0.0, SVG Export Plug-In . SVG Version: 6.00 Build 0)  -->
<!DOCTYPE svg PUBLIC "-//W3C//DTD SVG 1.1//EN" "http://www.w3.org/Graphics/SVG/1.1/DTD/svg11.dtd">
<svg version="1.1" id="Layer_1" xmlns="http://www.w3.org/2000/svg" xmlns:xlink="http://www.w3.org/1999/xlink" x="0px" y="0px"
	 viewBox="0 0 243.859 243.859" enable-background="new 0 0 243.859 243.859" xml:space="preserve">
<circle stroke="#FFFFFF" stroke-width="13" stroke-miterlimit="10" cx="121.93" cy="121.93" r="115.43"/>
<path fill="#FFFFFF" d="M158.558,70.169c0,0,44.073,46.646,31.553,72.676c-12.835-5.45-34.391-6.536-47.5-6.641
	c-11.343-17.141-21.661-88.018-21.661-88.018s-10.327,70.941-21.677,88.041c-13.215,0.194-33.364,1.422-45.6,6.618
	c-12.52-26.029,31.553-72.676,31.553-72.676c-34.928,14.936-73.303,71.924-37.686,96.512l-0.613-3.253
	c0.206-3.531,3.155-9.237,18.077-13.521c5.542-1.591,24.589-2.879,36.966-3.574c3.993,3.06,11.125,5.106,19.286,5.106
	c8.219,0,15.395-2.076,19.371-5.172c12.308,0.677,32.43,1.997,38.153,3.64c14.922,4.285,17.871,9.99,18.077,13.521l-0.613,3.253
	C231.861,142.093,193.486,85.105,158.558,70.169z"/>
</svg>
