<?xml version="1.0" standalone="no"?>
<!DOCTYPE svg PUBLIC "-//W3C//DTD SVG 1.1//EN" "http://www.w3.org/Graphics/SVG/1.1/DTD/svg11.dtd" >
<svg xmlns="http://www.w3.org/2000/svg">
<metadata></metadata>
<defs>
<font id="geogrotesque_mediumregular" horiz-adv-x="1126" >
<font-face units-per-em="2048" ascent="1536" descent="-512" />
<missing-glyph horiz-adv-x="432" />
<glyph unicode="&#xfb01;" horiz-adv-x="1161" d="M49 893v72q0 37 39 39l107 8h14v139q0 63 22.5 114.5t71.5 88.5t126 57.5t185 20.5h334q39 0 39 -39v-86q0 -41 -39 -41h-334q-117 0 -164 -35t-47 -101v-118h574q39 0 39 -39v-932q0 -23 -7.5 -32t-29.5 -9h-119q-39 0 -39 41v811h-418v-811q0 -41 -36 -41h-121 q-37 0 -37 41v811h-121q-39 0 -39 41z" />
<glyph unicode="&#xfb02;" horiz-adv-x="1161" d="M49 893v72q0 37 39 39l107 8h14v139q0 63 22.5 114.5t71.5 88.5t126 57.5t185 20.5h363q39 0 39 -39v-1352q0 -23 -7.5 -32t-29.5 -9h-119q-39 0 -39 41v1225h-207q-117 0 -164 -35t-47 -101v-118h201q39 0 39 -37v-82q0 -41 -39 -41h-201v-811q0 -41 -36 -41h-121 q-37 0 -37 41v811h-121q-39 0 -39 41z" />
<glyph unicode="&#xfb03;" horiz-adv-x="1787" d="M63 893v72q0 37 37 39l109 8h12v147q0 127 95.5 204t312.5 77h14q39 0 39 -39v-86q0 -41 -39 -41h-14q-117 0 -164 -35t-47 -100v-127h418v139q0 63 22.5 114.5t71.5 88.5t126 57.5t185 20.5h334q41 0 41 -39v-86q0 -41 -41 -41h-334q-117 0 -164 -35t-47 -101v-118h574 q41 0 41 -39v-932q0 -41 -37 -41h-121q-39 0 -39 41v811h-418v-811q0 -41 -37 -41h-119q-39 0 -38 41v811h-418v-811q0 -41 -37 -41h-121q-39 0 -39 41v811h-121q-37 0 -37 41z" />
<glyph unicode="&#xfb04;" horiz-adv-x="1787" d="M63 893v72q0 37 39 39l107 8h14v147q0 63 22.5 114.5t72 88.5t126 57.5t185.5 20.5h14q41 0 41 -39v-86q0 -41 -41 -41h-14q-117 0 -164 -35t-47 -100v-127h418v139q0 63 22.5 114.5t71.5 88.5t127 57.5t186 20.5h361q41 0 41 -39v-1352q0 -41 -37 -41h-119q-39 0 -39 41 v1225h-207q-117 0 -164 -35t-47 -101v-118h201q39 0 39 -37v-82q0 -41 -39 -41h-201v-811q0 -41 -39 -41h-119q-39 0 -38 41v811h-418v-811q0 -41 -37 -41h-119q-39 0 -39 41v811h-121q-39 0 -39 41z" />
<glyph horiz-adv-x="0" />
<glyph horiz-adv-x="0" />
<glyph unicode="&#xd;" horiz-adv-x="0" />
<glyph unicode=" "  horiz-adv-x="432" />
<glyph unicode="&#x09;" horiz-adv-x="432" />
<glyph unicode="&#xa0;" horiz-adv-x="432" />
<glyph unicode="!" horiz-adv-x="540" d="M168 39v164q0 39 39 39h125q37 0 37 -39v-164q0 -39 -37 -39h-125q-39 0 -39 39zM168 799v553q0 41 39 41h127q23 0 30 -9.5t7 -31.5v-553l-19 -410q-2 -39 -37 -39h-90q-35 0 -37 39z" />
<glyph unicode="&#x22;" horiz-adv-x="802" d="M145 1352q-2 41 39 41h117q39 0 37 -41l-16 -342q0 -41 -37 -41h-84q-23 0 -30 9t-9 32zM465 1352q-2 41 37 41h116q41 0 39 -41l-16 -342q0 -41 -39 -41h-84q-35 0 -37 41z" />
<glyph unicode="#" horiz-adv-x="1357" d="M156 453v65q0 37 39 37h155l56 193h-121q-39 0 -39 38v66q0 37 39 37h159l52 180q10 41 49 41h86q23 0 28 -12.5t0 -28.5l-51 -180h287l51 180q10 41 47 41h86q23 0 28 -12.5t1 -28.5l-51 -180h106q39 0 39 -37v-66q0 -39 -39 -38h-147l-53 -193h110q39 0 39 -37v-65 q0 -39 -39 -39h-151l-50 -178q-12 -41 -47 -41h-88q-41 0 -28 41l51 178h-287l-51 -178q-6 -20 -15.5 -30.5t-31.5 -10.5h-86q-41 0 -29 41l51 178h-116q-39 0 -39 39zM512 555h287l55 193h-287z" />
<glyph unicode="$" horiz-adv-x="1089" d="M156 418v51q0 37 34 37h109q35 0 35 -37v-43q0 -55 55 -82t154 -27q98 0 153.5 27t55.5 82v55q0 37 -29 59.5t-80 39.5l-307 106q-29 10 -57.5 29.5t-51 46t-37 59.5t-14.5 72v76q0 41 14.5 81t47 73.5t85 57t130.5 33.5v138q0 41 39 41h120q37 0 37 -41v-138 q147 -23 208 -93t61 -152v-49q0 -20 -7.5 -28.5t-29.5 -8.5h-107q-35 0 -35 37v49q0 109 -194 108q-190 0 -191 -108v-35q0 -41 29 -62.5t57 -31.5l308 -107q86 -29 135 -79t49 -122v-114q0 -84 -66.5 -151.5t-216.5 -88.5v-137q0 -41 -37 -41h-120q-39 0 -39 41v135 q-80 8 -136.5 31.5t-92.5 55.5t-52 72t-16 83z" />
<glyph unicode="%" horiz-adv-x="1669" d="M156 985v213q0 96 66.5 152.5t228.5 56.5t228 -56.5t66 -152.5v-213q0 -96 -66.5 -153.5t-227.5 -57.5q-162 0 -228.5 57.5t-66.5 153.5zM317 991q0 -41 31 -62.5t103 -21.5t102.5 21.5t30.5 62.5v201q0 41 -31 62.5t-102 21.5q-72 0 -103 -21.5t-31 -62.5v-201z M429.5 14.5q-3.5 14.5 2.5 26.5l637 1311q8 16 20.5 28.5t34.5 12.5h101q18 0 23 -12.5t-5 -28.5l-635 -1311q-20 -41 -55 -41h-102q-18 0 -21.5 14.5zM924 190v213q0 96 66.5 153.5t228.5 57.5t228 -57t66 -154v-213q0 -96 -66.5 -152t-227.5 -56q-162 0 -228.5 56 t-66.5 152zM1085 199q0 -43 31 -64.5t103 -21.5t102.5 21.5t30.5 64.5v200q0 41 -31 61.5t-102 20.5q-72 0 -103 -20.5t-31 -61.5v-200z" />
<glyph unicode="&#x26;" horiz-adv-x="1396" d="M156 291v207q0 82 36.5 143t145.5 92q-96 27 -131 82t-35 139v148q0 61 18.5 117.5t66.5 98.5t131 66.5t210 24.5q129 0 212 -25.5t131 -68.5t67.5 -99.5t19.5 -119.5v-54q0 -39 -37 -38h-121q-37 0 -36 38v27q0 84 -50.5 129t-183.5 45t-182 -46t-49 -128v-86 q0 -43 11 -74.5t38.5 -53t74 -33t115.5 -11.5h672q39 0 39 -39v-88q0 -39 -39 -39h-139v-348q0 -63 -24.5 -119.5t-81 -99.5t-152 -68.5t-236.5 -25.5t-236.5 24.5t-151.5 66.5t-79.5 98t-23.5 118zM352 324q0 -84 70.5 -129t226.5 -45q154 0 225.5 45t71.5 129v321h-354 q-137 0 -188.5 -43t-51.5 -129v-149z" />
<glyph unicode="'" horiz-adv-x="483" d="M145 1352q-2 41 39 41h117q39 0 37 -41l-16 -342q-2 -41 -37 -41h-84q-23 0 -30 9t-9 32z" />
<glyph unicode="(" horiz-adv-x="727" d="M156 -166v1335q0 63 22.5 114.5t71.5 88.5t126 57.5t185 20.5h17q39 0 38 -39v-86q0 -41 -38 -41h-17q-117 0 -161 -35t-44 -100v-1294q0 -66 44 -101t161 -35h17q39 0 38 -41v-86q0 -39 -38 -38h-17q-109 0 -185.5 20t-125.5 57t-71.5 88.5t-22.5 114.5z" />
<glyph unicode=")" horiz-adv-x="727" d="M111 -322q0 41 39 41h14q117 0 161 35t44 101v1294q0 66 -44 100.5t-161 34.5h-14q-39 0 -39 41v86q0 39 39 39h14q109 0 185.5 -20.5t125.5 -57.5t71.5 -88t22.5 -115v-1335q0 -63 -22.5 -114.5t-71.5 -88.5t-126 -57t-185 -20h-14q-39 0 -39 38v86z" />
<glyph unicode="*" horiz-adv-x="1071" d="M169.5 1186.5q-3.5 11.5 6.5 30.5l29 57q18 37 53 14l225 -145l-14 270q-2 39 39 39h61q39 0 37 -39l-14 -268l221 143q35 23 53 -14l29 -57q10 -16 7 -28.5t-23 -23.5l-224 -116l224 -113q20 -10 23 -22.5t-7 -30.5l-29 -58q-18 -37 -53 -14l-219 141l12 -252 q2 -41 -37 -41h-63q-39 0 -37 41l12 256l-223 -145q-33 -20 -53 16l-29 56q-18 37 17 53l223 113l-223 116q-20 10 -23.5 21.5z" />
<glyph unicode="+" horiz-adv-x="1169" d="M145 649v88q0 39 39 39h318v318q0 41 37 41h86q39 0 39 -41v-318h321q39 0 39 -39v-88q0 -39 -39 -39h-321v-317q0 -39 -39 -39h-86q-37 0 -37 39v317h-318q-39 0 -39 39z" />
<glyph unicode="," horiz-adv-x="475" d="M16 -102q-14 37 25 49q57 23 77.5 52.5t20.5 72.5v131q0 39 37 39h125q37 0 37 -39v-142q0 -205 -244 -272q-18 -4 -29.5 0t-19.5 25z" />
<glyph unicode="-" horiz-adv-x="917" d="M145 549v86q0 37 39 37h549q39 0 39 -37v-86q0 -37 -39 -37h-549q-39 0 -39 37z" />
<glyph unicode="." horiz-adv-x="477" d="M139 39v164q0 39 39 39h123q37 0 37 -39v-164q0 -39 -37 -39h-123q-39 0 -39 39z" />
<glyph unicode="/" horiz-adv-x="753" d="M59 -262l428 1653q10 41 45 41h134q39 0 28 -41l-426 -1653q-6 -23 -15 -32t-32 -9h-131q-41 0 -31 41z" />
<glyph unicode="0" d="M119 299v795q0 63 21.5 120.5t72.5 100.5t136 68.5t214 25.5t214 -25.5t137.5 -68.5t74 -100.5t21.5 -120.5v-795q0 -63 -21.5 -120.5t-74 -100.5t-137.5 -68.5t-214 -25.5t-214 25.5t-136 68.5t-72.5 100.5t-21.5 120.5zM319 332q0 -84 53.5 -131t190.5 -47t191.5 47 t54.5 131v729q0 84 -54.5 131t-191.5 47t-190.5 -47t-53.5 -131v-729z" />
<glyph unicode="1" d="M143 39v94q0 23 9.5 30t29.5 7h307v1014l-305 -60q-39 -6 -39 33v100q0 23 10.5 32t28.5 14l469 100q12 4 24.5 -3t12.5 -34v-1196h301q20 0 29.5 -7t9.5 -30v-94q0 -39 -39 -39h-809q-39 0 -39 39z" />
<glyph unicode="2" d="M131 975v119q0 63 20.5 120.5t69.5 100.5t133 68.5t213 25.5t214 -25.5t135.5 -68.5t72 -100.5t21.5 -120.5v-197q0 -68 -19.5 -116t-48.5 -80.5t-61.5 -52t-59.5 -30.5l-348 -124q-20 -6 -40.5 -15.5t-38 -24t-29 -36t-11.5 -51.5v-197h623q20 0 29.5 -7t9.5 -30v-94 q0 -39 -39 -39h-784q-39 0 -39 39v389q0 45 16 77t39.5 52.5t50.5 33.5t49 21l398 148q14 6 32.5 15t33.5 24.5t26.5 38t11.5 55.5v170q0 86 -53 132t-191 46q-135 0 -188 -46t-53 -132v-88q0 -41 -37 -41h-119q-39 0 -39 41z" />
<glyph unicode="3" d="M115 297v53q0 39 37 39h120q37 0 37 -39v-26q0 -84 55.5 -129t190.5 -45t189.5 45t54.5 129v149q0 84 -51.5 128t-188.5 44h-172q-39 0 -39 39v88q0 39 39 39h158q137 0 187 43t50 129v86q0 82 -49 128t-180 46q-133 0 -183.5 -46t-50.5 -128v-27q0 -39 -38 -38h-119 q-23 0 -30 9t-7 29v54q0 63 18.5 119.5t67.5 99.5t132 68.5t212 25.5q127 0 210 -24.5t131 -66.5t66.5 -98.5t18.5 -117.5v-148q0 -84 -35 -138t-133 -83q106 -31 144 -92t38 -143v-207q0 -61 -20.5 -117.5t-70.5 -98.5t-134 -66.5t-213 -24.5t-214 25.5t-136 68.5t-71.5 99 t-20.5 120z" />
<glyph unicode="4" d="M84 453v82q0 16 3 26t7 27l260 764q12 41 47 41h125q43 0 29 -41l-264 -768h481v768q0 41 39 41h125q37 0 37 -41v-1311q0 -41 -37 -41h-125q-39 0 -39 41v373h-649q-39 0 -39 39z" />
<glyph unicode="5" d="M131 295v53q0 41 39 41h119q39 0 39 -41v-24q0 -86 50 -131.5t185 -45.5q137 0 186.5 45.5t49.5 131.5v221q0 68 -52.5 114t-187.5 46h-348q-37 0 -37 40v607q0 41 37 41h711q41 0 41 -39v-92q0 -39 -41 -39h-547v-353h186q117 0 200 -22.5t136 -62.5t77.5 -94t24.5 -118 v-278q0 -63 -19 -119.5t-68.5 -99.5t-133.5 -68.5t-213 -25.5t-213 25.5t-133 68.5t-68.5 99t-19.5 120z" />
<glyph unicode="6" d="M131 299v803q0 57 19.5 112.5t68.5 98.5t132 69.5t212 26.5t211 -26.5t130 -69.5t66.5 -98.5t18.5 -112.5v-45q0 -39 -39 -39h-119q-23 0 -29.5 9t-6.5 30v16q0 74 -48.5 122t-183.5 48t-184 -47t-49 -123v-319q35 39 99.5 62.5t162.5 23.5q117 0 196.5 -26t127 -69 t68 -100t20.5 -121v-225q0 -63 -20.5 -120.5t-70 -100.5t-133.5 -68.5t-213 -25.5t-213 25.5t-133 68.5t-69.5 100.5t-20.5 120.5zM330 326q0 -84 50 -130t187 -46t187.5 46t50.5 130v170q0 86 -50 132t-188 46q-129 0 -183 -42t-54 -120v-186z" />
<glyph unicode="7" d="M98 1262v92q0 39 41 39h860q39 0 39 -39v-82q0 -23 -8 -41l-512 -1190q-8 -16 -18.5 -28.5t-30.5 -12.5h-143q-45 0 -27 41l512 1182h-672q-41 0 -41 39z" />
<glyph unicode="8" d="M129 299v205q0 82 43 141.5t147 87.5q-98 29 -135 87.5t-37 140.5v133q0 63 16.5 120.5t62.5 100.5t127 68.5t210 25.5t210 -25.5t127 -68.5t62.5 -100.5t16.5 -120.5v-133q0 -82 -37 -140.5t-135 -87.5q104 -29 147 -88t43 -141v-205q0 -63 -19.5 -120.5t-68.5 -100.5 t-133 -68.5t-213 -25.5t-213 25.5t-133 68.5t-68.5 100.5t-19.5 120.5zM328 326q0 -84 49 -130t186 -46t187.5 46t50.5 130v147q0 86 -50.5 131t-187.5 45t-186 -45t-49 -131v-147zM344 991q0 -43 9 -75.5t34 -55t67 -35t109 -12.5q68 0 111 12.5t67.5 35t33.5 55t9 75.5v76 q0 41 -9 74t-33.5 55.5t-67.5 34.5t-111 12t-109.5 -12t-66.5 -34.5t-34 -55.5t-9 -74v-76z" />
<glyph unicode="9" d="M123 868v226q0 63 20.5 120.5t69.5 100.5t134 68.5t214 25.5t213 -25.5t133 -68.5t68.5 -100.5t19.5 -120.5v-803q0 -57 -19.5 -112.5t-67.5 -98.5t-131 -69.5t-212 -26.5t-211 26.5t-130 69.5t-66.5 98t-18.5 113v45q0 39 39 39h119q37 0 37 -39v-17q0 -37 10 -67.5 t37 -54t72 -35.5t112 -12q135 0 183.5 47t48.5 122v318q-35 -39 -98.5 -61.5t-163.5 -22.5q-117 0 -196 25.5t-127 68.5t-68.5 100.5t-20.5 120.5zM322 897q0 -86 51 -132t188 -46q131 0 183.5 44t52.5 126v178q0 84 -50.5 130t-185.5 46q-137 0 -188 -46t-51 -130v-170z " />
<glyph unicode=":" horiz-adv-x="477" d="M139 39v164q0 39 39 39h123q37 0 37 -39v-164q0 -39 -37 -39h-123q-39 0 -39 39zM139 811v164q0 41 39 41h123q37 0 37 -41v-164q0 -39 -37 -39h-123q-39 0 -39 39z" />
<glyph unicode=";" horiz-adv-x="569" d="M111 -102q-14 37 24 49q59 23 78.5 52.5t19.5 72.5v131q0 39 39 39h123q37 0 37 -39v-142q0 -205 -244 -272q-18 -4 -29.5 0t-19.5 25zM233 811v164q0 41 39 41h123q37 0 37 -41v-164q0 -39 -37 -39h-123q-39 0 -39 39z" />
<glyph unicode="&#x3c;" horiz-adv-x="1089" d="M145 629v133q0 20 9.5 28.5t25.5 14.5l725 321q20 10 29.5 -2t9.5 -34v-115q0 -20 -10 -27.5t-29 -15.5l-569 -238l569 -233q18 -8 28.5 -16.5t10.5 -28.5v-115q0 -23 -10 -33t-29 -2l-725 320q-16 8 -25.5 15t-9.5 28z" />
<glyph unicode="=" horiz-adv-x="1198" d="M145 432v88q0 37 39 37h830q39 0 39 -37v-88q0 -39 -39 -39h-830q-39 0 -39 39zM145 821v88q0 37 39 37h830q39 0 39 -37v-88q0 -39 -39 -39h-830q-39 0 -39 39z" />
<glyph unicode="&#x3e;" horiz-adv-x="1089" d="M145 299v119q0 23 10.5 30t28.5 15l570 231l-570 234q-18 8 -28.5 16t-10.5 29v119q0 23 9.5 35t29.5 1l725 -321q16 -6 25.5 -14.5t9.5 -28.5v-137q0 -23 -9 -30t-26 -13l-725 -322q-18 -10 -28.5 2t-10.5 35z" />
<glyph unicode="?" horiz-adv-x="1159" d="M133 975v119q0 63 21.5 120.5t73 100.5t136.5 68.5t214 25.5t214 -25.5t137 -68.5t74.5 -100.5t22.5 -120.5v-129q0 -66 -17.5 -115t-44 -83t-58.5 -56.5t-58 -34.5l-113 -53q-39 -18 -66.5 -46t-27.5 -85v-103q0 -39 -37 -39h-127q-37 0 -37 39v152q0 45 13.5 76.5 t33 53t42 36t42.5 24.5l164 84q12 6 28.5 17.5t30 29t23.5 41t10 55.5v105q0 86 -57 132t-192 46q-137 0 -193.5 -46t-56.5 -132v-88q0 -41 -37 -41h-119q-39 0 -39 41zM440 39v164q0 39 37 39h127q37 0 37 -39v-164q0 -39 -37 -39h-127q-37 0 -37 39z" />
<glyph unicode="@" horiz-adv-x="1832" d="M168 131v768q0 78 27.5 150.5t108.5 129t228.5 90.5t385.5 34t384 -34t228 -90.5t109.5 -129t27.5 -150.5v-537q0 -66 -16.5 -119t-54 -92.5t-98 -61t-146.5 -21.5q-111 0 -172.5 35.5t-87.5 93.5q-20 -16 -51 -39t-73 -43.5t-93.5 -33.5t-110.5 -13q-133 0 -189.5 62.5 t-56.5 168.5v22.5t2 24.5l31 313q12 129 78.5 204t204.5 75q45 0 87 -10t78.5 -26.5t66.5 -36t52 -36.5l8 54q4 20 12.5 29.5t30.5 9.5h105q35 0 33 -39l-50 -484q-8 -78 12.5 -132t94.5 -54q70 0 91.5 51t21.5 125v502q0 57 -23.5 104t-86 80t-171.5 50.5t-278 17.5 q-170 0 -279 -18.5t-172.5 -51.5t-87 -79t-23.5 -103v-752q0 -57 23.5 -103t87 -79t172.5 -51.5t279 -18.5h368q39 0 39 -39v-84q0 -39 -39 -38h-368q-238 0 -385.5 33.5t-228.5 91t-108.5 130t-27.5 150.5zM713 354q0 -45 29.5 -74.5t101.5 -29.5t130 28.5t89 47.5v22 l35 328q-14 12 -35 26.5t-46.5 28.5t-57 23.5t-68.5 9.5q-86 0 -118 -44t-36 -97l-22 -228q-2 -14 -2 -22v-19z" />
<glyph unicode="A" horiz-adv-x="1101" d="M41 39l397 1315q12 39 49 39h127q37 0 50 -39l397 -1315q3 -9 3 -15q0 -24 -34 -24h-129q-35 0 -45 39l-96 317h-432l-95 -317q-10 -39 -45 -39h-118q-32 0 -32 23q0 7 3 16zM373 516h344l-115 373q-10 29 -19.5 76t-16.5 94t-13 84t-6 45q-2 -6 -7 -41t-13.5 -80 t-17.5 -93t-20 -81z" />
<glyph unicode="B" horiz-adv-x="1202" d="M168 41v1311q0 41 37 41h362q131 0 221.5 -23.5t143.5 -63.5t76.5 -94.5t23.5 -115.5v-129q0 -80 -40 -140.5t-132 -95.5q117 -33 174.5 -96.5t57.5 -153.5v-174q0 -63 -24 -118.5t-77 -97.5t-143 -66.5t-221 -24.5h-422q-37 0 -37 41zM367 166h260q139 0 202.5 45 t63.5 131v125q0 78 -63.5 124t-202.5 46h-260v-471zM367 793h215q129 0 190.5 46t61.5 132v94q0 86 -63.5 124t-203.5 38h-200v-434z" />
<glyph unicode="C" horiz-adv-x="1144" d="M145 299v795q0 63 21.5 120.5t73 100.5t138.5 68.5t220 25.5q131 0 219 -25.5t139.5 -68.5t73 -100.5t21.5 -120.5v-101q0 -41 -37 -41h-119q-39 0 -39 41v68q0 84 -58.5 131t-197.5 47t-196.5 -47t-57.5 -131v-729q0 -84 57.5 -131t196.5 -47t197.5 47t58.5 131v96 q0 39 39 39h119q37 0 37 -39v-129q0 -63 -21.5 -120.5t-73 -100.5t-139.5 -68.5t-219 -25.5q-133 0 -220 25.5t-138.5 68.5t-73 100.5t-21.5 120.5z" />
<glyph unicode="D" horiz-adv-x="1245" d="M168 41v1311q0 41 37 41h428q131 0 220 -26t144.5 -69t79 -100t23.5 -121v-762q0 -63 -23.5 -120.5t-79 -100.5t-144.5 -68.5t-220 -25.5h-432q-33 0 -33 41zM367 170h266q139 0 202.5 47t63.5 131v696q0 84 -63.5 131.5t-202.5 47.5h-266v-1053z" />
<glyph unicode="E" horiz-adv-x="1062" d="M168 41v1311q0 41 37 41h700q39 0 39 -39v-92q0 -39 -39 -39h-538v-414h501q41 0 41 -39v-88q0 -39 -41 -39h-501v-473h561q20 0 29.5 -7t9.5 -30v-94q0 -39 -39 -39h-723q-37 0 -37 41z" />
<glyph unicode="F" horiz-adv-x="1073" d="M168 41v1311q0 41 37 41h751q39 0 39 -39v-92q0 -39 -39 -39h-589v-416h553q39 0 38 -39v-94q0 -39 -38 -39h-553v-594q0 -23 -7.5 -32t-29.5 -9h-125q-37 0 -37 41z" />
<glyph unicode="G" horiz-adv-x="1173" d="M145 299v795q0 63 21.5 120.5t73 100.5t138.5 68.5t220 25.5q131 0 219 -25.5t139.5 -68.5t73 -100.5t21.5 -120.5v-90q0 -39 -37 -39h-119q-39 0 -39 39v57q0 84 -58.5 131t-197.5 47t-196.5 -47t-57.5 -131v-729q0 -84 57.5 -131t196.5 -47q137 0 196.5 46t59.5 130 v196h-244q-39 0 -39 39v94q0 37 39 37h400q39 0 39 -37v-360q0 -63 -21.5 -120.5t-73 -100.5t-139.5 -68.5t-219 -25.5q-133 0 -220 25.5t-138.5 68.5t-73 100.5t-21.5 120.5z" />
<glyph unicode="H" horiz-adv-x="1267" d="M168 41v1311q0 41 37 41h125q23 0 30 -9.5t7 -31.5v-539h532v539q0 41 37 41h127q37 0 37 -41v-1311q0 -41 -37 -41h-127q-37 0 -37 41v602h-532v-602q0 -23 -7.5 -32t-29.5 -9h-125q-37 0 -37 41z" />
<glyph unicode="I" horiz-adv-x="534" d="M168 41v1311q0 41 37 41h125q23 0 30 -9.5t7 -31.5v-1311q0 -23 -7.5 -32t-29.5 -9h-125q-37 0 -37 41z" />
<glyph unicode="J" horiz-adv-x="1032" d="M49 299v104q0 41 39 41h121q23 0 30 -9t7 -32v-71q0 -84 48 -131t171 -47t167 47t44 131v1020q0 41 37 41h125q39 0 39 -41v-1053q0 -63 -18.5 -120.5t-66 -100.5t-126 -68.5t-201.5 -25.5q-121 0 -202 25.5t-128 68.5t-66.5 100.5t-19.5 120.5z" />
<glyph unicode="K" horiz-adv-x="1155" d="M168 39v1315q0 39 37 39h125q39 0 39 -39v-586h49l428 586q12 16 27.5 27.5t35.5 11.5h135q20 0 24.5 -11.5t-5.5 -27.5l-475 -647l530 -668q7 -10 7 -19q0 -4 -1 -8q-4 -12 -24 -12h-162q-23 0 -36 11.5t-23 27.5l-459 579h-51v-579q0 -39 -39 -39h-125q-37 0 -37 39z " />
<glyph unicode="L" horiz-adv-x="993" d="M168 41v1311q0 41 39 41h125q37 0 37 -41v-1182h524q20 0 29.5 -7t9.5 -30v-94q0 -39 -39 -39h-692q-33 0 -33 41z" />
<glyph unicode="M" horiz-adv-x="1503" d="M168 39v1315q0 39 37 39h114q25 0 35 -23l355 -823q6 -12 13 -32.5t13 -39t11.5 -34t5.5 -17.5q0 2 5 17.5t12 34t14.5 37.5t13.5 32l348 829q8 18 35 19h120q37 0 37 -39v-1315q0 -39 -37 -39h-120q-37 0 -37 39v940q-2 -4 -7.5 -21.5t-12.5 -41t-15 -47t-14 -42.5 l-238 -575q-16 -41 -51 -41h-107q-20 0 -30.5 11t-18.5 30l-254 600q-8 16 -14 36.5t-11 39t-9.5 32t-4.5 15.5v-936q0 -39 -37 -39h-114q-37 0 -37 39z" />
<glyph unicode="N" horiz-adv-x="1265" d="M168 39v1315q0 39 37 39h114q23 0 33 -17l494 -862q10 -18 21.5 -40.5t21.5 -43.5q10 -23 20 -47v971q0 39 39 39h113q23 0 30 -9.5t7 -29.5v-1315q0 -20 -7.5 -29.5t-29.5 -9.5h-113q-16 0 -23 4t-14 14l-481 844q-35 57 -52.5 99.5t-21.5 48.5v-971q0 -39 -37 -39h-114 q-37 0 -37 39z" />
<glyph unicode="O" horiz-adv-x="1222" d="M145 299v795q0 63 24 120.5t78 100.5t143 68.5t220 25.5t221.5 -25.5t144.5 -68.5t77.5 -100.5t23.5 -120.5v-795q0 -63 -23.5 -120.5t-77.5 -100.5t-144.5 -68.5t-221.5 -25.5t-220 25.5t-143 68.5t-78 100.5t-24 120.5zM346 332q0 -84 63.5 -131t200.5 -47 q139 0 203 47t64 131v729q0 84 -63.5 131t-203.5 47q-137 0 -200.5 -47t-63.5 -131v-729z" />
<glyph unicode="P" horiz-adv-x="1171" d="M168 41v1311q0 41 37 41h416q131 0 221 -26t143 -69t76.5 -100t23.5 -121v-243q0 -63 -23.5 -121t-76.5 -101t-143 -68.5t-221 -25.5h-254v-477q0 -23 -7.5 -32t-29.5 -9h-125q-37 0 -37 41zM367 688h254q139 0 202.5 47t63.5 131v178q0 84 -63.5 131.5t-202.5 47.5h-254 v-535z" />
<glyph unicode="Q" horiz-adv-x="1220" d="M145 299v795q0 63 24 120.5t78 100.5t143 68.5t220 25.5t221.5 -25.5t144.5 -68.5t77.5 -100.5t23.5 -120.5v-795q0 -51 -15 -99t-51 -88t-92.5 -70t-138.5 -44l252 -225q17 -15 17 -30q0 -13 -13 -26l-63 -69q-13 -15 -27 -15q-12 0 -26 13l-367 340q-115 6 -193.5 32.5 t-126 69.5t-68 97.5t-20.5 113.5zM346 328q0 -86 63.5 -132t200.5 -46q139 0 203 46t64 132v737q0 86 -63.5 132t-203.5 46q-137 0 -200.5 -46t-63.5 -132v-737z" />
<glyph unicode="R" horiz-adv-x="1216" d="M168 41v1311q0 41 37 41h416q131 0 221 -26t143 -69t76.5 -100t23.5 -121v-213q0 -94 -53 -172t-186 -114l246 -537q3 -7 3 -14q-1 -9 -7 -15q-12 -12 -33 -12h-123q-23 0 -29 11.5t-16 29.5l-232 510h-34h-254v-510q0 -23 -7.5 -32t-29.5 -9h-125q-37 0 -37 41zM367 721 h254q139 0 202.5 46t63.5 132v145q0 84 -63.5 131.5t-202.5 47.5h-254v-502z" />
<glyph unicode="S" horiz-adv-x="1163" d="M127 299v119q0 41 39 41h121q37 0 37 -41v-92q0 -84 61 -129t201 -45q139 0 201.5 45t62.5 129v96q0 39 -15.5 65.5t-40 45t-55 32t-61.5 25.5l-346 133q-35 12 -67 35.5t-58.5 56.5t-41.5 74t-15 88v117q0 63 21.5 120.5t72.5 100.5t136 68.5t210 25.5t210 -25.5 t137 -68.5t74.5 -100.5t22.5 -120.5v-90q0 -39 -37 -39h-120q-23 0 -30 9t-7 30v63q0 84 -56.5 129t-191.5 45t-191.5 -45t-56.5 -129v-41q0 -35 10.5 -58.5t25.5 -39t33.5 -24.5t35.5 -15l372 -141q92 -35 159 -100.5t67 -178.5v-170q0 -63 -24 -120.5t-78 -100.5 t-141 -68.5t-216 -25.5t-217 25.5t-142.5 68.5t-78 100.5t-23.5 120.5z" />
<glyph unicode="T" horiz-adv-x="997" d="M31 1262v92q0 39 39 39h856q39 0 39 -39v-92q0 -39 -39 -39h-328v-1182q0 -41 -37 -41h-127q-37 0 -37 41v1182h-327q-39 0 -39 39z" />
<glyph unicode="U" horiz-adv-x="1243" d="M156 299v1053q0 41 39 41h124q37 0 37 -41v-1020q0 -84 63.5 -131t201.5 -47q139 0 203.5 47t64.5 131v1020q0 41 37 41h125q23 0 29.5 -9.5t6.5 -31.5v-1053q0 -63 -23.5 -120.5t-77.5 -100.5t-144 -68.5t-221 -25.5t-220.5 25.5t-143.5 68.5t-77.5 100.5t-23.5 120.5z " />
<glyph unicode="V" horiz-adv-x="1101" d="M41 1354q-3 9 -3 16q0 23 32 23h137q20 0 29.5 -10.5t15.5 -28.5l254 -850q10 -33 18 -76t15 -82q8 -45 14 -92l16 94q8 39 16.5 81t18.5 71l256 854q6 18 15.5 28.5t29.5 10.5h125q34 0 34 -24q0 -7 -3 -15l-397 -1315q-12 -39 -50 -39h-127q-37 0 -49 39z" />
<glyph unicode="W" horiz-adv-x="1673" d="M39 1354q-1 7 -1 12q0 27 32 27h127q37 0 47 -39l213 -852q4 -23 11 -50.5t11 -52.5q6 -29 10 -57q2 20 9 45q4 23 10 51.5t16 63.5l217 852q10 39 45 39h117q23 0 33 -10.5t14 -28.5l213 -852q16 -63 23.5 -116.5t9.5 -61.5q0 4 4 23.5t8 47t10.5 56t12.5 51.5l217 852 q10 39 45 39h111q30 0 30 -25q0 -6 -2 -14l-332 -1315q-8 -39 -49 -39h-123q-35 0 -45 39l-219 868q-6 23 -11 48.5t-8 48t-5 40t-2 23.5q0 -6 -3.5 -24.5t-7.5 -43t-9 -50t-9 -44.5l-221 -866q-8 -39 -47 -39h-123q-35 0 -45 39z" />
<glyph unicode="X" horiz-adv-x="1148" d="M68 14q-1 4 -2 9q0 11 8 22l383 670l-371 635q-10 16 -8 29.5t24 13.5h146q20 0 33.5 -11.5t23.5 -27.5l279 -473l264 473q20 39 55 39h135q39 0 19 -39l-375 -643l393 -672q6 -10 6 -20q0 -5 -1 -7q-3 -12 -25 -12h-146q-23 0 -35 11.5t-22 27.5l-293 496l-276 -496 q-8 -14 -20.5 -26.5t-35.5 -12.5h-135q-20 0 -24 14z" />
<glyph unicode="Y" horiz-adv-x="1083" d="M35 1382q8 11 31 11h141q20 0 28.5 -10.5t18.5 -28.5l256 -541q10 -23 20.5 -54.5l12.5 -37.5q0 2 3 12t8 24.5t10 30t11 25.5l273 541q8 16 17 27.5t28 11.5h125q20 0 28 -9q4 -5 4 -11q0 -8 -6 -19l-401 -801v-514q0 -39 -37 -39h-125q-39 0 -39 39v491l-405 824 q-6 10 -6 18q0 6 4 10z" />
<glyph unicode="Z" horiz-adv-x="1024" d="M88 39v94q0 10 3 17.5l7 17.5l582 1055h-518q-39 0 -39 39v92q0 39 39 39h721q41 0 41 -39v-88q0 -18 -9 -35l-587 -1061h590q20 0 29 -7t9 -30v-94q0 -39 -38 -39h-791q-39 0 -39 39z" />
<glyph unicode="[" horiz-adv-x="774" d="M156 -391v1782q0 41 39 41h417q39 0 39 -39v-93q0 -39 -39 -38h-256v-1524h256q39 0 39 -39v-92q0 -39 -39 -39h-417q-39 0 -39 41z" />
<glyph unicode="\" horiz-adv-x="753" d="M59 1391q-10 41 31 41h131q23 0 33 -10.5t14 -30.5l426 -1653q10 -41 -28 -41h-134q-20 0 -29 9t-16 32z" />
<glyph unicode="]" horiz-adv-x="774" d="M123 -301q0 39 39 39h254v1524h-254q-39 0 -39 38v93q0 39 39 39h418q37 0 36 -41v-1782q0 -41 -36 -41h-418q-39 0 -39 39v92z" />
<glyph unicode="^" horiz-adv-x="1157" d="M147 631l320 725q8 16 16.5 26.5t26.5 10.5h133q20 0 28.5 -10.5t14.5 -26.5l322 -725q10 -20 -2.5 -30.5t-32.5 -10.5h-117q-20 0 -27.5 11t-15.5 30l-238 565l-233 -565q-8 -18 -16.5 -29.5t-26.5 -11.5h-117q-20 0 -31.5 11t-3.5 30z" />
<glyph unicode="_" horiz-adv-x="907" d="M45 -201q0 37 39 37h739q39 0 39 -37v-88q0 -39 -39 -39h-739q-39 0 -39 39v88z" />
<glyph unicode="`" horiz-adv-x="663" d="M156 1438.5q4 11.5 26 11.5h127q23 0 33 -10t20 -27l121 -219q20 -37 -18 -37h-96q-20 0 -31.5 8.5t-18.5 16.5l-155 229q-12 16 -8 27.5z" />
<glyph unicode="a" horiz-adv-x="1044" d="M113 231v99q0 49 17 94t53 79t89.5 54.5t124.5 20.5h324v157q0 63 -41 101t-158 38t-160 -34.5t-43 -98.5v-16q0 -41 -38 -41h-107q-37 0 -37 41v31q0 61 21.5 112.5t67.5 87t120 56t178 20.5q109 0 182.5 -20.5t119.5 -56t65.5 -87t19.5 -112.5v-715q0 -41 -37 -41h-106 q-23 0 -30 9t-9 32l-4 59q-23 -18 -54.5 -38.5t-71.5 -38t-90 -28.5t-108 -11q-72 0 -126 20.5t-89.5 54t-54 78.5t-18.5 94zM303 260q0 -59 35 -87t113 -28q47 0 88 11.5t75.5 28t61 34t45.5 31.5v176h-283q-78 0 -106.5 -33t-28.5 -92v-41z" />
<glyph unicode="b" horiz-adv-x="1087" d="M145 41v1350q0 41 39 41h119q37 0 37 -41v-476q23 16 54.5 37t72.5 38.5t93 29.5t116 12q150 0 219.5 -75.5t69.5 -202.5v-492q0 -127 -70 -202.5t-219 -75.5q-66 0 -118 12t-95 30.5t-75 39t-52 36.5l-4 -61q-2 -23 -9.5 -32t-29.5 -9h-109q-39 0 -39 41zM340 264 q16 -12 44 -29.5t62.5 -35t78.5 -28.5t93 -11q88 0 120 40t32 93v430q0 53 -31.5 93t-120.5 40q-49 0 -93 -11t-78.5 -28.5t-62.5 -36t-44 -30.5v-486z" />
<glyph unicode="c" horiz-adv-x="991" d="M123 264v488q0 63 20.5 114.5t67.5 88t121.5 57t183.5 20.5t183.5 -20.5t120.5 -57t66.5 -88t20.5 -114.5v-37q0 -39 -37 -39h-110q-39 0 -39 39v22q0 66 -43 100.5t-160 34.5q-115 0 -158 -35.5t-43 -99.5v-458q0 -66 43 -101t158 -35q117 0 160 35t43 101v40 q0 39 39 39h110q37 0 37 -39v-55q0 -63 -20.5 -114.5t-67.5 -88t-121.5 -57t-183.5 -20.5t-183.5 20.5t-120.5 57t-66.5 88t-20.5 114.5z" />
<glyph unicode="d" horiz-adv-x="1087" d="M123 262v492q0 127 69.5 202.5t219.5 75.5q61 0 113.5 -12t93 -29.5t73.5 -38t56 -37.5v476q0 23 7 32t29 9h119q39 0 39 -41v-1350q0 -41 -39 -41h-108q-23 0 -30 9t-9 32l-4 61q-23 -16 -54.5 -36.5t-73.5 -39t-95.5 -30.5t-116.5 -12q-150 0 -219.5 75.5t-69.5 202.5z M317 293q0 -53 32 -93t120 -40q49 0 92 11t79 28.5t63.5 35t44.5 29.5v486q-16 12 -44 30.5t-64 36t-79 28.5t-92 11q-88 0 -120 -40t-32 -93v-430z" />
<glyph unicode="e" horiz-adv-x="1013" d="M123 264v488q0 63 20.5 114.5t67.5 88t123 57t184 20.5q109 0 182.5 -20.5t119.5 -57t65.5 -88t19.5 -114.5v-250q0 -37 -35 -37h-557v-189q0 -63 41 -100t164 -37t164 37t41 100v23q0 39 39 39h104q39 0 39 -39v-35q0 -63 -20.5 -114.5t-66.5 -88t-120.5 -57 t-183.5 -20.5t-183.5 20.5t-120.5 57t-66.5 88t-20.5 114.5zM313 610h410v129q0 61 -44 99.5t-161 38.5t-161 -38t-44 -100v-129z" />
<glyph unicode="f" horiz-adv-x="681" d="M49 893v72q0 37 37 39l109 8h12v157q0 63 22.5 114.5t71.5 88.5t127 57.5t186 20.5h15q39 0 39 -39v-86q0 -41 -39 -41h-15q-117 0 -164 -35t-47 -100v-137h201q39 0 39 -37v-82q0 -41 -39 -41h-201v-811q0 -41 -38 -41h-119q-39 0 -39 41v811h-121q-37 0 -37 41z" />
<glyph unicode="g" horiz-adv-x="1087" d="M123 262v492q0 127 69.5 202.5t219.5 75.5q63 0 116.5 -12t95.5 -30.5t73.5 -40t54.5 -40.5l4 66q2 23 9 32t30 9h108q39 0 39 -41v-1112q0 -63 -22.5 -114.5t-71.5 -88.5t-126 -57.5t-185 -20.5h-283q-41 0 -41 39v86q0 39 41 39h283q117 0 164 36t47 101v215 q-23 -16 -56 -36.5t-73.5 -38t-93 -28.5t-113.5 -11q-150 0 -219.5 75.5t-69.5 202.5zM317 293q0 -53 32 -93t120 -40q49 0 92 11t79 28.5t63.5 35t44.5 29.5v486q-16 12 -44 30.5t-64 36t-79 28.5t-92 11q-88 0 -120 -40t-32 -93v-430z" />
<glyph unicode="h" horiz-adv-x="1097" d="M145 41v1350q0 41 39 41h119q37 0 37 -41v-473q23 18 54.5 37.5t73.5 37t94 28.5t114 11q143 0 216 -73.5t73 -188.5v-729q0 -41 -37 -41h-119q-39 0 -39 41v682q0 63 -32.5 99t-119.5 36q-49 0 -92 -11t-78.5 -27.5t-63.5 -35t-44 -30.5v-713q0 -41 -37 -41h-119 q-39 0 -39 41z" />
<glyph unicode="i" horiz-adv-x="485" d="M145 41v934q0 41 39 41h119q37 0 37 -41v-934q0 -41 -37 -41h-119q-39 0 -39 41zM145 1206v185q0 41 39 41h119q37 0 37 -41v-185q0 -39 -37 -39h-119q-39 0 -39 39z" />
<glyph unicode="j" horiz-adv-x="483" d="M-121 -293q0 39 39 39h16q117 0 164 36t47 101v1092q0 23 7.5 32t29.5 9h119q39 0 39 -41v-1112q0 -63 -22.5 -114.5t-71.5 -88.5t-126 -57.5t-186 -20.5h-16q-39 0 -39 39v86zM145 1206v185q0 41 37 41h121q37 0 37 -41v-185q0 -39 -37 -39h-121q-37 0 -37 39z" />
<glyph unicode="k" horiz-adv-x="970" d="M145 39v1354q0 39 37 39h121q37 0 37 -39v-750h57l310 334q12 14 26.5 26.5t36.5 12.5h129q23 0 28 -13.5t-9 -27.5l-363 -400l401 -536q7 -10 7 -19q0 -4 -1 -8q-4 -12 -24 -12h-131q-23 0 -35 11.5t-24 27.5l-349 457h-59v-457q0 -39 -37 -39h-121q-37 0 -37 39z" />
<glyph unicode="l" horiz-adv-x="485" d="M145 41v1350q0 41 39 41h119q37 0 37 -41v-1350q0 -41 -37 -41h-119q-39 0 -39 41z" />
<glyph unicode="m" horiz-adv-x="1699" d="M145 41v936q0 39 39 39h109q23 0 30 -9.5t9 -29.5l4 -66q20 18 50 39t71 39.5t92 30.5t115 12q100 0 165.5 -38t96.5 -101q18 16 48 39.5t73 46t99 38t130 15.5q143 0 217 -73.5t74 -188.5v-729q0 -41 -39 -41h-117q-41 0 -41 41v682q0 63 -32.5 99t-118.5 36 q-51 0 -94.5 -11t-77 -28.5t-58 -36t-39.5 -30.5q2 -6 2 -13.5v-13.5v-684q0 -41 -37 -41h-118q-39 0 -39 41v682q0 63 -33 99t-119 36q-49 0 -91 -11t-75.5 -27.5t-59.5 -35t-40 -30.5v-713q0 -41 -37 -41h-119q-39 0 -39 41z" />
<glyph unicode="n" horiz-adv-x="1097" d="M145 41v936q0 39 39 39h109q23 0 30 -9.5t9 -29.5l4 -66q20 18 53 40t75 39.5t95 29.5t117 12q143 0 216 -73.5t73 -188.5v-729q0 -41 -37 -41h-119q-39 0 -39 41v682q0 63 -32.5 99t-119.5 36q-49 0 -92 -11t-78.5 -27.5t-63.5 -35t-44 -30.5v-713q0 -41 -37 -41h-119 q-39 0 -39 41z" />
<glyph unicode="o" horiz-adv-x="1064" d="M123 264v488q0 127 96 203.5t313 76.5t313.5 -76.5t96.5 -203.5v-488q0 -127 -96 -203.5t-314 -76.5q-217 0 -313 76.5t-96 203.5zM317 281q0 -66 49.5 -102t165.5 -36q117 0 166.5 36t49.5 102v454q0 66 -49.5 101.5t-166.5 35.5t-166 -35.5t-49 -101.5v-454z" />
<glyph unicode="p" horiz-adv-x="1087" d="M145 -379v1354q0 41 39 41h109q23 0 30 -9.5t9 -31.5l4 -64q20 16 52 38t75 40.5t95 30.5t118 12q150 0 219.5 -75.5t69.5 -202.5v-492q0 -127 -70 -202.5t-219 -75.5q-61 0 -113.5 11t-94.5 28.5t-74 38t-54 36.5v-477q0 -39 -37 -39h-119q-39 0 -39 39zM340 264 q16 -12 44 -29.5t62.5 -35t78.5 -28.5t93 -11q88 0 120 40t32 93v430q0 53 -31.5 93t-120.5 40q-49 0 -93 -11t-78.5 -28.5t-62.5 -36t-44 -30.5v-486z" />
<glyph unicode="q" horiz-adv-x="1087" d="M123 262v492q0 127 69.5 202.5t219.5 75.5q63 0 116.5 -12t95.5 -30.5t73.5 -40t54.5 -38.5l4 64q2 23 9 32t30 9h108q39 0 39 -41v-1354q0 -39 -39 -39h-119q-23 0 -29.5 9.5t-6.5 29.5v477q-23 -16 -56 -36.5t-73.5 -38t-93 -28.5t-113.5 -11q-150 0 -219.5 75.5 t-69.5 202.5zM317 293q0 -53 32 -93t120 -40q49 0 92 11t79 28.5t63.5 35t44.5 29.5v486q-16 12 -44 30.5t-64 36t-79 28.5t-92 11q-88 0 -120 -40t-32 -93v-430z" />
<glyph unicode="r" horiz-adv-x="729" d="M145 41v936q0 39 39 39h109q23 0 30 -9.5t9 -29.5l6 -88q20 20 52 46t73 47.5t90 35.5t104 14q41 0 41 -39v-94q0 -23 -10 -31t-31 -10q-57 -4 -107 -19.5t-91 -35t-71 -41t-48 -35.5v-686q0 -41 -37 -41h-119q-39 0 -39 41z" />
<glyph unicode="s" horiz-adv-x="958" d="M98 229v52q0 37 35 36h109q35 0 34 -36v-43q0 -55 55.5 -82t153.5 -27t153.5 26.5t55.5 82.5v55q0 37 -28.5 59.5t-79.5 38.5l-307 107q-29 10 -57.5 29.5t-51.5 46t-37 59.5t-14 72v75q0 47 19.5 92.5t62.5 81t113.5 57t174.5 21.5q102 0 173 -21.5t115 -57t63.5 -81 t19.5 -92.5v-49q0 -20 -7 -28.5t-30 -8.5h-106q-35 0 -35 37v49q0 109 -195 109q-190 0 -190 -109v-35q0 -41 28.5 -62t57.5 -32l307 -106q86 -29 135 -79t49 -122v-115q0 -47 -21.5 -92t-68.5 -78.5t-120.5 -54t-178.5 -20.5q-104 0 -178 20.5t-120 54t-67.5 78.5t-21.5 92 z" />
<glyph unicode="t" horiz-adv-x="724" d="M43 893v72q0 37 39 39l100 8h13v207q0 41 38 41h121q37 0 37 -41v-207h211q39 0 39 -37v-82q0 -41 -39 -41h-211v-551q0 -66 45 -100.5t162 -34.5h39q39 0 39 -41v-86q0 -39 -39 -39h-68q-109 0 -180.5 18.5t-114.5 54.5t-61 88t-18 120v571h-113q-39 0 -39 41z" />
<glyph unicode="u" horiz-adv-x="1085" d="M133 244v731q0 41 37 41h119q39 0 39 -41v-682q0 -66 32.5 -100.5t118.5 -34.5q49 0 90 11t75 26.5t59.5 34t41.5 30.5v715q0 41 37 41h121q37 0 37 -41v-936q0 -39 -37 -39h-110q-23 0 -30 8t-9 31l-4 61q-20 -18 -51 -38.5t-71 -38t-91.5 -28.5t-114.5 -11 q-141 0 -215 72.5t-74 187.5z" />
<glyph unicode="v" horiz-adv-x="921" d="M31 975q-2 8 -2 14q0 11 6 17q10 10 31 10h124q20 0 29.5 -11.5t16.5 -29.5l194 -588q6 -23 12.5 -46.5t9.5 -45t6 -37.5t3 -22q0 6 3 22t8 38.5t11 46.5t13 42l204 590q6 18 14.5 29.5t28.5 11.5h113q20 0 30 -10q7 -7 7 -18q0 -6 -2 -13l-328 -938q-6 -20 -13 -28.5 t-26 -8.5h-137q-20 0 -27.5 8t-13.5 29z" />
<glyph unicode="w" horiz-adv-x="1394" d="M31 975q-2 7 -2 13q0 12 7 18q11 10 32 10h114q35 0 45 -41l170 -637q6 -27 10.5 -57.5t6.5 -34.5l22 92l176 637q10 41 45 41h119q20 0 29.5 -11.5t13.5 -29.5l160 -637q10 -39 13 -61.5t5 -26.5q0 2 2 12t5.5 23.5t6.5 28t7 24.5l170 637q4 18 13 29.5t30 11.5h98 q21 0 31 -10q7 -7 6 -18q0 -6 -2 -13l-264 -938q-6 -20 -13.5 -28.5t-27.5 -8.5h-141q-20 0 -28.5 9t-12.5 28l-154 604q-8 25 -14.5 59.5t-6.5 42.5l-24 -102l-174 -604q-4 -18 -11.5 -27.5t-27.5 -9.5h-139q-20 0 -28.5 8t-12.5 29z" />
<glyph unicode="x" horiz-adv-x="958" d="M41 12q-1 4 -1 8q0 9 7 19l322 477l-312 459q-10 16 -6 28.5t27 12.5h131q23 0 35 -12.5t22 -28.5l223 -324l211 324q10 16 23.5 28.5t34.5 12.5h116q20 0 24.5 -12.5t-5.5 -28.5l-311 -465l319 -471q7 -10 7 -19q0 -4 -1 -8q-4 -12 -26 -12h-131q-20 0 -32.5 12.5 t-23.5 26.5l-231 338l-225 -338q-10 -14 -21.5 -26.5t-34.5 -12.5h-114q-23 0 -27 12z" />
<glyph unicode="y" horiz-adv-x="921" d="M31 975q-2 7 -2 14q0 10 6 17q10 10 31 10h120q20 0 29.5 -11.5t15.5 -29.5l199 -592q14 -43 21.5 -89t9.5 -52q0 4 4 18t8 33.5t11.5 42t13.5 43.5l202 596q6 20 15.5 30.5t29.5 10.5h111q20 0 30 -10q7 -7 7 -18q0 -6 -2 -13l-463 -1354q-4 -16 -13 -27.5t-30 -11.5 h-88q-23 0 -33 9.5t-4 29.5l115 363z" />
<glyph unicode="z" horiz-adv-x="923" d="M84 39v84q0 16 8 29l475 702h-415q-39 0 -39 39v84q0 39 39 39h618q39 0 39 -39v-82q0 -20 -8 -31l-479 -704h481q20 0 29.5 -7.5t9.5 -29.5v-84q0 -39 -39 -39h-680q-39 0 -39 39z" />
<glyph unicode="{" horiz-adv-x="919" d="M111 467v84q0 41 39 41h2q109 0 151.5 36t42.5 101v440q0 63 22.5 114.5t71.5 88.5t126 57.5t186 20.5h16q39 0 39 -39v-86q0 -41 -39 -41h-16q-117 0 -161 -35t-44 -100v-440q0 -156 -150 -199q150 -45 150 -201v-454q0 -66 44 -101t161 -35h16q39 0 39 -41v-86 q0 -39 -39 -38h-16q-109 0 -186 20t-126 57t-71.5 88.5t-22.5 114.5v457q0 66 -43 101.5t-151 35.5h-2q-39 0 -39 39z" />
<glyph unicode="|" horiz-adv-x="534" d="M168 -391v1782q0 41 39 41h125q37 0 37 -41v-1782q0 -41 -37 -41h-125q-39 0 -39 41z" />
<glyph unicode="}" horiz-adv-x="919" d="M111 -322q0 41 39 41h16q117 0 161 35t44 101v454q0 156 149 201q-150 43 -149 199v440q0 66 -44 100.5t-161 34.5h-16q-39 0 -39 41v86q0 39 39 39h16q109 0 185.5 -20.5t125.5 -57.5t71.5 -88t22.5 -115v-440q0 -66 43 -101.5t152 -35.5h2q39 0 39 -41v-84 q0 -39 -39 -39h-2q-109 0 -152 -36t-43 -101v-457q0 -63 -22.5 -114.5t-71.5 -88.5t-126 -57t-185 -20h-16q-39 0 -39 38v86z" />
<glyph unicode="~" horiz-adv-x="1011" d="M145 473l7 74q8 98 57 138t102 40q29 0 55.5 -7t43.5 -16l184 -86q20 -10 46 -19t42 -9q29 0 33 18.5t10 59.5l2 14q4 23 13.5 29t27.5 6h63q23 0 29 -11.5t4 -33.5l-6 -74q-10 -102 -57 -141t-96 -39q-23 0 -53.5 6t-61.5 20l-189 88q-14 6 -34.5 14.5t-36.5 8.5 q-29 0 -35 -15.5t-10 -56.5l-2 -18q-2 -35 -43 -35h-62q-37 0 -33 45z" />
<glyph unicode="&#xa1;" horiz-adv-x="540" d="M168 217l18 410q2 39 37 39h90q35 0 37 -39l21 -410v-553q0 -41 -39 -41h-127q-23 0 -30 9.5t-7 31.5v553zM170 813v164q0 39 37 39h125q39 0 39 -39v-164q0 -39 -39 -39h-125q-37 0 -37 39z" />
<glyph unicode="&#xa2;" horiz-adv-x="1097" d="M156 453v487q0 109 65.5 182.5t222.5 91.5v138q0 41 39 41h119q23 0 30 -9.5t7 -31.5v-135q164 -16 232.5 -90t68.5 -187v-37q0 -39 -37 -39h-110q-39 0 -39 39v23q0 66 -43 100.5t-160 34.5q-115 0 -158 -36t-43 -99v-459q0 -66 43 -100.5t158 -34.5q117 0 160 34.5 t43 100.5v41q0 39 39 39h110q37 0 37 -39v-55q0 -113 -68.5 -186.5t-232.5 -90.5v-135q0 -23 -7 -32t-30 -9h-119q-39 0 -39 41v135q-158 18 -223 92t-65 185z" />
<glyph unicode="&#xa3;" horiz-adv-x="1376" d="M156 39v88q0 39 39 39h116v444h-116q-39 0 -39 39v88q0 37 39 37h116v330q0 61 19.5 117.5t67.5 97.5t130 65.5t209 24.5t210 -24.5t131 -65.5t67.5 -97.5t19.5 -117.5v-64q0 -41 -37 -41h-116q-39 0 -39 41v29q0 84 -50.5 127t-183.5 43q-66 0 -109.5 -10t-70.5 -31.5 t-37 -53.5t-10 -75v-295h276q39 0 39 -37v-88q0 -39 -39 -39h-276v-444h371q66 0 106.5 42t40.5 157v14q0 41 39 41h113q39 0 39 -41v-14q0 -109 -21.5 -179.5t-60.5 -111.5t-91.5 -57.5t-115.5 -16.5h-737q-39 0 -39 39z" />
<glyph unicode="&#xa4;" horiz-adv-x="1337" d="M156 539v51q0 37 39 37h81v137h-81q-39 0 -39 39v51q0 37 39 37h81v203q0 63 21.5 120.5t73 100.5t138.5 68.5t220 25.5q131 0 219 -25.5t139.5 -68.5t73 -100.5t21.5 -120.5v-101q0 -41 -37 -41h-119q-39 0 -39 41v68q0 84 -58.5 131t-197.5 47t-196.5 -47t-57.5 -131 v-170h271q39 0 38 -37v-51q0 -39 -38 -39h-271v-137h271q39 0 38 -37v-51q0 -39 -38 -39h-271v-168q0 -84 57.5 -131t196.5 -47t197.5 47t58.5 131v96q0 39 39 39h119q37 0 37 -39v-129q0 -63 -21.5 -120.5t-73 -100.5t-139.5 -68.5t-219 -25.5q-133 0 -220 25.5 t-138.5 68.5t-73 100.5t-21.5 120.5v201h-81q-39 0 -39 39z" />
<glyph unicode="&#xa5;" horiz-adv-x="1333" d="M160 1382.5q8 10.5 30 10.5h142q20 0 28.5 -10.5t18.5 -28.5l256 -541l33 -90q2 6 12 38t20 52l273 541q8 16 17 27.5t28 11.5h125q20 0 28.5 -9.5t-2.5 -29.5l-227 -451h125q39 0 39 -37v-51q0 -39 -39 -39h-188l-68 -137h256q39 0 39 -39v-51q0 -37 -39 -37h-299v-473 q0 -39 -37 -39h-125q-39 0 -39 39v473h-299q-39 0 -39 37v51q0 39 39 39h246l-68 137h-178q-39 0 -39 39v51q0 37 39 37h115l-221 451q-10 18 -2 28.5z" />
<glyph unicode="&#xa6;" horiz-adv-x="485" d="M145 276q0 41 39 41h119q37 0 37 -41v-667q0 -41 -37 -41h-119q-39 0 -39 41v667zM145 684v668q0 41 39 41h119q37 0 37 -41v-668q0 -41 -37 -41h-119q-39 0 -39 41z" />
<glyph unicode="&#xa7;" d="M168 -127q0 39 39 39h104q39 0 39 -39v-33q0 -66 46 -99.5t163 -33.5t163 35t46 100v152q0 25 -13.5 42t-33 29.5t-39.5 20.5t-35 12l-268 80q-31 8 -64.5 28.5t-60.5 50.5t-44 71t-17 90v184q0 39 36 39h107q37 0 37 -39v-166q0 -25 10 -44t25.5 -33.5t33 -22.5 t31.5 -12l289 -86q31 -10 65.5 -26.5t64.5 -44.5t49.5 -68t19.5 -95v-145q0 -61 -21.5 -112.5t-69 -89.5t-123 -59.5t-184.5 -21.5t-183.5 19.5t-121.5 55.5t-68.5 86t-21.5 113v23zM168 981v145q0 61 21.5 112.5t68.5 89.5t123 59.5t184 21.5q109 0 183.5 -19.5t122 -55.5 t69 -86t21.5 -113v-23q0 -39 -39 -39h-105q-39 0 -39 39v31q0 66 -45 99.5t-162 33.5t-164 -34t-47 -99v-152q0 -25 13.5 -42t33 -29.5t40 -20.5t34.5 -12l269 -80q31 -10 64.5 -29.5t60 -49.5t44 -71t17.5 -90v-186q0 -39 -37 -39h-106q-37 0 -37 39v168q0 25 -10.5 44 t-25.5 32.5t-32.5 21.5t-32.5 12l-288 89q-31 8 -66 25.5t-64.5 45t-49 67.5t-19.5 95z" />
<glyph unicode="&#xa8;" horiz-adv-x="712" d="M158 1208v195q0 39 39 39h71q37 0 37 -39v-195q0 -39 -37 -39h-71q-39 0 -39 39zM406 1208v195q0 39 38 39h72q37 0 37 -39v-195q0 -39 -37 -39h-72q-39 0 -38 39z" />
<glyph unicode="&#xa9;" horiz-adv-x="1533" d="M168 399v596q0 76 20.5 151t84 133t181 94t312.5 36q197 0 314.5 -36t181 -94t84 -133t20.5 -151v-596q0 -78 -20.5 -152.5t-84 -133t-181 -94t-314.5 -35.5q-195 0 -312.5 35.5t-181 94t-84 133.5t-20.5 152zM311 373q0 -57 22.5 -105.5t76 -83t140.5 -54t216 -19.5 t216 19.5t141.5 54t77 82.5t22.5 106v649q0 57 -22.5 105.5t-77 83t-141.5 54t-216 19.5t-216 -19.5t-140.5 -55t-76 -84t-22.5 -105.5v-647zM451 537v317q0 63 14 112.5t51 84t98.5 53t153.5 18.5q94 0 155.5 -18.5t97.5 -53t50 -83.5t14 -113v-25q0 -39 -38 -38h-97 q-39 0 -39 38v21q0 66 -28.5 101.5t-114.5 35.5t-113.5 -36t-27.5 -101v-307q0 -66 27.5 -101.5t113.5 -35.5t114.5 35.5t28.5 101.5v35q0 41 39 40h97q39 0 38 -40v-41q0 -63 -14 -112.5t-50 -84.5t-97.5 -53.5t-155.5 -18.5q-92 0 -153.5 18.5t-98.5 53.5t-51 84t-14 113z " />
<glyph unicode="&#xaa;" horiz-adv-x="727" d="M113 930v55q0 63 46 107.5t136 44.5h174v98q0 31 -20.5 49.5t-79.5 18.5q-57 0 -79 -18.5t-22 -47.5v-12q0 -27 -26 -27h-84q-29 0 -29 27v18q0 78 60.5 122t183.5 44q125 0 183 -46t58 -126v-422q0 -27 -26 -27h-82q-16 0 -21.5 5.5t-7.5 21.5l-4 31q-27 -23 -73 -45.5 t-111 -22.5q-94 0 -135 45t-41 107zM258 950q0 -29 15.5 -46t56.5 -17q47 0 86 22.5t53 34.5v94h-145q-35 0 -50.5 -18.5t-15.5 -44.5v-25z" />
<glyph unicode="&#xab;" horiz-adv-x="1187" d="M143 442v121q0 18 11.5 29.5t23.5 21.5l377 281q14 10 26.5 5t12.5 -28v-122q0 -23 -11.5 -35.5t-27.5 -24.5l-258 -188l258 -187q16 -10 27.5 -24.5t11.5 -34.5v-123q0 -23 -12.5 -28t-26.5 6l-377 278q-12 10 -23.5 21.5t-11.5 31.5zM594 442v121q0 18 11 29.5t24 21.5 l377 281q14 10 26 5t12 -28v-122q0 -23 -11 -35.5t-27 -24.5l-258 -188l258 -187q16 -10 27 -24.5t11 -34.5v-123q0 -23 -12 -28t-26 6l-377 278q-12 10 -23.5 21.5t-11.5 31.5z" />
<glyph unicode="&#xac;" horiz-adv-x="794" d="M154 649q0 49 18 93t51 77t77 52.5t95 19.5q49 0 93 -19.5t77 -52.5t52.5 -77t19.5 -93q0 -51 -19.5 -95t-52.5 -77t-77 -51t-93 -18q-51 0 -95 18t-77 51t-51 77t-18 95z" />
<glyph unicode="&#xad;" horiz-adv-x="917" d="M145 549v86q0 37 39 37h549q39 0 39 -37v-86q0 -37 -39 -37h-549q-39 0 -39 37z" />
<glyph unicode="&#xae;" horiz-adv-x="1294" d="M168 731v371q0 49 15.5 102t66.5 99.5t145 76t254 29.5t254 -29.5t144.5 -76t65.5 -99.5t15 -102v-371q0 -49 -15 -102.5t-65.5 -99.5t-144.5 -75.5t-254 -29.5t-254 29.5t-145 75.5t-66.5 99.5t-15.5 102.5zM299 719q0 -35 14.5 -66.5t53.5 -56.5t107.5 -40t174.5 -15 t174 14t107 38.5t53 56.5t14 67v397q0 33 -14 64.5t-53 56.5t-106.5 40t-174.5 15q-106 0 -174.5 -15t-107.5 -40t-53.5 -56.5t-14.5 -64.5v-395zM434 666v493q0 29 27 29h215q66 0 106.5 -14.5t64 -37t32 -51t8.5 -57.5v-41q0 -41 -17.5 -79t-70.5 -60l73 -182 q10 -29 -26 -29h-80q-12 0 -16.5 7t-10.5 22l-67 161h-105v-161q0 -29 -26 -29h-80q-27 0 -27 29zM567 928h95q41 0 65.5 17.5t24.5 45.5v31q0 31 -25 48t-65 17h-95v-159z" />
<glyph unicode="&#xaf;" horiz-adv-x="843" d="M133 1239v74q0 23 9.5 30t31.5 7h496q23 0 31 -7.5t8 -29.5v-74q0 -37 -39 -37h-496q-41 0 -41 37z" />
<glyph unicode="&#xb0;" horiz-adv-x="856" d="M123 1001v197q0 47 14.5 86t50 66.5t94 42t146.5 14.5t146.5 -14.5t93 -42t50 -66.5t15.5 -86v-197q0 -47 -15.5 -85.5t-50 -66.5t-93 -42t-146.5 -14t-146.5 14t-94 42t-50 66.5t-14.5 85.5zM289 1010q0 -86 139 -86t139 86v182q0 84 -139 84t-139 -84v-182z" />
<glyph unicode="&#xb1;" horiz-adv-x="1169" d="M145 188v86q0 39 39 39h801q39 0 39 -39v-86q0 -41 -39 -41h-801q-39 0 -39 41zM145 737v88q0 37 39 37h318v225q0 39 37 39h86q39 0 39 -39v-225h321q39 0 39 -37v-88q0 -39 -39 -39h-321v-225q0 -41 -39 -41h-86q-37 0 -37 41v225h-318q-39 0 -39 39z" />
<glyph unicode="&#xb2;" horiz-adv-x="778" d="M111 1141v71q0 37 13 73t45 63.5t84 44t132 16.5t133 -16.5t85 -44t46.5 -63.5t14.5 -73v-104q0 -43 -11.5 -75t-29 -52t-37 -33.5t-37.5 -19.5l-219 -88q-10 -4 -30.5 -14.5t-20.5 -32.5v-105h362q29 0 29 -29v-67q0 -29 -29 -29h-487q-27 0 -27 29v225q0 53 27.5 75.5 t58.5 35.5l246 98q18 8 36.5 23.5t18.5 50.5v90q0 96 -129 96q-127 0 -127 -96v-49q0 -31 -27 -31h-94q-27 0 -26 31z" />
<glyph unicode="&#xb3;" horiz-adv-x="776" d="M111 750v34q0 27 26 27h92q31 0 31 -27v-12q0 -96 127 -96q129 0 129 96v72q0 47 -29.5 70.5t-97.5 23.5h-96q-31 0 -31 27v65q0 29 31 29h84q70 0 98.5 23.5t28.5 70.5v41q0 47 -26.5 71.5t-92.5 24.5t-93.5 -24.5t-27.5 -71.5v-12q0 -27 -28 -27h-93q-29 0 -28 27v35 q0 37 12 72.5t43 62t83 43t134 16.5q80 0 132 -15.5t82 -42t42 -61.5t12 -73v-89q0 -47 -20.5 -78.5t-73.5 -47.5q59 -23 82 -59t23 -85v-115q0 -37 -13.5 -71.5t-45.5 -61t-85 -42t-133 -15.5t-134 16.5t-86 43t-45 62.5t-13 73z" />
<glyph unicode="&#xb4;" horiz-adv-x="663" d="M178 1194l121 219q10 16 21.5 26.5t31.5 10.5h127q23 0 27 -11.5t-8 -27.5l-156 -229q-4 -8 -16.5 -16.5t-32.5 -8.5h-94q-41 0 -21 37z" />
<glyph unicode="&#xb5;" horiz-adv-x="1085" d="M133 -377v1352q0 41 37 41h119q39 0 39 -41v-682q0 -66 32.5 -100.5t118.5 -34.5q49 0 90 11t75 26.5t59.5 34t41.5 30.5v715q0 41 37 41h121q37 0 37 -41v-936q0 -39 -37 -39h-110q-23 0 -30 8t-9 31l-4 61q-20 -18 -51 -38.5t-71 -38t-91.5 -28.5t-114.5 -11 q-29 0 -55.5 4t-49.5 10l11 -375q0 -41 -37 -41h-121q-37 0 -37 41z" />
<glyph unicode="&#xb6;" horiz-adv-x="1361" d="M168 846v278q0 57 18.5 107.5t62.5 85.5t120.5 55.5t193.5 20.5h238q37 0 37 -39v-1731q0 -41 -37 -41h-125q-39 0 -39 41v955h-74q-117 0 -193.5 20t-120.5 55t-62.5 84t-18.5 109zM995 -377v1729q0 41 39 41h125q37 0 37 -41v-1729q0 -41 -37 -41h-125q-39 0 -39 41z " />
<glyph unicode="&#xb7;" horiz-adv-x="477" d="M139 471v164q0 39 39 39h123q37 0 37 -39v-164q0 -39 -37 -39h-123q-39 0 -39 39z" />
<glyph unicode="&#xb8;" horiz-adv-x="444" d="M10 -352q0 37 39 37h203q23 0 44 7t21 40t-21.5 39t-43.5 6h-135q-37 0 -48.5 12t-5.5 37l50 188q10 37 45 35l55 -6q41 -4 27 -47l-29 -102h70q72 0 123 -38t51 -124t-51.5 -125t-122.5 -39h-232q-39 0 -39 39v41z" />
<glyph unicode="&#xb9;" horiz-adv-x="768" d="M111 594v68q0 16 6 21t22 5h170v569l-170 -28q-29 -6 -28 22v70q0 23 28 29l297 57q10 2 18.5 -2t8.5 -25v-692h168q16 0 21 -5t5 -21v-68q0 -29 -26 -29h-492q-29 0 -28 29z" />
<glyph unicode="&#xba;" horiz-adv-x="745" d="M111 952v281q0 80 63.5 128t198.5 48t197.5 -48t62.5 -128v-281q0 -80 -62.5 -127t-197.5 -47t-198.5 47t-63.5 127zM260 969q0 -74 113 -74q111 0 110 74v250q0 74 -110 73q-113 0 -113 -73v-250z" />
<glyph unicode="&#xbb;" horiz-adv-x="1187" d="M143 147v123q0 23 11.5 35t27.5 25l258 188l-258 187q-16 10 -27.5 24t-11.5 35v123q0 23 12.5 28t26.5 -6l377 -278q12 -10 23.5 -21.5t11.5 -31.5v-121q0 -18 -11.5 -29.5t-23.5 -21.5l-377 -281q-14 -10 -26.5 -5t-12.5 27zM594 147v123q0 23 11 35t28 25l258 188 l-258 187q-16 10 -27.5 24t-11.5 35v123q0 23 12 28t27 -6l377 -278q12 -10 23 -21.5t11 -31.5v-121q0 -18 -11 -29.5t-23 -21.5l-377 -281q-14 -10 -26.5 -5t-12.5 27z" />
<glyph unicode="&#xbc;" horiz-adv-x="1761" d="M111 594v68q0 16 6 21t22 5h170v574l-170 -33q-29 -6 -28 22v70q0 23 28 29l297 57q10 2 18.5 -2t8.5 -25v-692h168q16 0 21 -5t5 -21v-68q0 -29 -26 -29h-492q-29 0 -28 29zM641 -72l387 1536q6 29 35 29h100q29 0 23 -29l-389 -1536q-4 -16 -9.5 -22t-21.5 -6h-102 q-29 0 -23 28zM1090 264v62q0 10 4 22l147 459q4 14 11.5 21.5t23.5 7.5h98q31 0 21 -29l-144 -449h248v449q0 29 29 29h96q29 0 29 -29v-778q0 -29 -29 -29h-96q-29 0 -29 29v207h-379q-31 0 -30 28z" />
<glyph unicode="&#xbd;" horiz-adv-x="1783" d="M111 594v68q0 16 6 21t22 5h170v574l-170 -33q-29 -6 -28 22v70q0 23 28 29l297 57q10 2 18.5 -2t8.5 -25v-692h168q16 0 21 -5t5 -21v-68q0 -29 -26 -29h-492q-29 0 -28 29zM625 -72l389 1536q4 16 10 22.5t23 6.5h102q27 0 20 -29l-389 -1536q-4 -16 -9 -22t-21 -6 h-103q-29 0 -22 28zM1114 578v71q0 37 13.5 73t46 63.5t85 44t132.5 16.5t133 -16.5t84.5 -44t46 -63.5t14.5 -73v-104q0 -43 -11 -75t-28.5 -52.5t-37 -33.5t-38.5 -19l-219 -89q-10 -4 -30.5 -14t-20.5 -33v-104h363q29 0 28 -29v-67q0 -29 -28 -29h-488q-27 0 -26 29v225 q0 53 27.5 75.5t58.5 35.5l245 98q16 6 36 22.5t20 51.5v90q0 96 -129 96q-68 0 -97.5 -24.5t-29.5 -71.5v-49q0 -31 -27 -31h-94q-29 0 -29 31z" />
<glyph unicode="&#xbe;" horiz-adv-x="1773" d="M111 748v34q0 27 26 27h92q31 0 31 -27v-12q0 -96 127 -96q129 0 129 96v72q0 47 -29.5 70.5t-97.5 23.5h-96q-31 0 -31 27v65q0 29 31 29h84q70 0 98.5 23.5t28.5 70.5v41q0 47 -26.5 71.5t-92.5 24.5t-93.5 -24.5t-27.5 -71.5v-12q0 -27 -28 -27h-93q-29 0 -28 27v34 q0 37 12 73t43 62.5t83 43t134 16.5q80 0 132 -15.5t82 -42t42 -61.5t12 -73v-89q0 -47 -20.5 -78.5t-73.5 -48.5q59 -23 82 -58.5t23 -84.5v-115q0 -37 -13.5 -71.5t-45.5 -61t-85 -42t-133 -15.5t-134 16.5t-86 43t-45 62.5t-13 73zM653 -72l389 1536q4 16 10.5 22.5 t22.5 6.5h103q27 0 20 -29l-389 -1536q-4 -16 -9 -22t-22 -6h-102q-29 0 -23 28zM1100 264v62q0 10 4 22l147 459q4 14 11.5 21.5t23.5 7.5h98q31 0 21 -29l-143 -449h247v449q0 29 29 29h96q29 0 29 -29v-778q0 -29 -29 -29h-96q-29 0 -29 29v207h-379q-31 0 -30 28z" />
<glyph unicode="&#xbf;" horiz-adv-x="1159" d="M133 51q0 66 17.5 115t44 83t58.5 56.5t58 34.5l113 53q39 18 66.5 46t27.5 85v103q0 39 37 39h127q37 0 37 -39v-152q0 -45 -13.5 -76.5t-33 -53t-42 -36t-42.5 -24.5l-164 -84q-12 -6 -28.5 -17.5t-30 -29t-23.5 -41t-10 -56.5v-104q0 -86 57 -132t193 -46 q137 0 193 46t56 132v88q0 41 37 41h119q39 0 39 -41v-119q0 -63 -21.5 -120.5t-72.5 -100.5t-136 -68.5t-214 -25.5t-214 25.5t-137.5 68.5t-75 100.5t-22.5 120.5v129zM518 813v164q0 39 37 39h127q37 0 37 -39v-164q0 -39 -37 -39h-127q-37 0 -37 39z" />
<glyph unicode="&#xc0;" horiz-adv-x="1101" d="M41 39l397 1315q12 39 49 39h127q37 0 50 -39l397 -1315q12 -39 -31 -39h-129q-35 0 -45 39l-96 317h-432l-95 -317q-10 -39 -45 -39h-118q-41 0 -29 39zM281 1785.5q4 12.5 26 12.5h127q23 0 33 -11t20 -28l121 -217q20 -39 -18 -39h-96q-20 0 -31.5 8.5t-18.5 18.5 l-155 227q-12 16 -8 28.5zM373 516h344l-115 373q-10 29 -19.5 76t-16.5 94t-13 84t-6 45q-2 -6 -7 -41t-13.5 -80t-17.5 -93t-20 -81z" />
<glyph unicode="&#xc1;" horiz-adv-x="1101" d="M41 39l397 1315q12 39 49 39h127q37 0 50 -39l397 -1315q12 -39 -31 -39h-129q-35 0 -45 39l-96 317h-432l-95 -317q-10 -39 -45 -39h-118q-41 0 -29 39zM373 516h344l-115 373q-10 29 -19.5 76t-16.5 94t-13 84t-6 45q-2 -6 -7 -41t-13.5 -80t-17.5 -93t-20 -81z M483 1542l121 219q10 16 21.5 26.5t31.5 10.5h127q23 0 27 -11t-6 -28l-158 -229q-4 -8 -15 -16.5t-34 -8.5h-94q-41 0 -21 37z" />
<glyph unicode="&#xc2;" horiz-adv-x="1101" d="M41 39l397 1315q12 39 49 39h127q37 0 50 -39l397 -1315q12 -39 -31 -39h-129q-35 0 -45 39l-96 317h-432l-95 -317q-10 -39 -45 -39h-118q-41 0 -29 39zM294 1515.5q-5 10.5 5 26.5l154 217q12 16 26.5 27.5t34.5 11.5h72q20 0 34.5 -11t26.5 -28l154 -217 q10 -16 6 -26.5t-27 -10.5h-92q-18 0 -30.5 10.5t-22.5 26.5l-84 137l-84 -137q-8 -14 -21.5 -25.5t-33.5 -11.5h-93q-20 0 -25 10.5zM373 516h344l-115 373q-10 29 -19.5 76t-16.5 94t-13 84t-6 45q-2 -6 -7 -41t-13.5 -80t-17.5 -93t-20 -81z" />
<glyph unicode="&#xc3;" horiz-adv-x="1101" d="M41 39l397 1315q12 39 49 39h127q37 0 50 -39l397 -1315q12 -39 -31 -39h-129q-35 0 -45 39l-96 317h-432l-95 -317q-10 -39 -45 -39h-118q-41 0 -29 39zM231 1567l5 65q4 86 52 125t109 39q31 0 64 -8t57 -25l88 -53q23 -12 44.5 -25.5t37.5 -13.5q27 0 33 17.5t6 60.5 v14q0 20 12.5 27.5t30.5 7.5h64q37 0 32 -45l-4 -65q-4 -86 -53 -125t-111 -39q-23 0 -56.5 8t-61.5 24l-88 54q-23 12 -44.5 25.5t-37.5 13.5q-29 0 -34 -17.5t-5 -60.5v-15q0 -23 -10.5 -28.5t-30.5 -5.5h-66q-37 0 -33 45zM373 516h344l-115 373q-10 29 -19.5 76 t-16.5 94t-13 84t-6 45q-2 -6 -7 -41t-13.5 -80t-17.5 -93t-20 -81z" />
<glyph unicode="&#xc4;" horiz-adv-x="1101" d="M41 39l397 1315q12 39 49 39h127q37 0 50 -39l397 -1315q12 -39 -31 -39h-129q-35 0 -45 39l-96 317h-432l-95 -317q-10 -39 -45 -39h-118q-41 0 -29 39zM354 1552v195q0 41 37 41h72q23 0 30 -9.5t7 -31.5v-195q0 -23 -7.5 -31t-29.5 -8h-72q-37 0 -37 39zM373 516h344 l-115 373q-10 29 -19.5 76t-16.5 94t-13 84t-6 45q-2 -6 -7 -41t-13.5 -80t-17.5 -93t-20 -81zM602 1552v195q0 41 37 41h72q37 0 37 -41v-195q0 -39 -37 -39h-72q-37 0 -37 39z" />
<glyph unicode="&#xc5;" horiz-adv-x="1101" d="M41 39l397 1315q12 39 49 39h127q37 0 50 -39l397 -1315q12 -39 -31 -39h-129q-35 0 -45 39l-96 317h-432l-95 -317q-10 -39 -45 -39h-118q-41 0 -29 39zM346 1622v47q0 63 49 109.5t156 46.5q104 0 154.5 -46t50.5 -110v-47q0 -63 -50.5 -109.5t-154.5 -46.5 q-106 0 -155.5 46.5t-49.5 109.5zM373 516h344l-115 373q-10 29 -19.5 76t-16.5 94t-13 84t-6 45q-2 -6 -7 -41t-13.5 -80t-17.5 -93t-20 -81zM463 1638q0 -33 20.5 -51t67.5 -18q88 0 88 69v15q0 70 -88 69q-47 0 -67.5 -18t-20.5 -51v-15z" />
<glyph unicode="&#xc6;" horiz-adv-x="1714" d="M44.5 10q-9.5 10 0.5 29l772 1315q6 10 19.5 24.5t35.5 14.5h684q39 0 39 -37v-88q0 -39 -39 -39h-536v-424h502q20 0 29.5 -7t9.5 -30v-82q0 -39 -39 -39h-502v-483h561q39 0 39 -37v-88q0 -39 -39 -39h-709q-43 0 -43 39v317h-409l-182 -317q-8 -14 -18.5 -26.5 t-29.5 -12.5h-116q-20 0 -29.5 10zM514 516h315v553q-18 -37 -35.5 -68.5t-33.5 -60.5z" />
<glyph unicode="&#xc7;" horiz-adv-x="1144" d="M145 299v795q0 63 21.5 120.5t73 100.5t138.5 68.5t220 25.5q131 0 219 -25.5t139.5 -68.5t73 -100.5t21.5 -120.5v-101q0 -41 -37 -41h-119q-39 0 -39 41v68q0 84 -58.5 131t-197.5 47t-196.5 -47t-57.5 -131v-729q0 -84 57.5 -131t196.5 -47t197.5 47t58.5 131v96 q0 39 39 39h119q37 0 37 -39v-129q0 -63 -21.5 -120.5t-73 -100.5t-139.5 -68.5t-219 -25.5h-4l-25 -90h70q72 0 123 -38t51 -124t-51 -125t-123 -39h-231q-39 0 -39 39v41q0 37 39 37h202q23 0 44.5 7t21.5 40t-21.5 39t-44.5 6h-135q-37 0 -48 12t-5 37l43 166 q-92 12 -153.5 40.5t-98.5 69.5t-52.5 91.5t-15.5 105.5z" />
<glyph unicode="&#xc8;" horiz-adv-x="1062" d="M168 41v1311q0 41 37 41h700q39 0 39 -39v-92q0 -39 -39 -39h-538v-414h501q41 0 41 -39v-88q0 -39 -41 -39h-501v-473h561q20 0 29.5 -7t9.5 -30v-94q0 -39 -39 -39h-723q-37 0 -37 41zM320 1785.5q4 12.5 26 12.5h127q23 0 33 -11t20 -28l121 -217q20 -39 -18 -39h-97 q-20 0 -31.5 8.5t-17.5 18.5l-155 227q-12 16 -8 28.5z" />
<glyph unicode="&#xc9;" horiz-adv-x="1062" d="M168 41v1311q0 41 37 41h700q39 0 39 -39v-92q0 -39 -39 -39h-538v-414h501q41 0 41 -39v-88q0 -39 -41 -39h-501v-473h561q20 0 29.5 -7t9.5 -30v-94q0 -39 -39 -39h-723q-37 0 -37 41zM463 1542l121 219q10 16 21 26.5t32 10.5h127q23 0 27 -11t-7 -28l-157 -229 q-4 -8 -15.5 -16.5t-33.5 -8.5h-95q-41 0 -20 37z" />
<glyph unicode="&#xca;" horiz-adv-x="1062" d="M168 41v1311q0 41 37 41h700q39 0 39 -39v-92q0 -39 -39 -39h-538v-414h501q41 0 41 -39v-88q0 -39 -41 -39h-501v-473h561q20 0 29.5 -7t9.5 -30v-94q0 -39 -39 -39h-723q-37 0 -37 41zM275.5 1515.5q-5.5 10.5 5.5 26.5l153 217q12 16 26.5 27.5t35.5 11.5h71 q20 0 34.5 -11t27.5 -28l153 -217q10 -16 6 -26.5t-26 -10.5h-92q-18 0 -30.5 10.5t-23.5 26.5l-84 137l-83 -137q-8 -14 -21.5 -25.5t-34.5 -11.5h-92q-20 0 -25.5 10.5z" />
<glyph unicode="&#xcb;" horiz-adv-x="1062" d="M168 41v1311q0 41 37 41h700q39 0 39 -39v-92q0 -39 -39 -39h-538v-414h501q41 0 41 -39v-88q0 -39 -41 -39h-501v-473h561q20 0 29.5 -7t9.5 -30v-94q0 -39 -39 -39h-723q-37 0 -37 41zM358 1552v195q0 41 37 41h72q23 0 30 -9.5t7 -31.5v-195q0 -23 -7.5 -31t-29.5 -8 h-72q-37 0 -37 39zM606 1552v195q0 41 37 41h72q37 0 37 -41v-195q0 -39 -37 -39h-72q-37 0 -37 39z" />
<glyph unicode="&#xcc;" horiz-adv-x="534" d="M6 1785.5q4 12.5 27 12.5h127q23 0 33 -11t20 -28l121 -217q20 -39 -19 -39h-96q-20 0 -31.5 8.5t-17.5 18.5l-156 227q-12 16 -8 28.5zM168 41v1311q0 41 37 41h125q23 0 30 -9.5t7 -31.5v-1311q0 -23 -7.5 -32t-29.5 -9h-125q-37 0 -37 41z" />
<glyph unicode="&#xcd;" horiz-adv-x="534" d="M168 41v1311q0 41 37 41h125q23 0 30 -9.5t7 -31.5v-1311q0 -23 -7.5 -32t-29.5 -9h-125q-37 0 -37 41zM193 1542l120 219q10 16 21.5 26.5t32.5 10.5h127q23 0 26.5 -11t-6.5 -28l-158 -229q-4 -8 -15 -16.5t-34 -8.5h-94q-41 0 -20 37z" />
<glyph unicode="&#xce;" horiz-adv-x="534" d="M11.5 1515.5q-5.5 10.5 4.5 26.5l154 217q12 16 26.5 27.5t34.5 11.5h72q20 0 34.5 -11t27.5 -28l153 -217q10 -16 6 -26.5t-26 -10.5h-92q-18 0 -31 10.5t-23 26.5l-84 137l-84 -137q-8 -14 -21 -25.5t-34 -11.5h-92q-20 0 -25.5 10.5zM168 41v1311q0 41 37 41h125 q23 0 30 -9.5t7 -31.5v-1311q0 -23 -7.5 -32t-29.5 -9h-125q-37 0 -37 41z" />
<glyph unicode="&#xcf;" horiz-adv-x="534" d="M72 1552v195q0 41 37 41h71q23 0 30 -9.5t7 -31.5v-195q0 -23 -7 -31t-30 -8h-71q-37 0 -37 39zM168 41v1311q0 41 37 41h125q23 0 30 -9.5t7 -31.5v-1311q0 -23 -7.5 -32t-29.5 -9h-125q-37 0 -37 41zM319 1552v195q0 41 37 41h72q37 0 37 -41v-195q0 -39 -37 -39h-72 q-37 0 -37 39z" />
<glyph unicode="&#xd0;" horiz-adv-x="1245" d="M14 666v73q0 23 9.5 30t29.5 7h115v576q0 41 37 41h428q131 0 220 -26t144.5 -69t79 -100t23.5 -121v-762q0 -63 -23.5 -120.5t-79 -100.5t-144.5 -68.5t-220 -25.5h-432q-33 0 -33 41v588h-115q-39 0 -39 37zM367 170h266q139 0 202.5 47t63.5 131v696q0 84 -63.5 131.5 t-202.5 47.5h-266v-447h235q20 0 29.5 -7t9.5 -30v-73q0 -37 -39 -37h-235v-459z" />
<glyph unicode="&#xd1;" horiz-adv-x="1265" d="M168 39v1315q0 39 37 39h114q23 0 33 -17l494 -862q10 -18 20.5 -39.5t19.5 -41t15 -34t8 -16.5v971q0 39 39 39h113q23 0 30 -9.5t7 -29.5v-1315q0 -20 -7.5 -29.5t-29.5 -9.5h-113q-16 0 -23 4t-14 14l-481 844q-35 57 -52.5 99.5t-21.5 48.5v-971q0 -39 -37 -39h-114 q-37 0 -37 39zM315 1567l4 65q4 86 52.5 125t109.5 39q31 0 64 -8t57 -25l88 -53q23 -12 44.5 -25.5t37.5 -13.5q27 0 33 17.5t6 60.5v14q0 20 12.5 27.5t30.5 7.5h64q37 0 32 -45l-4 -65q-4 -86 -53 -125t-111 -39q-23 0 -56.5 8t-61.5 24l-89 54q-23 12 -44 25.5t-37 13.5 q-29 0 -34 -17.5t-5 -60.5v-15q0 -23 -10.5 -28.5t-30.5 -5.5h-66q-37 0 -33 45z" />
<glyph unicode="&#xd2;" horiz-adv-x="1222" d="M145 299v795q0 63 24 120.5t78 100.5t143 68.5t220 25.5t221.5 -25.5t144.5 -68.5t77.5 -100.5t23.5 -120.5v-795q0 -63 -23.5 -120.5t-77.5 -100.5t-144.5 -68.5t-221.5 -25.5t-220 25.5t-143 68.5t-78 100.5t-24 120.5zM346 332q0 -84 63.5 -131t200.5 -47 q139 0 203 47t64 131v729q0 84 -63.5 131t-203.5 47q-137 0 -200.5 -47t-63.5 -131v-729zM348 1785.5q4 12.5 27 12.5h127q23 0 33 -11t20 -28l121 -217q20 -39 -19 -39h-96q-20 0 -31.5 8.5t-17.5 18.5l-156 227q-12 16 -8 28.5z" />
<glyph unicode="&#xd3;" horiz-adv-x="1222" d="M145 299v795q0 63 24 120.5t78 100.5t143 68.5t220 25.5t221.5 -25.5t144.5 -68.5t77.5 -100.5t23.5 -120.5v-795q0 -63 -23.5 -120.5t-77.5 -100.5t-144.5 -68.5t-221.5 -25.5t-220 25.5t-143 68.5t-78 100.5t-24 120.5zM346 332q0 -84 63.5 -131t200.5 -47 q139 0 203 47t64 131v729q0 84 -63.5 131t-203.5 47q-137 0 -200.5 -47t-63.5 -131v-729zM518 1542l121 219q10 16 21.5 26.5t31.5 10.5h127q23 0 27 -11t-6 -28l-158 -229q-4 -8 -15.5 -16.5t-33.5 -8.5h-94q-41 0 -21 37z" />
<glyph unicode="&#xd4;" horiz-adv-x="1222" d="M145 299v795q0 63 24 120.5t78 100.5t143 68.5t220 25.5t221.5 -25.5t144.5 -68.5t77.5 -100.5t23.5 -120.5v-795q0 -63 -23.5 -120.5t-77.5 -100.5t-144.5 -68.5t-221.5 -25.5t-220 25.5t-143 68.5t-78 100.5t-24 120.5zM346 332q0 -84 63.5 -131t200.5 -47 q139 0 203 47t64 131v729q0 84 -63.5 131t-203.5 47q-137 0 -200.5 -47t-63.5 -131v-729zM353.5 1515.5q-5.5 10.5 4.5 26.5l154 217q12 16 26.5 27.5t34.5 11.5h72q20 0 34.5 -11t27.5 -28l153 -217q10 -16 6 -26.5t-26 -10.5h-92q-18 0 -30.5 10.5t-23.5 26.5l-84 137 l-84 -137q-8 -14 -21 -25.5t-34 -11.5h-92q-20 0 -25.5 10.5z" />
<glyph unicode="&#xd5;" horiz-adv-x="1222" d="M145 299v795q0 63 24 120.5t78 100.5t143 68.5t220 25.5t221.5 -25.5t144.5 -68.5t77.5 -100.5t23.5 -120.5v-795q0 -63 -23.5 -120.5t-77.5 -100.5t-144.5 -68.5t-221.5 -25.5t-220 25.5t-143 68.5t-78 100.5t-24 120.5zM293 1567l4 65q4 86 52 125t110 39q31 0 63.5 -8 t57.5 -25l88 -53q23 -12 44 -25.5t38 -13.5q27 0 32.5 17.5t5.5 60.5v14q0 20 12.5 27.5t30.5 7.5h64q37 0 33 -45l-4 -65q-4 -86 -53.5 -125t-110.5 -39q-23 0 -56.5 8t-62.5 24l-88 54q-23 12 -44.5 25.5t-37.5 13.5q-29 0 -34 -17.5t-5 -60.5v-15q0 -23 -10 -28.5 t-31 -5.5h-65q-37 0 -33 45zM346 332q0 -84 63.5 -131t200.5 -47q139 0 203 47t64 131v729q0 84 -63.5 131t-203.5 47q-137 0 -200.5 -47t-63.5 -131v-729z" />
<glyph unicode="&#xd6;" horiz-adv-x="1222" d="M145 299v795q0 63 24 120.5t78 100.5t143 68.5t220 25.5t221.5 -25.5t144.5 -68.5t77.5 -100.5t23.5 -120.5v-795q0 -63 -23.5 -120.5t-77.5 -100.5t-144.5 -68.5t-221.5 -25.5t-220 25.5t-143 68.5t-78 100.5t-24 120.5zM346 332q0 -84 63.5 -131t200.5 -47 q139 0 203 47t64 131v729q0 84 -63.5 131t-203.5 47q-137 0 -200.5 -47t-63.5 -131v-729zM414 1552v195q0 41 37 41h71q23 0 30 -9.5t7 -31.5v-195q0 -23 -7 -31t-30 -8h-71q-37 0 -37 39zM662 1552v195q0 41 36 41h72q37 0 37 -41v-195q0 -39 -37 -39h-72q-37 0 -36 39z " />
<glyph unicode="&#xd7;" horiz-adv-x="1112" d="M154 512q-20 33 14 53l276 158l-159 276q-18 33 12 54l74 45q33 20 53 -17l160 -276l278 160q18 10 29.5 8t21.5 -21l43 -75q20 -35 -14 -56l-278 -159l159 -275q20 -33 -14 -53l-74 -43q-31 -20 -51 14l-160 275l-276 -158q-35 -20 -53 14z" />
<glyph unicode="&#xd8;" horiz-adv-x="1222" d="M145 297v795q0 63 24 120.5t78 100.5t143 68.5t220 25.5q94 0 166 -13.5t125 -37.5l21 39q10 16 22 38.5t43 22.5h37q29 0 23.5 -19.5t-15.5 -41.5l-47 -90q49 -43 70.5 -98.5t21.5 -114.5v-795q0 -63 -23.5 -120.5t-77.5 -100.5t-144.5 -68.5t-221.5 -25.5 q-98 0 -171.5 14t-127.5 39l-18 -37q-12 -23 -26.5 -42t-41.5 -19h-32q-23 0 -23 18t12 43l47 92q-45 41 -64.5 94.5t-19.5 112.5zM346 309l467 881q-70 47 -203 47q-137 0 -200.5 -47t-63.5 -131v-729v-21zM401 205q66 -53 209 -53q139 0 203 47t64 131v729q0 14 -5 35z " />
<glyph unicode="&#xd9;" horiz-adv-x="1245" d="M156 299v1053q0 41 39 41h124q37 0 37 -41v-1020q0 -84 63.5 -131t201.5 -47q139 0 203.5 47t64.5 131v1020q0 41 37 41h125q23 0 29.5 -9.5t6.5 -31.5v-1053q0 -63 -23.5 -120.5t-77.5 -100.5t-144 -68.5t-221 -25.5t-220.5 25.5t-143.5 68.5t-77.5 100.5t-23.5 120.5z M373 1785.5q4 12.5 26 12.5h127q23 0 33 -11t21 -28l120 -217q20 -39 -18 -39h-96q-20 0 -31.5 8.5t-17.5 18.5l-156 227q-12 16 -8 28.5z" />
<glyph unicode="&#xda;" horiz-adv-x="1245" d="M156 299v1053q0 41 39 41h124q37 0 37 -41v-1020q0 -84 63.5 -131t201.5 -47q139 0 203.5 47t64.5 131v1020q0 41 37 41h125q23 0 29.5 -9.5t6.5 -31.5v-1053q0 -63 -23.5 -120.5t-77.5 -100.5t-144 -68.5t-221 -25.5t-220.5 25.5t-143.5 68.5t-77.5 100.5t-23.5 120.5z M545 1542l121 219q10 16 21 26.5t32 10.5h127q23 0 27 -11t-7 -28l-157 -229q-4 -8 -15.5 -16.5t-34.5 -8.5h-94q-41 0 -20 37z" />
<glyph unicode="&#xdb;" horiz-adv-x="1245" d="M156 299v1053q0 41 39 41h124q37 0 37 -41v-1020q0 -84 63.5 -131t201.5 -47q139 0 203.5 47t64.5 131v1020q0 41 37 41h125q23 0 29.5 -9.5t6.5 -31.5v-1053q0 -63 -23.5 -120.5t-77.5 -100.5t-144 -68.5t-221 -25.5t-220.5 25.5t-143.5 68.5t-77.5 100.5t-23.5 120.5z M365.5 1515.5q-5.5 10.5 5.5 26.5l153 217q12 16 26.5 27.5t35.5 11.5h71q20 0 35 -11t27 -28l153 -217q10 -16 6 -26.5t-26 -10.5h-92q-18 0 -30.5 10.5t-22.5 26.5l-84 137l-84 -137q-8 -14 -21.5 -25.5t-34.5 -11.5h-92q-20 0 -25.5 10.5z" />
<glyph unicode="&#xdc;" horiz-adv-x="1245" d="M156 299v1053q0 41 39 41h124q37 0 37 -41v-1020q0 -84 63.5 -131t201.5 -47q139 0 203.5 47t64.5 131v1020q0 41 37 41h125q23 0 29.5 -9.5t6.5 -31.5v-1053q0 -63 -23.5 -120.5t-77.5 -100.5t-144 -68.5t-221 -25.5t-220.5 25.5t-143.5 68.5t-77.5 100.5t-23.5 120.5z M426 1552v195q0 41 37 41h72q23 0 29.5 -9.5t6.5 -31.5v-195q0 -23 -7 -31t-29 -8h-72q-37 0 -37 39zM674 1552v195q0 41 37 41h71q37 0 37 -41v-195q0 -39 -37 -39h-71q-37 0 -37 39z" />
<glyph unicode="&#xdd;" horiz-adv-x="1083" d="M35 1382.5q8 10.5 31 10.5h141q20 0 28.5 -10.5t18.5 -28.5l256 -541l33 -90q2 6 12 38t20 52l273 541q8 16 17 27.5t28 11.5h125q20 0 28.5 -9.5t-2.5 -29.5l-401 -801v-514q0 -39 -37 -39h-125q-39 0 -39 39v491l-405 824q-10 18 -2 28.5zM481 1542l121 219 q10 16 21.5 26.5t31.5 10.5h127q23 0 27 -11t-6 -28l-158 -229q-4 -8 -15.5 -16.5t-33.5 -8.5h-94q-41 0 -21 37z" />
<glyph unicode="&#xde;" horiz-adv-x="1171" d="M168 39v1315q0 39 37 39h125q39 0 39 -39v-338h252q131 0 221 -25.5t143 -68.5t76.5 -100.5t23.5 -119.5v-194q0 -63 -23.5 -119.5t-76.5 -99.5t-143 -68.5t-221 -25.5h-252v-156q0 -39 -39 -39h-125q-37 0 -37 39zM369 360h252q139 0 202.5 47.5t63.5 133.5v129 q0 86 -63.5 133t-202.5 47h-252v-490z" />
<glyph unicode="&#xdf;" horiz-adv-x="1267" d="M49 893v72q0 35 37 39l109 8h12v157q0 61 22.5 112.5t73.5 88.5t132 58.5t196 21.5t195.5 -20.5t131 -57.5t74 -88t23.5 -115v-75q0 -39 -14.5 -69t-36 -52.5t-48 -37.5t-51.5 -24l-133 -49q-23 -8 -53.5 -24.5t-30.5 -49.5v-10q0 -18 10.5 -32.5t24.5 -25.5t30.5 -19.5 t26.5 -12.5l240 -100q25 -10 57.5 -28.5t61 -45.5t48 -61.5t19.5 -79.5v-113q0 -61 -17.5 -111.5t-58 -87t-108.5 -57t-170 -20.5t-166.5 18t-101.5 53t-51.5 85t-14.5 112v16q0 41 39 41h82q39 0 39 -41v-22q0 -61 36 -96t138 -35t139 35.5t37 95.5v90q0 23 -11 40 t-26.5 29.5t-35 20.5t-33.5 14l-228 97q-29 12 -59.5 28.5t-55 42t-41 61.5t-16.5 85v41q0 37 14.5 66.5t36 51t47 37t48.5 23.5l106 39q35 12 67.5 37.5t32.5 72.5v33q0 66 -52 104.5t-183 38.5t-183.5 -38.5t-52.5 -104.5v-1114q0 -41 -38 -41h-119q-39 0 -39 41v811h-121 q-37 0 -37 41z" />
<glyph unicode="&#xe0;" horiz-adv-x="1044" d="M113 231v99q0 49 17 94t53 79t89.5 54.5t124.5 20.5h324v157q0 63 -41 101t-158 38t-160 -34.5t-43 -98.5v-16q0 -41 -38 -41h-107q-37 0 -37 41v31q0 61 21.5 112.5t67.5 87t120 56t178 20.5q109 0 182.5 -20.5t119.5 -56t65.5 -87t19.5 -112.5v-715q0 -41 -37 -41h-106 q-23 0 -30 9t-9 32l-4 59q-23 -18 -54.5 -38.5t-71.5 -38t-90 -28.5t-108 -11q-72 0 -126 20.5t-89.5 54t-54 78.5t-18.5 94zM303 260q0 -59 35 -87t113 -28q47 0 88 11.5t75.5 28t61 34t45.5 31.5v176h-283q-78 0 -106.5 -33t-28.5 -92v-41zM305 1438.5q4 11.5 27 11.5h127 q23 0 33 -10t20 -27l121 -219q20 -37 -19 -37h-96q-20 0 -31.5 8.5t-17.5 16.5l-156 229q-12 16 -8 27.5z" />
<glyph unicode="&#xe1;" horiz-adv-x="1044" d="M113 231v99q0 49 17 94t53 79t89.5 54.5t124.5 20.5h324v157q0 63 -41 101t-158 38t-160 -34.5t-43 -98.5v-16q0 -41 -38 -41h-107q-37 0 -37 41v31q0 61 21.5 112.5t67.5 87t120 56t178 20.5q109 0 182.5 -20.5t119.5 -56t65.5 -87t19.5 -112.5v-715q0 -41 -37 -41h-106 q-23 0 -30 9t-9 32l-4 59q-23 -18 -54.5 -38.5t-71.5 -38t-90 -28.5t-108 -11q-72 0 -126 20.5t-89.5 54t-54 78.5t-18.5 94zM303 260q0 -59 35 -87t113 -28q47 0 88 11.5t75.5 28t61 34t45.5 31.5v176h-283q-78 0 -106.5 -33t-28.5 -92v-41zM412 1194l120 219 q10 16 21.5 26.5t32.5 10.5h127q23 0 26.5 -11.5t-8.5 -27.5l-156 -229q-4 -8 -16 -16.5t-33 -8.5h-94q-41 0 -20 37z" />
<glyph unicode="&#xe2;" horiz-adv-x="1044" d="M113 231v99q0 49 17 94t53 79t89.5 54.5t124.5 20.5h324v157q0 63 -41 101t-158 38t-160 -34.5t-43 -98.5v-16q0 -41 -38 -41h-107q-37 0 -37 41v31q0 61 21.5 112.5t67.5 87t120 56t178 20.5q109 0 182.5 -20.5t119.5 -56t65.5 -87t19.5 -112.5v-715q0 -41 -37 -41h-106 q-23 0 -30 9t-9 32l-4 59q-23 -18 -54.5 -38.5t-71.5 -38t-90 -28.5t-108 -11q-72 0 -126 20.5t-89.5 54t-54 78.5t-18.5 94zM269.5 1167.5q-5.5 10.5 4.5 26.5l154 217q12 16 25.5 27.5t35.5 11.5h72q20 0 34.5 -11.5t27.5 -27.5l153 -217q10 -16 5 -26.5t-25 -10.5h-92 q-20 0 -31.5 10.5t-22.5 26.5l-84 137l-86 -137q-8 -12 -20 -24.5t-33 -12.5h-92q-20 0 -25.5 10.5zM303 260q0 -59 35 -87t113 -28q47 0 88 11.5t75.5 28t61 34t45.5 31.5v176h-283q-78 0 -106.5 -33t-28.5 -92v-41z" />
<glyph unicode="&#xe3;" horiz-adv-x="1044" d="M113 231v99q0 49 17 94t53 79t89.5 54.5t124.5 20.5h324v157q0 63 -41 101t-158 38t-160 -34.5t-43 -98.5v-16q0 -41 -38 -41h-107q-37 0 -37 41v31q0 61 21.5 112.5t67.5 87t120 56t178 20.5q109 0 182.5 -20.5t119.5 -56t65.5 -87t19.5 -112.5v-715q0 -41 -37 -41h-106 q-23 0 -30 9t-9 32l-4 59q-23 -18 -54.5 -38.5t-71.5 -38t-90 -28.5t-108 -11q-72 0 -126 20.5t-89.5 54t-54 78.5t-18.5 94zM211 1204l4 66q4 86 52 125t110 39q31 0 63.5 -8.5t57.5 -24.5l88 -53q23 -12 44 -25.5t38 -13.5q27 0 33 17t6 60v15q0 20 12 27.5t31 7.5h63 q37 0 33 -45l-4 -66q-4 -86 -53.5 -125t-110.5 -39q-23 0 -56.5 8.5t-62.5 24.5l-88 53q-23 12 -44.5 25.5t-37.5 13.5q-29 0 -34 -17.5t-5 -60.5v-14q0 -23 -10 -29t-31 -6h-65q-37 0 -33 45zM303 260q0 -59 35 -87t113 -28q47 0 88 11.5t75.5 28t61 34t45.5 31.5v176h-283 q-78 0 -106.5 -33t-28.5 -92v-41z" />
<glyph unicode="&#xe4;" horiz-adv-x="1044" d="M113 231v99q0 49 17 94t53 79t89.5 54.5t124.5 20.5h324v157q0 63 -41 101t-158 38t-160 -34.5t-43 -98.5v-16q0 -41 -38 -41h-107q-37 0 -37 41v31q0 61 21.5 112.5t67.5 87t120 56t178 20.5q109 0 182.5 -20.5t119.5 -56t65.5 -87t19.5 -112.5v-715q0 -41 -37 -41h-106 q-23 0 -30 9t-9 32l-4 59q-23 -18 -54.5 -38.5t-71.5 -38t-90 -28.5t-108 -11q-72 0 -126 20.5t-89.5 54t-54 78.5t-18.5 94zM303 260q0 -59 35 -87t113 -28q47 0 88 11.5t75.5 28t61 34t45.5 31.5v176h-283q-78 0 -106.5 -33t-28.5 -92v-41zM326 1208v195q0 39 39 39h71 q37 0 37 -39v-195q0 -39 -37 -39h-71q-39 0 -39 39zM573 1208v195q0 39 39 39h72q37 0 37 -39v-195q0 -39 -37 -39h-72q-39 0 -39 39z" />
<glyph unicode="&#xe5;" horiz-adv-x="1044" d="M113 231v99q0 49 17 94t53 79t89.5 54.5t124.5 20.5h324v157q0 63 -41 101t-158 38t-160 -34.5t-43 -98.5v-16q0 -41 -38 -41h-107q-37 0 -37 41v31q0 61 21.5 112.5t67.5 87t120 56t178 20.5q109 0 182.5 -20.5t119.5 -56t65.5 -87t19.5 -112.5v-715q0 -41 -37 -41h-106 q-23 0 -30 9t-9 32l-4 59q-23 -18 -54.5 -38.5t-71.5 -38t-90 -28.5t-108 -11q-72 0 -126 20.5t-89.5 54t-54 78.5t-18.5 94zM303 260q0 -59 35 -87t113 -28q47 0 88 11.5t75.5 28t61 34t45.5 31.5v176h-283q-78 0 -106.5 -33t-28.5 -92v-41zM332 1270v67q0 63 48 104.5 t148 41.5t148.5 -41t48.5 -105v-67q0 -63 -48 -103.5t-149 -40.5q-100 0 -148 40t-48 104zM438 1290q0 -68 90 -67q90 0 90 67v27q0 68 -90 67q-90 0 -90 -67v-27z" />
<glyph unicode="&#xe6;" horiz-adv-x="1611" d="M113 231v86q0 51 18.5 96.5t54 79t89 53t122.5 19.5h322v193q0 59 -44 95t-155 36q-117 0 -160 -36t-43 -101v-27q0 -39 -36 -39h-107q-39 0 -39 39v33q0 63 20.5 113.5t66.5 86t121 55t181 19.5q121 0 187.5 -29.5t99.5 -78.5q39 47 109.5 77.5t193.5 30.5 q109 0 182.5 -20.5t119.5 -57t66.5 -88t20.5 -114.5v-240q0 -37 -37 -37h-557v-209q0 -66 44 -100.5t161 -34.5t162 37t45 102v27q0 39 37 39h100q39 0 39 -39v-35q0 -61 -19.5 -112.5t-63.5 -88t-117.5 -57t-182.5 -20.5q-152 0 -234.5 35.5t-119.5 99.5q-25 -18 -59.5 -42 t-81 -44.5t-100.5 -34.5t-118 -14q-76 0 -130 19.5t-90 53t-52 78.5t-16 96zM303 256q0 -57 38 -88t108 -31q47 0 88 12.5t75.5 31t61 38t45.5 33.5v180h-289q-70 0 -98.5 -36t-28.5 -87v-53zM909 608h412v135q0 66 -45 104t-162 38t-161 -38t-44 -104v-135z" />
<glyph unicode="&#xe7;" horiz-adv-x="993" d="M123 264v488q0 63 20.5 114.5t67.5 88t122 57t183 20.5q109 0 183.5 -20.5t120.5 -57t66.5 -88t20.5 -114.5v-37q0 -39 -37 -39h-110q-39 0 -39 39v22q0 66 -43 100.5t-160 34.5q-115 0 -158 -35.5t-43 -99.5v-458q0 -66 43 -101t158 -35q117 0 160 35t43 101v40 q0 39 39 39h110q37 0 37 -39v-55q0 -63 -20.5 -114.5t-67.5 -88t-121.5 -57t-183.5 -20.5h-6l-25 -90h70q72 0 123 -38t51 -124t-51 -125t-123 -39h-231q-39 0 -39 39v41q0 37 39 37h202q23 0 44.5 7t21.5 40t-21.5 39t-44.5 6h-135q-37 0 -48 12t-5 37l43 168 q-139 23 -197.5 94.5t-58.5 175.5z" />
<glyph unicode="&#xe8;" horiz-adv-x="1013" d="M123 264v488q0 63 20.5 114.5t67.5 88t123 57t184 20.5q109 0 182.5 -20.5t119.5 -57t65.5 -88t19.5 -114.5v-250q0 -37 -35 -37h-557v-189q0 -63 41 -100t164 -37t164 37t41 100v23q0 39 39 39h104q39 0 39 -39v-35q0 -63 -20.5 -114.5t-66.5 -88t-120.5 -57 t-183.5 -20.5t-183.5 20.5t-120.5 57t-66.5 88t-20.5 114.5zM270.5 1438.5q3.5 11.5 26.5 11.5h127q23 0 33 -10t20 -27l121 -219q20 -37 -18 -37h-97q-20 0 -31.5 8.5t-17.5 16.5l-155 229q-12 16 -8.5 27.5zM313 610h410v129q0 61 -44 99.5t-161 38.5t-161 -38t-44 -100 v-129z" />
<glyph unicode="&#xe9;" horiz-adv-x="1013" d="M123 264v488q0 63 20.5 114.5t67.5 88t123 57t184 20.5q109 0 182.5 -20.5t119.5 -57t65.5 -88t19.5 -114.5v-250q0 -37 -35 -37h-557v-189q0 -63 41 -100t164 -37t164 37t41 100v23q0 39 39 39h104q39 0 39 -39v-35q0 -63 -20.5 -114.5t-66.5 -88t-120.5 -57 t-183.5 -20.5t-183.5 20.5t-120.5 57t-66.5 88t-20.5 114.5zM313 610h410v129q0 61 -44 99.5t-161 38.5t-161 -38t-44 -100v-129zM420 1194l121 219q10 16 21 26.5t32 10.5h127q23 0 27 -11.5t-9 -27.5l-155 -229q-4 -8 -16.5 -16.5t-32.5 -8.5h-95q-41 0 -20 37z" />
<glyph unicode="&#xea;" horiz-adv-x="1013" d="M123 264v488q0 63 20.5 114.5t67.5 88t123 57t184 20.5q109 0 182.5 -20.5t119.5 -57t65.5 -88t19.5 -114.5v-250q0 -37 -35 -37h-557v-189q0 -63 41 -100t164 -37t164 37t41 100v23q0 39 39 39h104q39 0 39 -39v-35q0 -63 -20.5 -114.5t-66.5 -88t-120.5 -57 t-183.5 -20.5t-183.5 20.5t-120.5 57t-66.5 88t-20.5 114.5zM261.5 1167.5q-5.5 10.5 4.5 26.5l154 217q12 16 25.5 27.5t35.5 11.5h72q20 0 34.5 -11.5t26.5 -27.5l154 -217q10 -16 5 -26.5t-25 -10.5h-93q-20 0 -31.5 10.5t-21.5 26.5l-84 137l-86 -137 q-8 -12 -20.5 -24.5t-32.5 -12.5h-92q-20 0 -25.5 10.5zM313 610h410v129q0 61 -44 99.5t-161 38.5t-161 -38t-44 -100v-129z" />
<glyph unicode="&#xeb;" horiz-adv-x="1013" d="M123 264v488q0 63 20.5 114.5t67.5 88t123 57t184 20.5q109 0 182.5 -20.5t119.5 -57t65.5 -88t19.5 -114.5v-250q0 -37 -35 -37h-557v-189q0 -63 41 -100t164 -37t164 37t41 100v23q0 39 39 39h104q39 0 39 -39v-35q0 -63 -20.5 -114.5t-66.5 -88t-120.5 -57 t-183.5 -20.5t-183.5 20.5t-120.5 57t-66.5 88t-20.5 114.5zM313 610h410v129q0 61 -44 99.5t-161 38.5t-161 -38t-44 -100v-129zM317 1208v195q0 39 39 39h72q37 0 37 -39v-195q0 -39 -37 -39h-72q-39 0 -39 39zM565 1208v195q0 39 39 39h72q37 0 37 -39v-195 q0 -39 -37 -39h-72q-39 0 -39 39z" />
<glyph unicode="&#xec;" horiz-adv-x="485" d="M-16 1438.5q4 11.5 26 11.5h127q23 0 33 -10t20 -27l121 -219q20 -37 -18 -37h-96q-20 0 -31.5 8.5t-18.5 16.5l-155 229q-12 16 -8 27.5zM145 39v936q0 41 37 41h121q37 0 37 -41v-936q0 -39 -37 -39h-121q-37 0 -37 39z" />
<glyph unicode="&#xed;" horiz-adv-x="485" d="M145 39v936q0 41 37 41h121q37 0 37 -41v-936q0 -39 -37 -39h-121q-37 0 -37 39zM166 1194l121 219q10 16 21 26.5t32 10.5h127q23 0 27 -11.5t-9 -27.5l-155 -229q-4 -8 -16.5 -16.5t-32.5 -8.5h-95q-41 0 -20 37z" />
<glyph unicode="&#xee;" horiz-adv-x="485" d="M-9 1167.5q-5 10.5 5 26.5l154 217q12 16 25 27.5t36 11.5h72q20 0 34.5 -11.5t26.5 -27.5l154 -217q10 -16 5 -26.5t-26 -10.5h-92q-20 0 -31.5 10.5t-21.5 26.5l-84 137l-86 -137q-8 -12 -20.5 -24.5t-32.5 -12.5h-93q-20 0 -25 10.5zM145 39v936q0 41 37 41h121 q37 0 37 -41v-936q0 -39 -37 -39h-121q-37 0 -37 39z" />
<glyph unicode="&#xef;" horiz-adv-x="485" d="M47 1208v195q0 39 39 39h72q37 0 37 -39v-195q0 -39 -37 -39h-72q-39 0 -39 39zM145 39v936q0 41 37 41h121q37 0 37 -41v-936q0 -39 -37 -39h-121q-37 0 -37 39zM295 1208v195q0 39 39 39h72q37 0 36 -39v-195q0 -39 -36 -39h-72q-39 0 -39 39z" />
<glyph unicode="&#xf0;" horiz-adv-x="1148" d="M123 262v492q0 127 69.5 202.5t221.5 75.5q61 0 112.5 -12t93.5 -29.5t73.5 -38t54.5 -39.5v220q0 25 -13 47l-117 -52q-16 -8 -28 -6t-23 21l-14 22q-10 14 -5 28.5t21 23.5l127 57q-23 18 -61.5 28.5t-97.5 10.5h-191q-39 0 -39 39v59q0 39 39 39h191 q117 0 193.5 -23.5t121.5 -64.5l98 49q35 18 54 -14l14 -25q16 -31 -17 -49l-90 -45q20 -43 21 -107v-909q0 -61 -21.5 -112.5t-69.5 -88t-124 -57t-185 -20.5q-217 0 -313 76.5t-96 201.5zM317 279q0 -68 49.5 -104t165.5 -36q117 0 166.5 36t49.5 104v477q-16 12 -44 30.5 t-63 36t-78 28.5t-92 11q-90 0 -122 -41t-32 -94v-448z" />
<glyph unicode="&#xf1;" horiz-adv-x="1097" d="M145 41v936q0 39 39 39h109q23 0 30 -9.5t9 -29.5l4 -66q20 18 53 40t75 39.5t95 29.5t117 12q143 0 216 -73.5t73 -188.5v-729q0 -41 -37 -41h-119q-39 0 -39 41v682q0 63 -32.5 99t-119.5 36q-49 0 -92 -11t-78.5 -27.5t-63.5 -35t-44 -30.5v-713q0 -41 -37 -41h-119 q-39 0 -39 41zM225 1217l4 65q4 86 52.5 125t109.5 39q31 0 63.5 -8t57.5 -25l88 -53q23 -12 44.5 -25.5t37.5 -13.5q27 0 33 17.5t6 60.5v14q0 20 12 27.5t31 7.5h63q37 0 33 -45l-4 -66q-4 -86 -53 -124.5t-111 -38.5q-23 0 -56.5 8t-62.5 24l-88 54q-23 12 -44.5 25 t-37.5 13q-29 0 -33.5 -17t-4.5 -60v-15q0 -23 -10.5 -29t-30.5 -6h-66q-37 0 -33 46z" />
<glyph unicode="&#xf2;" horiz-adv-x="1064" d="M123 264v488q0 127 96 203.5t313 76.5t313.5 -76.5t96.5 -203.5v-488q0 -127 -96 -203.5t-314 -76.5q-217 0 -313 76.5t-96 203.5zM285 1438.5q4 11.5 26 11.5h127q23 0 33 -10t21 -27l120 -219q20 -37 -18 -37h-96q-20 0 -31.5 8.5t-17.5 16.5l-156 229q-12 16 -8 27.5z M317 281q0 -66 49.5 -102t165.5 -36q117 0 166.5 36t49.5 102v454q0 66 -49.5 101.5t-166.5 35.5t-166 -35.5t-49 -101.5v-454z" />
<glyph unicode="&#xf3;" horiz-adv-x="1064" d="M123 264v488q0 127 96 203.5t313 76.5t313.5 -76.5t96.5 -203.5v-488q0 -127 -96 -203.5t-314 -76.5q-217 0 -313 76.5t-96 203.5zM317 281q0 -66 49.5 -102t165.5 -36q117 0 166.5 36t49.5 102v454q0 66 -49.5 101.5t-166.5 35.5t-166 -35.5t-49 -101.5v-454zM451 1194 l120 219q10 16 21.5 26.5t32.5 10.5h127q23 0 26.5 -11.5t-8.5 -27.5l-156 -229q-4 -8 -16 -16.5t-33 -8.5h-94q-41 0 -20 37z" />
<glyph unicode="&#xf4;" horiz-adv-x="1064" d="M123 264v488q0 127 96 203.5t313 76.5t313.5 -76.5t96.5 -203.5v-488q0 -127 -96 -203.5t-314 -76.5q-217 0 -313 76.5t-96 203.5zM279.5 1167.5q-5.5 10.5 5.5 26.5l153 217q12 16 25.5 27.5t36.5 11.5h71q20 0 35 -11.5t27 -27.5l153 -217q10 -16 5 -26.5t-25 -10.5 h-92q-20 0 -31.5 10.5t-21.5 26.5l-84 137l-86 -137q-8 -12 -20.5 -24.5t-33.5 -12.5h-92q-20 0 -25.5 10.5zM317 281q0 -66 49.5 -102t165.5 -36q117 0 166.5 36t49.5 102v454q0 66 -49.5 101.5t-166.5 35.5t-166 -35.5t-49 -101.5v-454z" />
<glyph unicode="&#xf5;" horiz-adv-x="1064" d="M123 264v488q0 127 96 203.5t313 76.5t313.5 -76.5t96.5 -203.5v-488q0 -127 -96 -203.5t-314 -76.5q-217 0 -313 76.5t-96 203.5zM217 1204l4 66q4 86 52.5 125t109.5 39q31 0 63.5 -8.5t57.5 -24.5l88 -53q23 -12 44 -25.5t38 -13.5q27 0 33 17t6 60v15q0 20 12 27.5 t31 7.5h63q37 0 33 -45l-4 -66q-4 -86 -53.5 -125t-110.5 -39q-23 0 -56.5 8.5t-62.5 24.5l-88 53q-23 12 -44.5 25.5t-37.5 13.5q-29 0 -34 -17.5t-5 -60.5v-14q0 -23 -10 -29t-31 -6h-65q-37 0 -33 45zM317 281q0 -66 49.5 -102t165.5 -36q117 0 166.5 36t49.5 102v454 q0 66 -49.5 101.5t-166.5 35.5t-166 -35.5t-49 -101.5v-454z" />
<glyph unicode="&#xf6;" horiz-adv-x="1064" d="M123 264v488q0 127 96 203.5t313 76.5t313.5 -76.5t96.5 -203.5v-488q0 -127 -96 -203.5t-314 -76.5q-217 0 -313 76.5t-96 203.5zM317 281q0 -66 49.5 -102t165.5 -36q117 0 166.5 36t49.5 102v454q0 66 -49.5 101.5t-166.5 35.5t-166 -35.5t-49 -101.5v-454zM336 1208 v195q0 39 39 39h71q37 0 37 -39v-195q0 -39 -37 -39h-71q-39 0 -39 39zM584 1208v195q0 39 39 39h71q37 0 37 -39v-195q0 -39 -37 -39h-71q-39 0 -39 39z" />
<glyph unicode="&#xf7;" horiz-adv-x="1198" d="M145 592v88q0 23 8.5 30t28.5 7h832q18 0 28.5 -7.5t10.5 -29.5v-88q0 -39 -39 -39h-830q-39 0 -39 39zM500 205v164q0 39 39 39h123q37 0 36 -39v-164q0 -39 -36 -39h-123q-39 0 -39 39zM500 909v164q0 39 39 39h123q37 0 36 -39v-164q0 -39 -36 -39h-123q-39 0 -39 39z " />
<glyph unicode="&#xf8;" horiz-adv-x="1064" d="M123 264v488q0 127 96 203.5t313 76.5q127 0 218 -28l10 18q12 23 24.5 42t40.5 19h41q29 0 24 -18t-20 -43l-34 -61q106 -72 106 -209v-488q0 -127 -96 -203.5t-314 -76.5q-68 0 -122 8t-99 22l-8 -16q-16 -33 -26.5 -47t-43.5 -14h-34q-27 0 -22 21.5t16 39.5l32 57 q-53 37 -77.5 90.5t-24.5 118.5zM317 281q0 -12 1 -24.5t6 -23.5l342 619q-47 20 -134 20q-117 0 -166 -35.5t-49 -101.5v-454zM395 164q47 -20 137 -21q117 0 166.5 36t49.5 102v454q0 31 -9 49z" />
<glyph unicode="&#xf9;" horiz-adv-x="1085" d="M133 244v731q0 41 37 41h119q39 0 39 -41v-682q0 -66 32.5 -100.5t118.5 -34.5q49 0 90 11t75 26.5t59.5 34t41.5 30.5v715q0 41 37 41h121q37 0 37 -41v-936q0 -39 -37 -39h-110q-23 0 -30 8t-9 31l-4 61q-20 -18 -51 -38.5t-71 -38t-91.5 -28.5t-114.5 -11 q-141 0 -215 72.5t-74 187.5zM297 1438.5q4 11.5 27 11.5h127q23 0 33 -10t20 -27l121 -219q20 -37 -19 -37h-96q-20 0 -31.5 8.5t-17.5 16.5l-156 229q-12 16 -8 27.5z" />
<glyph unicode="&#xfa;" horiz-adv-x="1085" d="M133 244v731q0 41 37 41h119q39 0 39 -41v-682q0 -66 32.5 -100.5t118.5 -34.5q49 0 90 11t75 26.5t59.5 34t41.5 30.5v715q0 41 37 41h121q37 0 37 -41v-936q0 -39 -37 -39h-110q-23 0 -30 8t-9 31l-4 61q-20 -18 -51 -38.5t-71 -38t-91.5 -28.5t-114.5 -11 q-141 0 -215 72.5t-74 187.5zM453 1194l120 219q10 16 21.5 26.5t32.5 10.5h127q23 0 26.5 -11.5t-8.5 -27.5l-156 -229q-4 -8 -16 -16.5t-33 -8.5h-94q-41 0 -20 37z" />
<glyph unicode="&#xfb;" horiz-adv-x="1085" d="M133 244v731q0 41 37 41h119q39 0 39 -41v-682q0 -66 32.5 -100.5t118.5 -34.5q49 0 90 11t75 26.5t59.5 34t41.5 30.5v715q0 41 37 41h121q37 0 37 -41v-936q0 -39 -37 -39h-110q-23 0 -30 8t-9 31l-4 61q-20 -18 -51 -38.5t-71 -38t-91.5 -28.5t-114.5 -11 q-141 0 -215 72.5t-74 187.5zM271.5 1167.5q-5.5 10.5 4.5 26.5l154 217q12 16 25.5 27.5t36.5 11.5h71q20 0 34.5 -11.5t27.5 -27.5l153 -217q10 -16 5 -26.5t-25 -10.5h-92q-20 0 -31.5 10.5t-22.5 26.5l-84 137l-86 -137q-8 -12 -20 -24.5t-33 -12.5h-92 q-20 0 -25.5 10.5z" />
<glyph unicode="&#xfc;" horiz-adv-x="1085" d="M133 244v731q0 41 37 41h119q39 0 39 -41v-682q0 -66 32.5 -100.5t118.5 -34.5q49 0 90 11t75 26.5t59.5 34t41.5 30.5v715q0 41 37 41h121q37 0 37 -41v-936q0 -39 -37 -39h-110q-23 0 -30 8t-9 31l-4 61q-20 -18 -51 -38.5t-71 -38t-91.5 -28.5t-114.5 -11 q-141 0 -215 72.5t-74 187.5zM340 1208v195q0 39 39 39h72q37 0 36 -39v-195q0 -39 -36 -39h-72q-39 0 -39 39zM588 1208v195q0 39 39 39h71q37 0 37 -39v-195q0 -39 -37 -39h-71q-39 0 -39 39z" />
<glyph unicode="&#xfd;" horiz-adv-x="921" d="M31 975q-6 20 4 30.5t31 10.5h120q20 0 29.5 -11.5t15.5 -29.5l199 -592q14 -43 21.5 -89t9.5 -52q0 4 4 18t8 33.5t11.5 42t13.5 43.5l202 596q6 20 15.5 30.5t29.5 10.5h111q20 0 30.5 -10.5t4.5 -30.5l-463 -1354q-4 -16 -13 -27.5t-30 -11.5h-88q-23 0 -33 9.5 t-4 29.5l115 363zM391 1194l121 219q10 16 21.5 26.5t31.5 10.5h127q23 0 27 -11.5t-8 -27.5l-156 -229q-4 -8 -16.5 -16.5t-32.5 -8.5h-94q-41 0 -21 37z" />
<glyph unicode="&#xfe;" horiz-adv-x="1087" d="M145 -379v1772q0 39 37 39h119q39 0 39 -39v-480q20 18 52 39t74 38.5t94 29.5t114 12q152 0 221.5 -75.5t69.5 -202.5v-494q0 -125 -70 -200.5t-221 -75.5q-61 0 -113.5 11t-93.5 28.5t-74 38t-53 36.5v-477q0 -39 -37 -39h-121q-37 0 -37 39zM340 258q16 -12 43 -30.5 t62.5 -35t78.5 -28.5t92 -12q90 0 122 40.5t32 96.5v438q0 53 -31.5 94t-122.5 41q-49 0 -92 -11t-78.5 -28.5t-62.5 -36t-43 -30.5v-498z" />
<glyph unicode="&#xff;" horiz-adv-x="921" d="M31 975q-6 20 4 30.5t31 10.5h120q20 0 29.5 -11.5t15.5 -29.5l199 -592q14 -43 21.5 -89t9.5 -52q0 4 4 18t8 33.5t11.5 42t13.5 43.5l202 596q6 20 15.5 30.5t29.5 10.5h111q20 0 30.5 -10.5t4.5 -30.5l-463 -1354q-4 -16 -13 -27.5t-30 -11.5h-88q-23 0 -33 9.5 t-4 29.5l115 363zM270 1208v195q0 39 39 39h72q37 0 37 -39v-195q0 -39 -37 -39h-72q-39 0 -39 39zM518 1208v195q0 39 39 39h72q37 0 37 -39v-195q0 -39 -37 -39h-72q-39 0 -39 39z" />
<glyph unicode="&#x152;" horiz-adv-x="1771" d="M145 297v799q0 63 24 119.5t77 99.5t142 68.5t222 25.5q86 0 151.5 -17.5t115.5 -45.5v8q0 39 38 39h699q39 0 39 -37v-90q0 -39 -39 -39h-537v-420h502q39 0 39 -37v-86q0 -37 -39 -37h-502v-481h561q39 0 39 -37v-90q0 -39 -39 -39h-725q-37 0 -36 39v8 q-49 -29 -115 -46t-152 -17q-133 0 -222 25.5t-142 68.5t-77 100.5t-24 118.5zM346 330q0 -86 62.5 -133t201.5 -47q135 0 198.5 45t68.5 127v741q0 86 -63.5 133t-203.5 47q-139 0 -201.5 -47t-62.5 -133v-733z" />
<glyph unicode="&#x153;" horiz-adv-x="1640" d="M123 262v490q0 127 96 203.5t313 76.5q113 0 186 -21.5t113 -60.5q47 39 123 60.5t189 21.5q109 0 182.5 -20.5t119.5 -57t66.5 -88t20.5 -114.5v-240q0 -37 -37 -37h-557v-205q0 -66 44 -102.5t161 -36.5t162 37t45 102v27q0 39 36 39h101q39 0 39 -39v-35 q0 -61 -19.5 -112.5t-63.5 -88t-118 -57t-182 -20.5q-113 0 -188.5 20.5t-123.5 61.5q-41 -41 -113.5 -61.5t-185.5 -20.5q-217 0 -313 76.5t-96 201.5zM317 279q0 -68 49.5 -104t165.5 -36q117 0 166.5 36t49.5 104v458q0 66 -49.5 103t-166.5 37t-166 -37t-49 -103v-458z M938 608h412v135q0 66 -45 104t-162 38t-161 -38t-44 -104v-135z" />
<glyph unicode="&#x178;" horiz-adv-x="1083" d="M35 1382.5q8 10.5 31 10.5h141q20 0 28.5 -10.5t18.5 -28.5l256 -541q10 -23 20.5 -54.5l12.5 -37.5q0 2 3 12t8 24.5t10 30t11 25.5l273 541q8 16 17 27.5t28 11.5h125q20 0 28.5 -9.5t-2.5 -29.5l-401 -801v-514q0 -39 -37 -39h-125q-39 0 -39 39v491l-405 824 q-10 18 -2 28.5zM344 1552v195q0 41 37 41h72q23 0 29.5 -9.5t6.5 -31.5v-195q0 -23 -7 -31t-29 -8h-72q-37 0 -37 39zM592 1552v195q0 41 37 41h71q37 0 37 -41v-195q0 -39 -37 -39h-71q-37 0 -37 39z" />
<glyph unicode="&#x2c6;" horiz-adv-x="716" d="M101.5 1167.5q-5.5 10.5 4.5 26.5l154 217q12 16 25.5 27.5t36.5 11.5h71q20 0 34.5 -11.5t27.5 -27.5l153 -217q10 -16 5 -26.5t-25 -10.5h-92q-20 0 -31.5 10.5t-22.5 26.5l-84 137l-86 -137q-8 -12 -20 -24.5t-33 -12.5h-92q-20 0 -25.5 10.5z" />
<glyph unicode="&#x2dc;" horiz-adv-x="851" d="M106 1204l5 66q4 86 52 125t109 39q31 0 64 -8.5t57 -24.5l88 -53q23 -12 44.5 -25.5t37.5 -13.5q27 0 33 17t6 60v15q0 20 12.5 27.5t30.5 7.5h64q37 0 32 -45l-4 -66q-4 -86 -53 -125t-111 -39q-23 0 -56.5 8.5t-61.5 24.5l-88 53q-23 12 -44.5 25.5t-37.5 13.5 q-29 0 -34 -17.5t-5 -60.5v-14q0 -23 -10.5 -29t-30.5 -6h-66q-37 0 -33 45z" />
<glyph unicode="&#x2000;" horiz-adv-x="912" />
<glyph unicode="&#x2001;" horiz-adv-x="1825" />
<glyph unicode="&#x2002;" horiz-adv-x="912" />
<glyph unicode="&#x2003;" horiz-adv-x="1825" />
<glyph unicode="&#x2004;" horiz-adv-x="608" />
<glyph unicode="&#x2005;" horiz-adv-x="456" />
<glyph unicode="&#x2006;" horiz-adv-x="304" />
<glyph unicode="&#x2007;" horiz-adv-x="304" />
<glyph unicode="&#x2008;" horiz-adv-x="228" />
<glyph unicode="&#x2009;" horiz-adv-x="365" />
<glyph unicode="&#x200a;" horiz-adv-x="101" />
<glyph unicode="&#x2010;" horiz-adv-x="917" d="M145 549v86q0 37 39 37h549q39 0 39 -37v-86q0 -37 -39 -37h-549q-39 0 -39 37z" />
<glyph unicode="&#x2011;" horiz-adv-x="917" d="M145 549v86q0 37 39 37h549q39 0 39 -37v-86q0 -37 -39 -37h-549q-39 0 -39 37z" />
<glyph unicode="&#x2012;" horiz-adv-x="917" d="M145 549v86q0 37 39 37h549q39 0 39 -37v-86q0 -37 -39 -37h-549q-39 0 -39 37z" />
<glyph unicode="&#x2013;" horiz-adv-x="1107" d="M145 549v86q0 37 39 37h740q39 0 39 -37v-86q0 -37 -39 -37h-740q-39 0 -39 37z" />
<glyph unicode="&#x2014;" horiz-adv-x="1740" d="M145 549v86q0 37 39 37h1372q39 0 39 -37v-86q0 -37 -39 -37h-1372q-39 0 -39 37z" />
<glyph unicode="&#x2018;" horiz-adv-x="475" d="M119 1100v141q0 205 243 272q18 4 29.5 0t20.5 -24l28 -84q14 -37 -24 -49q-57 -23 -78 -52.5t-21 -72.5v-131q0 -39 -36 -39h-125q-37 0 -37 39z" />
<glyph unicode="&#x2019;" horiz-adv-x="475" d="M35 1169q-14 37 24 50q57 23 78 52t21 72v132q0 39 37 38h124q37 0 37 -38v-142q0 -205 -243 -272q-18 -4 -29.5 0t-20.5 24z" />
<glyph unicode="&#x201a;" horiz-adv-x="475" d="M35 -102q-14 37 24 49q57 23 78 52.5t21 72.5v131q0 39 37 39h124q37 0 37 -39v-142q0 -205 -243 -272q-18 -4 -29.5 0t-20.5 25z" />
<glyph unicode="&#x201c;" horiz-adv-x="849" d="M119 1100v141q0 205 243 272q18 4 29.5 0t20.5 -24l28 -84q14 -37 -24 -49q-57 -23 -78 -52.5t-21 -72.5v-131q0 -39 -36 -39h-125q-37 0 -37 39zM494 1100v141q0 205 243 272q18 4 29.5 0t19.5 -24l29 -84q14 -37 -24 -49q-57 -23 -78 -52.5t-21 -72.5v-131 q0 -39 -37 -39h-125q-37 0 -36 39z" />
<glyph unicode="&#x201d;" horiz-adv-x="849" d="M35 1169q-14 37 24 50q57 23 78 52t21 72v132q0 39 37 38h124q37 0 37 -38v-142q0 -205 -243 -272q-18 -4 -29.5 0t-20.5 24zM410 1169q-14 37 24 50q57 23 77.5 52t20.5 72v132q0 39 37 38h125q37 0 37 -38v-142q0 -205 -244 -272q-18 -4 -29.5 0t-19.5 24z" />
<glyph unicode="&#x201e;" horiz-adv-x="849" d="M35 -102q-14 37 24 49q57 23 78 52.5t21 72.5v131q0 39 37 39h124q37 0 37 -39v-142q0 -205 -243 -272q-18 -4 -29.5 0t-20.5 25zM410 -102q-14 37 24 49q57 23 77.5 52.5t20.5 72.5v131q0 39 37 39h125q37 0 37 -39v-142q0 -205 -244 -272q-18 -4 -29.5 0t-19.5 25z" />
<glyph unicode="&#x2022;" horiz-adv-x="532" d="M168 406v280q0 39 39 39h123q37 0 37 -39v-280q0 -39 -37 -39h-123q-39 0 -39 39z" />
<glyph unicode="&#x2026;" horiz-adv-x="1490" d="M139 39v164q0 39 39 39h123q37 0 37 -39v-164q0 -39 -37 -39h-123q-39 0 -39 39zM647 39v164q0 39 39 39h123q37 0 37 -39v-164q0 -39 -37 -39h-123q-39 0 -39 39zM1153 39v164q0 39 39 39h123q37 0 37 -39v-164q0 -39 -37 -39h-123q-39 0 -39 39z" />
<glyph unicode="&#x202f;" horiz-adv-x="365" />
<glyph unicode="&#x2039;" horiz-adv-x="737" d="M143 442v121q0 18 11.5 29.5t23.5 21.5l377 281q14 10 26.5 5t12.5 -28v-122q0 -23 -11.5 -35.5t-27.5 -24.5l-258 -188l258 -187q16 -10 27.5 -24.5t11.5 -34.5v-123q0 -23 -12.5 -28t-26.5 6l-377 278q-12 10 -23.5 21.5t-11.5 31.5z" />
<glyph unicode="&#x203a;" horiz-adv-x="737" d="M143 133v123q0 20 11.5 34.5t27.5 24.5l258 187l-258 188q-16 12 -27.5 24.5t-11.5 35.5v122q0 23 12.5 28t26.5 -5l377 -281q12 -10 23.5 -21t11.5 -30v-121q0 -20 -11.5 -31.5t-23.5 -21.5l-377 -278q-14 -10 -26.5 -5t-12.5 27z" />
<glyph unicode="&#x205f;" horiz-adv-x="456" />
<glyph unicode="&#x20ac;" horiz-adv-x="1337" d="M156 539v51q0 37 39 37h81v137h-81q-39 0 -39 39v51q0 37 39 37h81v203q0 63 21.5 120.5t73 100.5t138.5 68.5t220 25.5q131 0 219 -25.5t139.5 -68.5t73 -100.5t21.5 -120.5v-101q0 -41 -37 -41h-119q-39 0 -39 41v68q0 84 -58.5 131t-197.5 47t-196.5 -47t-57.5 -131 v-170h271q39 0 38 -37v-51q0 -39 -38 -39h-271v-137h271q39 0 38 -37v-51q0 -39 -38 -39h-271v-168q0 -84 57.5 -131t196.5 -47t197.5 47t58.5 131v96q0 39 39 39h119q37 0 37 -39v-129q0 -63 -21.5 -120.5t-73 -100.5t-139.5 -68.5t-219 -25.5q-133 0 -220 25.5 t-138.5 68.5t-73 100.5t-21.5 120.5v201h-81q-39 0 -39 39z" />
<glyph unicode="&#x2122;" horiz-adv-x="1853" d="M168 1286v76q0 31 33 31h557q33 0 33 -31v-76q0 -18 -7.5 -24.5t-25.5 -6.5h-195v-665q0 -33 -31 -33h-104q-33 0 -33 33v665h-194q-18 0 -25.5 6.5t-7.5 24.5zM887 590v770q0 33 33 33h92q20 0 26 -15l222 -450q10 -20 17 -40t9 -24q0 2 7 20.5t18 39.5l217 454 q6 14 31 15h96q33 0 33 -33v-770q0 -33 -33 -33h-96q-33 0 -33 33v493q-2 -4 -7.5 -21.5t-11.5 -33.5l-141 -313q-14 -31 -43 -31h-72q-29 0 -43 31l-147 317q-8 16 -12.5 33.5t-6.5 24.5v-500q0 -33 -30 -33h-92q-33 0 -33 33z" />
<glyph unicode="&#xe000;" horiz-adv-x="1013" d="M0 0v1014h1014v-1014h-1014z" />
</font>
</defs>
</svg>
