<svg version="1.1" xmlns="http://www.w3.org/2000/svg" xmlns:xlink="http://www.w3.org/1999/xlink" width="256px" height="256px" viewBox="0 0 256 256">
	<style>
		circle {
			stroke: #FFFFFF;
			stroke-width: 13px;
		}
	</style>
	<defs>
		<g id="bioLab">
			<circle cx="123.7" cy="122.781" r="115.125"/>
			<path fill="#FFFFFF" d="M174.622,157.393c-11.703-18.71-28.05-44.486-36.583-57.92V72.17h22.366V55.625H86.26V72.17h22.366v26.895 c-8.46,13.318-25.022,39.432-36.841,58.327c-4.399,7.033-7.693,18.051-4.525,25.623c1.577,3.769,4.546,6.314,8.361,7.165 l0.791,0.176h41.057h11.468h41.057l0.791-0.176c3.815-0.851,6.784-3.396,8.361-7.165 C182.314,175.445,179.021,164.426,174.622,157.393z M128.937,175.65h-11.468H80.694c0.118-2.412,1.129-6.573,3.559-10.459 c12.914-20.645,31.504-49.929,38.95-61.644c7.446,11.715,26.036,40.999,38.951,61.644c2.43,3.886,3.44,8.047,3.558,10.459H128.937 z"/>
		</g>
		<g id="techPlant">
			<circle cx="123.7" cy="122.781" r="115.125"/>
			<path fill="#FFFFFF" d="M168.104,63.261c-12.131,0-22.268,8.679-24.538,20.153h-40.089V64.335H56.487v47.886h46.989V93.143h40.089 c2.27,11.474,12.409,20.153,24.538,20.153c13.795,0,25.017-11.222,25.017-25.017S181.899,63.261,168.104,63.261z M93.747,102.493 H66.216V74.064h27.531V102.493z M168.104,103.567c-8.43,0-15.288-6.858-15.288-15.288s6.858-15.288,15.288-15.288 c8.43,0,15.288,6.858,15.288,15.288S176.534,103.567,168.104,103.567z"/>
			<path fill="#FFFFFF" d="M168.104,131.463c-12.131,0-22.268,8.679-24.538,20.153h-38.994c-2.27-11.474-12.409-20.153-24.538-20.153 c-13.795,0-25.017,11.222-25.017,25.017s11.222,25.017,25.017,25.017c12.131,0,22.268-8.679,24.538-20.153h38.994 c2.27,11.474,12.409,20.153,24.538,20.153c13.795,0,25.017-11.222,25.017-25.017S181.899,131.463,168.104,131.463z M80.032,171.768c-8.43,0-15.288-6.858-15.288-15.288s6.858-15.288,15.288-15.288S95.32,148.05,95.32,156.48 S88.462,171.768,80.032,171.768z M168.104,171.768c-8.43,0-15.288-6.858-15.288-15.288s6.858-15.288,15.288-15.288 c8.43,0,15.288,6.858,15.288,15.288S176.534,171.768,168.104,171.768z"/>
		</g>
		<g id="ampStation">
			<circle cx="123.7" cy="122.781" r="115.125"/>
			<polygon fill="#FFFFFF" points="132.627,41.156 78.138,131.742 121.927,136.529 96.784,204.406 169.262,113.495 124.362,108.918"/>
		</g>
		<g id="largeOutpost">
			<circle cx="123.7" cy="122.781" r="115.125"/>
			<polygon fill="#FFFFFF" points="212.772,78.144 179.682,78.144 179.682,78.451 179.662,78.451 151.591,50.57 95.661,50.57 67.59,78.451 67.569,78.451 67.569,78.144 34.48,78.144 34.48,116.749 48.267,116.749 48.267,182.623 108.319,182.622 108.32,160.256 86.872,160.256 86.872,95.573 106.271,76.306 140.981,76.306 160.38,95.573 160.38,160.256 137.809,160.256 137.809,182.622 198.984,182.623 198.984,116.749 212.772,116.749 		"/>
		</g>
		<g id="smallOutpost">
			<circle cx="123.7" cy="122.781" r="115.125"/>
			<polygon fill="#FFFFFF" points="143.21,63.655 143.195,63.668 103.24,63.668 103.224,63.655 56.233,111.837 56.233,145.703 56.233,167.763 108.396,167.763 108.396,145.703 78.524,145.703 78.523,115.37 107.408,85.728 139.026,85.728 167.911,115.37 167.911,145.703 138.039,145.703 138.039,167.763 190.201,167.763 190.201,145.703 190.201,111.837 		"/>
		</g>
		<g id="warpgate">
			<circle cx="123.7" cy="122.781" r="115.125"/>
			<path fill="#FFFFFF" d="M160.328,71.021c0,0,44.073,46.646,31.553,72.676c-12.835-5.45-34.391-6.536-47.5-6.641 c-11.343-17.141-21.661-88.018-21.661-88.018s-10.327,70.941-21.677,88.041c-13.215,0.194-33.364,1.422-45.6,6.618 c-12.52-26.029,31.553-72.676,31.553-72.676c-34.928,14.936-73.303,71.924-37.686,96.512l-0.613-3.253 c0.206-3.531,3.155-9.237,18.077-13.521c5.542-1.591,24.589-2.879,36.966-3.574c3.993,3.06,11.125,5.106,19.286,5.106 c8.219,0,15.395-2.076,19.371-5.172c12.308,0.677,32.43,1.997,38.153,3.64c14.922,4.285,17.871,9.99,18.077,13.521l-0.613,3.253 C233.632,142.945,195.257,85.957,160.328,71.021z"/>
		</g>

	</defs>
</svg>
