<svg xmlns="http://www.w3.org/2000/svg"><defs><linearGradient id="nc-SVGID_1_" gradientUnits="userSpaceOnUse" x1="-1505.445" y1="348.339" x2="-1505.445" y2="189.631" gradientTransform="matrix(1 0 0 -1 1642 354.67)"><stop offset="0" stop-color="#2F4DA1"/><stop offset="1" stop-color="#030405"/></linearGradient><linearGradient id="nc-SVGID_2_" gradientUnits="userSpaceOnUse" x1="-1511.096" y1="343.965" x2="-1511.096" y2="138.666" gradientTransform="matrix(1 0 0 -1 1642 354.67)"><stop offset="0" stop-color="#F6EB16"/><stop offset="1" stop-color="#F8961D"/></linearGradient><linearGradient id="nc-SVGID_3_" gradientUnits="userSpaceOnUse" x1="29.674" y1="503.088" x2="29.674" y2="-33.343"><stop offset="0" stop-color="#FFC907"/><stop offset=".255" stop-color="#E89B24"/><stop offset=".832" stop-color="#AD2923"/><stop offset="1" stop-color="#9B1B1F"/></linearGradient><linearGradient id="nc-SVGID_4_" gradientUnits="userSpaceOnUse" x1="22.623" y1="411.939" x2="22.623" y2="13.575"><stop offset="0" stop-color="#FFC907"/><stop offset=".255" stop-color="#E89B24"/><stop offset=".832" stop-color="#AD2923"/><stop offset="1" stop-color="#9B1B1F"/></linearGradient><linearGradient id="nc-SVGID_5_" gradientUnits="userSpaceOnUse" x1="40.224" y1="481.272" x2="40.224" y2="102.806"><stop offset="0" stop-color="#FFC907"/><stop offset=".255" stop-color="#E89B24"/><stop offset=".832" stop-color="#AD2923"/><stop offset="1" stop-color="#9B1B1F"/></linearGradient><linearGradient id="nc-SVGID_6_" gradientUnits="userSpaceOnUse" x1="76.945" y1="689.091" x2="76.945" y2="81.861"><stop offset="0" stop-color="#FFC907"/><stop offset=".255" stop-color="#E89B24"/><stop offset=".832" stop-color="#AD2923"/><stop offset="1" stop-color="#9B1B1F"/></linearGradient><linearGradient id="nc-SVGID_7_" gradientUnits="userSpaceOnUse" x1="100.197" y1="769.776" x2="100.197" y2="66.858"><stop offset="0" stop-color="#FFC907"/><stop offset=".255" stop-color="#E89B24"/><stop offset=".832" stop-color="#AD2923"/><stop offset="1" stop-color="#9B1B1F"/></linearGradient><linearGradient id="nc-SVGID_8_" gradientUnits="userSpaceOnUse" x1="18.812" y1="332.603" x2="18.812" y2="59.63"><stop offset="0" stop-color="#FFC907"/><stop offset=".255" stop-color="#E89B24"/><stop offset=".832" stop-color="#AD2923"/><stop offset="1" stop-color="#9B1B1F"/></linearGradient><linearGradient id="nc-SVGID_9_" gradientUnits="userSpaceOnUse" x1="56.388" y1="590.266" x2="56.387" y2="93.601"><stop offset="0" stop-color="#FFC907"/><stop offset=".255" stop-color="#E89B24"/><stop offset=".832" stop-color="#AD2923"/><stop offset="1" stop-color="#9B1B1F"/></linearGradient><linearGradient id="nc-SVGID_10_" gradientUnits="userSpaceOnUse" x1="20.672" y1="307.949" x2="20.672" y2="92.691"><stop offset="0" stop-color="#FFC907"/><stop offset=".255" stop-color="#E89B24"/><stop offset=".832" stop-color="#AD2923"/><stop offset="1" stop-color="#9B1B1F"/></linearGradient><linearGradient id="nc-SVGID_11_" gradientUnits="userSpaceOnUse" x1="137.47" y1="2019.546" x2="137.47" y2="-375.533"><stop offset="0" stop-color="#FFC907"/><stop offset=".255" stop-color="#E89B24"/><stop offset=".832" stop-color="#AD2923"/><stop offset="1" stop-color="#9B1B1F"/></linearGradient><linearGradient id="nc-SVGID_12_" gradientUnits="userSpaceOnUse" x1="43.624" y1="590.067" x2="43.624" y2="-76.383"><stop offset="0" stop-color="#FFC907"/><stop offset=".255" stop-color="#E89B24"/><stop offset=".832" stop-color="#AD2923"/><stop offset="1" stop-color="#9B1B1F"/></linearGradient><linearGradient id="nc-SVGID_13_" gradientUnits="userSpaceOnUse" x1="159.934" y1="789.313" x2="159.934" y2="61.266"><stop offset="0" stop-color="#FFC907"/><stop offset=".255" stop-color="#E89B24"/><stop offset=".832" stop-color="#AD2923"/><stop offset="1" stop-color="#9B1B1F"/></linearGradient><linearGradient id="nc-SVGID_14_" gradientUnits="userSpaceOnUse" x1="28.333" y1="352.802" x2="28.333" y2="111.146"><stop offset="0" stop-color="#FFC907"/><stop offset=".255" stop-color="#E89B24"/><stop offset=".832" stop-color="#AD2923"/><stop offset="1" stop-color="#9B1B1F"/></linearGradient><linearGradient id="nc-SVGID_15_" gradientUnits="userSpaceOnUse" x1="-1531.112" y1="276.389" x2="-1531.112" y2="210.578" gradientTransform="matrix(1 0 0 -1 1642 354.67)"><stop offset="0" stop-color="#F6EB16"/><stop offset="1" stop-color="#F8961D"/></linearGradient><linearGradient id="nc-SVGID_16_" gradientUnits="userSpaceOnUse" x1="-1530.953" y1="274.334" x2="-1530.953" y2="218.431" gradientTransform="matrix(1 0 0 -1 1642 354.67)"><stop offset="0" stop-color="#F8BE15"/><stop offset=".305" stop-color="#E18F26"/><stop offset="1" stop-color="#A72022"/></linearGradient><linearGradient id="nc-SVGID_17_" gradientUnits="userSpaceOnUse" x1="-1531.112" y1="281.105" x2="-1531.112" y2="205.863" gradientTransform="matrix(1 0 0 -1 1642 354.67)"><stop offset="0" stop-color="#FFC907"/><stop offset=".255" stop-color="#E89B24"/><stop offset=".832" stop-color="#AD2923"/><stop offset="1" stop-color="#9B1B1F"/></linearGradient><radialGradient id="vs-SVGID_1_" cx="118.047" cy="-274.65" r="87.749" fx="100.268" fy="-333.265" gradientTransform="matrix(2.392 0 0 -2.392 -106.21 -394.547)" gradientUnits="userSpaceOnUse"><stop offset="0" stop-color="#E1E1E1"/><stop offset="1" stop-color="#53B949"/></radialGradient><radialGradient id="vs-SVGID_2_" cx="213.143" cy="-294.676" r="91.058" fx="236.783" fy="-382.611" gradientTransform="matrix(2.392 0 0 -2.392 -106.21 -394.547)" gradientUnits="userSpaceOnUse"><stop offset="0" stop-color="#E1E1E1"/><stop offset=".469" stop-color="#90CC87"/><stop offset=".829" stop-color="#64BC4F"/><stop offset="1" stop-color="#53B949"/></radialGradient><linearGradient id="vs-SVGID_3_" gradientUnits="userSpaceOnUse" x1="194.764" y1="-192.747" x2="194.764" y2="-218.708" gradientTransform="matrix(2.392 0 0 -2.392 -106.21 -394.547)"><stop offset="0" stop-color="#CECCCC"/><stop offset=".419" stop-color="#88C986"/><stop offset=".813" stop-color="#60BB4D"/><stop offset="1" stop-color="#53B949"/></linearGradient><linearGradient id="vs-SVGID_4_" gradientUnits="userSpaceOnUse" x1="137.591" y1="-192.704" x2="137.591" y2="-218.235" gradientTransform="matrix(2.392 0 0 -2.392 -106.21 -394.547)"><stop offset="0" stop-color="#CECCCC"/><stop offset=".412" stop-color="#88CA88"/><stop offset=".811" stop-color="#62BC4E"/><stop offset="1" stop-color="#53B949"/></linearGradient><radialGradient id="vs-SVGID_5_" cx="165.089" cy="-419.559" r="266.857" gradientTransform="matrix(2.392 0 0 -2.392 -106.21 -394.547)" gradientUnits="userSpaceOnUse"><stop offset="0" stop-color="#53B949"/><stop offset="1" stop-color="#CECCCC"/></radialGradient><radialGradient id="vs-SVGID_6_" cx="166.022" cy="-254.111" r="59.642" gradientTransform="matrix(2.392 0 0 -2.392 -106.21 -394.547)" gradientUnits="userSpaceOnUse"><stop offset="0" stop-color="#53B949"/><stop offset=".151" stop-color="#56B949"/><stop offset=".314" stop-color="#5DBA48"/><stop offset=".483" stop-color="#69BE5D"/><stop offset=".656" stop-color="#7DC57A"/><stop offset=".83" stop-color="#9FCC9F"/><stop offset="1" stop-color="#CECCCC"/></radialGradient><radialGradient id="vs-SVGID_7_" cx="166.711" cy="-267.32" r="119.293" gradientTransform="matrix(2.392 0 0 -2.392 -106.21 -394.547)" gradientUnits="userSpaceOnUse"><stop offset="0" stop-color="#5F58A6"/><stop offset="1" stop-color="#0B0C0E"/></radialGradient><radialGradient id="vs-SVGID_8_" cx="166.711" cy="-267.32" r="120.213" gradientTransform="matrix(2.392 0 0 -2.392 -106.21 -394.547)" gradientUnits="userSpaceOnUse"><stop offset="0" stop-color="#5F58A6"/><stop offset="1" stop-color="#0B0C0E"/></radialGradient><radialGradient id="vs-SVGID_9_" cx="166.022" cy="-413.272" r="139.766" gradientTransform="matrix(2.392 0 0 -2.392 -106.21 -394.547)" gradientUnits="userSpaceOnUse"><stop offset="0" stop-color="#5F58A6"/><stop offset="1" stop-color="#0B0C0E"/></radialGradient><radialGradient id="vs-SVGID_10_" cx="166.07" cy="-248.407" r="48.221" gradientTransform="matrix(2.392 0 0 -2.392 -106.21 -394.547)" gradientUnits="userSpaceOnUse"><stop offset="0" stop-color="#5F58A6"/><stop offset="1" stop-color="#0B0C0E"/></radialGradient></defs><symbol id="a_point" viewBox="0 0 214.809 214.426"><path d="M15 76.727V15h63.696V0H0v76.727zM135.347 15h64.462v61.727h15V0h-79.463zM199.81 133.378v66.048h-64.463v15h79.462v-81.048zM78.696 199.426H15v-66.048H0v81.048h78.696z"/><path fill="none" d="M17.384 46.43H197.91v137.565H17.384z"/><text transform="translate(64.608 158.27)" font-family="'GeogrotesqueMedium'" font-size="160">A</text></symbol><symbol id="aircraft_terminal" viewBox="0 0 158.721 118.481"><path d="M73.297 39.933l-26.29 19.91-15.06-14.295-13.784.51 37.847 64.314 5.035-14.794-5.36-18.634 30.885-15.06 11.487 34.97 13.528-17.102 3.83-15.826V44.782l15.824-11.996V20.534l-12.668-.964-18.73 5.813-13.637-9.132-18.1-6.328-22.288 1.742z"/><path d="M0 42.832h4.807V0h22.675v6H10.807v106.48H23.26v6H4.808V72.833H0zM158.72 42.832h-4.805V0H131.24v6h16.675v106.48H135.46v6h18.455V72.833h4.806z"/></symbol><symbol id="ammo_tower" viewBox="0 0 221.244 147.264"><path d="M52.41 141.4H0V0h141.887v73.132h-14V14h-98.52L14 27.91v99.49h38.41z"/><path d="M85.65 51.685v-27H42.345V34.7H36.05V24.686H23.937v27H36.05v-9.782h6.296v9.782zM90.542 24.685v27l26-13.5zM85.65 84.2v-27H42.345v10.017H36.05V57.2H23.937v27H36.05v-9.78h6.296v9.78zM90.542 57.2v27l26-13.5zM59.318 102.418h21.567v-13.5h-38.54v10.016h-6.294V88.918H23.937v27H36.05v-9.78h6.296v9.78h16.972zM90.542 98.61h72.268v3.808h58.434v10.044H162.81v6.89h-43.22v-3.434H99.15zM73.327 125.233l-9.613 9.613 12.417 12.418h101.744v-11.016h14.02v-6.208h-81.44v-4.807z"/></symbol><symbol id="amp_station" viewBox="0 0 243.859 243.859"><circle stroke="#FFF" stroke-width="13" stroke-miterlimit="10" cx="121.93" cy="121.93" r="115.43"/><path fill="#FFF" d="M130.857 40.304l-54.49 90.586 43.79 4.787-25.143 67.877 72.478-90.91-44.9-4.578z"/></symbol><symbol id="b_point" viewBox="0 0 214.809 214.426"><path d="M15 76.727V15h63.696V0H0v76.727zM135.347 15h64.462v61.727h15V0h-79.463zM199.81 133.378v66.048h-64.463v15h79.462v-81.048zM78.696 199.426H15v-66.048H0v81.048h78.696z"/><path fill="none" d="M17.384 46.43H197.91v137.565H17.384z"/><text transform="translate(60.688 158.27)" font-family="'GeogrotesqueMedium'" font-size="160">B</text></symbol><symbol id="bio_lab" viewBox="0 0 243.859 243.859"><circle stroke="#FFF" stroke-width="13" stroke-miterlimit="10" cx="121.93" cy="121.93" r="115.43"/><path fill="#FFF" d="M172.852 156.54c-11.703-18.71-28.05-44.486-36.583-57.92V71.318h22.365V54.773H84.49v16.545h22.365v26.895c-8.46 13.318-25.022 39.432-36.84 58.327-4.4 7.033-7.694 18.05-4.526 25.623 1.576 3.77 4.545 6.314 8.36 7.165l.79.176h93.583l.79-.176c3.816-.85 6.785-3.396 8.362-7.165 3.17-7.57-.124-18.59-4.523-25.623zm-45.685 18.258H78.922c.118-2.412 1.13-6.573 3.56-10.46 12.913-20.644 31.503-49.928 38.95-61.643 7.445 11.715 26.035 41 38.95 61.644 2.43 3.885 3.44 8.046 3.558 10.458h-36.773z"/></symbol><symbol id="c_point" viewBox="0 0 214.809 214.426"><path d="M15 76.727V15h63.696V0H0v76.727zM135.347 15h64.462v61.727h15V0h-79.463zM199.81 133.378v66.048h-64.463v15h79.462v-81.048zM78.696 199.426H15v-66.048H0v81.048h78.696z"/><path fill="none" d="M17.384 46.43H197.91v137.565H17.384z"/><text transform="translate(62.928 158.27)" font-family="'GeogrotesqueMedium'" font-size="160">C</text></symbol><symbol id="d_point" viewBox="0 0 214.809 214.426"><path d="M15 76.727V15h63.696V0H0v76.727zM135.347 15h64.462v61.727h15V0h-79.463zM199.81 133.378v66.048h-64.463v15h79.462v-81.048zM78.696 199.426H15v-66.048H0v81.048h78.696z"/><path fill="none" d="M17.384 46.43H197.91v137.565H17.384z"/><text transform="translate(59.01 158.27)" font-family="'GeogrotesqueMedium'" font-size="160">D</text></symbol><symbol id="e_point" viewBox="0 0 214.809 214.426"><path d="M15 76.727V15h63.696V0H0v76.727zM135.347 15h64.462v61.727h15V0h-79.463zM199.81 133.378v66.048h-64.463v15h79.462v-81.048zM78.696 199.426H15v-66.048H0v81.048h78.696z"/><path fill="none" d="M17.384 46.43H197.91v137.565H17.384z"/><text transform="translate(66.128 158.27)" font-family="'GeogrotesqueMedium'" font-size="160">E</text></symbol><symbol id="equipment_terminal" viewBox="0 0 158.721 118.481"><path d="M127.897 35.316l-3.816-5.15H70.085v-5.278h-6.68v5.277h-8.072v-5.277h-6.68v5.277H33.925L28.3 35.968V52.87l5.915 1.483L28.3 79.2v16.98h24.804V79.008l3.816-8.013h18.316L83.06 62.6v-9.54h44.645v-6.105h4.96v-11.64h-4.768zm-51.53 26.26l-3.892 4.042H61.548V53.643h14.82v7.933zM0 42.832h4.807V0h22.675v6H10.807v106.48H23.26v6H4.808V72.833H0z"/><path d="M158.72 42.832h-4.805V0H131.24v6h16.675v106.48H135.46v6h18.455V72.833h4.806z"/></symbol><symbol id="f_point" viewBox="0 0 214.809 214.426"><path d="M15 76.727V15h63.696V0H0v76.727zM135.347 15h64.462v61.727h15V0h-79.463zM199.81 133.378v66.048h-64.463v15h79.462v-81.048zM78.696 199.426H15v-66.048H0v81.048h78.696z"/><path fill="none" d="M17.384 46.43H197.91v137.565H17.384z"/><text transform="translate(65.728 158.27)" font-family="'GeogrotesqueMedium'" font-size="160">F</text></symbol><symbol id="galaxy_terminal" viewBox="0 0 158.721 123.42"><path d="M128.704 25.974l-2.9 9.365h-5.35l-4.014-9.144H87.897L86.15.776H72.186l-1.745 25.42H41.897l-4.014 9.143H32.53l-2.898-9.366h-5.574v26.312h5.574l3.122-9.365h5.352l3.345 13.826h17.17l2.9 10.258h8.028v28.988l-8.028 2.23-1.784 5.798-10.258 1.338-4.236 5.352 4.682 5.352h18.51l4.235 7.358h12.997l4.237-7.358h18.508l4.683-5.352-4.237-5.352L98.6 104.02l-1.784-5.798-8.027-2.23V67.004h8.026l2.9-10.258h17.17l3.344-13.825h5.352l3.122 9.366h5.575V25.974z"/><path d="M0 42.832h4.807V0h22.675v6H10.807v106.48H23.26v6H4.808V72.833H0zM158.72 42.832h-4.805V0H131.24v6h16.675v106.48H135.46v6h18.455V72.833h4.806z"/></symbol><symbol id="gate_shield_generator" viewBox="0 0 159.932 203.301"><path d="M129.328 73.312h-50.99l-3.43 7.284H24.132v17.568l12.213 17.14h85.27l14.14-16.133V79.097l-6.425-5.784zm-85.486 31.923c-5.088 0-9.213-4.125-9.213-9.213 0-5.088 4.124-9.213 9.212-9.213s9.213 4.124 9.213 9.212-4.125 9.213-9.213 9.213zm25.233 0c-5.088 0-9.213-4.125-9.213-9.213 0-5.088 4.125-9.213 9.213-9.213 5.088 0 9.213 4.124 9.213 9.212s-4.125 9.213-9.213 9.213zm25.08 0c-5.087 0-9.212-4.125-9.212-9.213 0-5.088 4.125-9.213 9.213-9.213 5.088 0 9.213 4.124 9.213 9.212s-4.126 9.213-9.214 9.213zm24.782 0c-5.088 0-9.213-4.125-9.213-9.213 0-5.088 4.125-9.213 9.213-9.213 5.088 0 9.213 4.124 9.213 9.212s-4.125 9.213-9.213 9.213zM72.338 53.124h38.78V69.62H66.123zM28.202 46.696l38.994 11.356M29.32 42.85l38.993 11.355-2.24 7.69-38.992-11.354z"/><path d="M155.34 15.623C153.607 14.99 112.844.2 80.29.005V0l-.324.002L79.642 0v.005C47.087.2 6.322 14.99 4.592 15.623L0 17.305v83.934l.697 1.442c1.05 2.175 45.05 74.167 79.27 100.62 39.71-27.49 78.217-98.445 79.268-100.62l.697-1.443V17.304l-4.593-1.682zm-9.408 82.35c-4.163 8.094-26.847 50.172-65.966 86.582-39.12-36.41-61.803-78.488-65.966-86.583V27.19c11.414-3.795 41.867-13.104 65.966-13.187 24.1.083 54.552 9.392 65.966 13.186V97.97z"/></symbol><symbol id="ground_transport_terminal" viewBox="0 0 158.721 119.172"><path d="M128.993 34.164l6.203-12.95L113.98 0l-12.95 6.203-9.466.544-8.597 8.597-.435 6.747 30.573 30.574 6.747-.435 8.597-8.598zM87.735 82.214L52.982 47.46l-10.665 1.954L25.043 67.89l-1.157 26.605L40.7 111.31l26.607-1.157L85.783 92.88l1.952-10.666zM59.06 98.81l-6.374-6.373 8.5-8.5-9.4-9.397-8.498 8.5-6.374-6.375L51.89 61.69l22.146 22.147L59.06 98.81zM111.77 54.576l-31.15-31.15-13.068.752-11.115 11.116-1.503 12.016 32.95 32.95 12.018-1.5 11.115-11.116.752-13.068zM89.67 66.016l-6.462-2.584-10.985-10.984-1.292-6.677 9.908-9.907 3.986 3.985-7.862 7.862 11.74 11.74 7.86-7.863 3.77 3.77-10.662 10.66z"/><path d="M0 43.523h4.807V.69h22.675v6H10.807v106.482H23.26v6H4.808v-45.65H0zM158.72 43.523h-4.805V.69H131.24v6h16.675v106.482H135.46v6h18.455v-45.65h4.806z"/></symbol><symbol id="ground_vehicle_terminal" viewBox="0 0 158.721 130.577"><path d="M75.945 33.32v34.418L73.582 70.1h11.322l-2.34-2.362V18.258l5.636-4.136v-3.917L79.254 0l-8.947 10.205v3.917l5.638 4.137zM87.49 72.666H71.027L68.4 75.284v28.82l3.494 3.496h14.72l3.494-3.495v-28.82z"/><path d="M110.97 36.32H85.563v30.175l6.666 6.667.878.88v31.306l-.88.88-3.493 3.493-.88.88H70.652l-.878-.88-3.494-3.493-.88-.88V74.042l.88-.878 6.667-6.667V36.32H47.978l-6.185 6.926v77.435h11.59l8.696 9.897h34.789l8.696-9.896h11.59V43.247zM0 53.4h4.807V10.568h22.675v6H10.807v106.48H23.26v6H4.808V83.4H0zM158.72 53.4h-4.805V10.568H131.24v6h16.675v106.48H135.46v6h18.455V83.4h4.806z"/></symbol><symbol id="horizontal_generator" viewBox="0 0 159.932 203.301"><path d="M155.34 15.623C153.607 14.99 112.844.2 80.29.005V0l-.324.002L79.642 0v.005C47.087.2 6.322 14.99 4.592 15.623L0 17.305v83.934l.697 1.442c1.05 2.175 45.05 74.167 79.27 100.62 39.71-27.49 78.217-98.445 79.268-100.62l.697-1.443V17.304l-4.593-1.682zm-9.408 82.35c-4.163 8.094-26.847 50.172-65.966 86.582-39.12-36.41-61.803-78.488-65.966-86.583V27.19c11.414-3.795 41.867-13.104 65.966-13.187 24.1.083 54.552 9.392 65.966 13.186V97.97zM23.893 79.157h110.342"/><path d="M23.893 68.657h110.342v21H23.893zM23.893 50.777h110.342M23.893 44.277h110.342v13H23.893z"/><g><path d="M32.212 107.05h93.215M32.212 99.548h93.216v15H32.212z"/></g></symbol><symbol id="landing_pad" viewBox="0 0 189.216 186.166"><path d="M70.943 141.4H0V0h141.887v73.132h-14V14h-98.52L14 27.91v99.49h56.943z"/><path d="M85.65 51.685v-27H42.345V34.7H36.05V24.686H23.937v27H36.05v-9.782h6.296v9.782zM90.542 24.685v27l26-13.5zM85.65 84.2v-27H42.345v10.017H36.05V57.2H23.937v27H36.05v-9.78h6.296v9.78zM90.542 57.2v27l26-13.5z"/><g><path d="M85.65 115.918v-27H42.345v10.016H36.05V88.918H23.937v27H36.05v-9.78h6.296v9.78zM90.542 88.918v27l26-13.5z"/></g><path d="M146.93 140.7h42.285l-6.193-11.36-36.09-15.703V91.2c0-4.417-3.582-11.324-8-11.324s-8 6.907-8 11.325v22.644l-35.62 15.498L89.12 140.7h41.81v28.608h-25.407v7.358c0 3.038 2.462 9.5 5.5 9.5s5.5-5.858 5.5-5.858h22.645c.317 0 .625-.033.927-.084.302.05.61.084.927.084h22.645s2.462 5.858 5.5 5.858 5.5-6.462 5.5-9.5v-7.358H146.93v-28.61z"/></symbol><symbol id="large_outpost" viewBox="0 0 243.859 243.859"><circle stroke="#FFF" stroke-width="13" stroke-miterlimit="10" cx="121.93" cy="121.93" r="115.43"/><path fill="#FFF" d="M211.002 77.292h-33.09v.306h-.02l-28.07-27.88H93.89L65.82 77.598h-.02v-.306H32.71v38.605h13.787v65.874h60.052v-22.366H85.1V94.72l19.4-19.266h34.71l19.397 19.266v64.684h-22.57v22.366h61.174v-65.873h13.788z"/></symbol><symbol id="nc" viewBox="0 0 255.924 222.031"><path fill="url(#nc-SVGID_1_)" d="M81.01 10.725L133 62.585s-27.234-14.034-54.578 6.29c-4.69 3.485-5.916 4.798-8.58 8.21 0 0-5.12 5.9-7.836 12.367-1.744 4.155-3.078 8.83-3.73 12.05 0 0-2.662 10.04 1.118 24.474 2.93 11.193 10.287 19.26 12.1 21.5s15.67 16.67 36.882 17.522c21.213.853 36.137-11.806 36.137-11.806h62.476c5.63-12.86 8.754-27.068 8.754-42.006 0-57.91-46.945-104.856-104.856-104.856-10.417 0-20.4 1.546-29.897 4.375l.02.02z"/><path fill="url(#nc-SVGID_2_)" d="M58.624 20.24l13.35 39.36-.026-.027-30.16-27.345c-2.935 2.46-6.33 6.072-6.33 6.072L57.85 70.74 23.23 53.496s-3.836 6.317-4.555 7.516L47.19 85.077l-35.63-7.755c-1.626 3.864-2.638 8.82-2.638 8.82l32.646 15.03-35.204 1.493c-.48 2.878-.48 9.434-.48 9.434l31.74 5.555-30.54 8.914s1 7.807 1.825 9.9l31.152-1.547-26.423 15.87s2.558 6.77 3.757 8.475L47.83 149.14l-22.25 23.44s4.108 5.695 6.347 7.934l27.202-18.368-16.697 28.74s3.53 3.266 7.37 5.85l23.344-24.996-8.66 33.818s5.662 2.745 8.673 3.864l17.09-30.767.06 35.617s3.317.86 9.633 1.52l8.12-37.356 10.6 37.568s45.572-1.093 75.312-40.587l51.733.16s2.478-.08 3.138 2.578l.04 5.576s4.357-2.264 6.463-7.38c.753-1.833.69-4.68.24-6.29-.694-2.478-2.01-4.25-3.172-5.25-4.584-3.944-16.283-5.063-16.283-5.063l-11.033-6.556h-80.588s-14.924 12.66-36.137 11.807-35.07-15.283-36.883-17.522-9.167-10.307-12.1-21.5c-3.78-14.434-1.118-24.473-1.118-24.473.653-3.22 1.987-7.895 3.73-12.05 2.716-6.467 7.836-12.368 7.836-12.368 2.665-3.41 3.893-4.724 8.58-8.21 27.345-20.323 54.58-6.29 54.58-6.29L80.99 10.708s-11.122 2.71-22.368 9.532z"/><path fill="url(#nc-SVGID_3_)" d="M38.938 83.28l8.253 1.797-28.306-24.122c1.39-2.537 2.877-5.013 4.463-7.417l-5.56-2.772c-1.29 1.996-2.52 4.035-3.683 6.116l-.02.037c-.663 1.186-1.306 2.385-1.927 3.598l26.78 22.763z"/><path fill="url(#nc-SVGID_4_)" d="M2.585 87.217l30.907 14.3 9.17-.45L9.167 85.852c.716-2.885 1.55-5.724 2.498-8.508l-6.01-1.308c-.79 2.382-1.502 4.8-2.134 7.252l-.026.105c-.325 1.266-.63 2.54-.91 3.824z"/><path fill="url(#nc-SVGID_5_)" d="M56.358 168.17l2.77-6.023-27.305 17.836c-2.167-2.488-4.22-5.078-6.147-7.764l-4.36 4.526c1.67 2.29 3.427 4.51 5.263 6.663h-.003l.098.11c.82.96 1.653 1.905 2.504 2.835l5.25-3.484c-.007-.005-.012-.01-.017-.017l21.945-14.683z"/><path fill="url(#nc-SVGID_6_)" d="M91.003 177.07L73.26 209.034c-2.985-1.15-5.906-2.428-8.754-3.836l-1.618 6.25c3.456 1.666 7.012 3.156 10.656 4.463l17.032-30.31.427-8.53z"/><path fill="url(#nc-SVGID_7_)" d="M107.845 177.07l-8.192 38.325c-3.213-.342-6.384-.827-9.503-1.453v6.49c2.688.51 5.41.92 8.163 1.233v.003l.15.014c1.21.135 2.425.254 3.647.35l1.374-6.297h-.01l6.77-31.256-2.4-7.41z"/><path fill="url(#nc-SVGID_8_)" d="M6.184 115.82l23.786 4.07 7.655-2.234-31.538-5.64c-.002-.277-.005-.552-.005-.83 0-2.948.124-5.868.363-8.756l-6.12.207c-.208 2.736-.316 5.5-.323 8.29v.26c0 1.2.02 2.394.058 3.585l6.127 1.092c-.002-.014-.003-.03-.003-.044z"/><path fill="url(#nc-SVGID_9_)" d="M71.868 178.67l1.6-7.195-23.558 24.96c-2.553-1.83-5.022-3.768-7.396-5.814l-3.207 5.49c2.024 1.716 4.112 3.36 6.257 4.93v.002l.104.074c.992.724 1.994 1.434 3.01 2.126l.17-.18 4.21-4.455h-.003l18.813-19.937z"/><path fill="url(#nc-SVGID_10_)" d="M4.812 140.16l29.96-1.517 5.29-3.718-31 1.167c-.77-3.163-1.4-6.382-1.877-9.65l-5.903 1.705c.42 2.76.947 5.488 1.567 8.18h-.003l.035.14c.29 1.253.6 2.498.932 3.734l.002.01.996-.05z"/><path fill="url(#nc-SVGID_11_)" d="M110.888 0c-21.146 0-40.91 5.936-57.723 16.235l14.28 39.74 4.597 3.8-13.408-39.457C74.016 11.453 91.86 6.38 110.887 6.38c57.883 0 104.807 46.964 104.807 104.847 0 14.907-3.114 29.014-8.725 41.966h6.65c5.256-12.952 8.154-27.133 8.154-41.966C221.774 49.82 172.13 0 110.888 0z"/><path fill="url(#nc-SVGID_12_)" d="M33.017 41.04l.015-.015L51.407 67.53l6.444 3.21L35.66 38.22c1.984-2.045 4.048-4.01 6.192-5.89l-4.663-4.22c-1.755 1.567-3.458 3.19-5.11 4.863l-.038.04c-.897.907-1.778 1.83-2.642 2.77l3.62 5.256z"/><path fill="url(#nc-SVGID_13_)" d="M118.456 215.724l1.74 6.262c33.522-2.794 62.81-20.538 81.214-46.567h-7.7c-17.726 22.82-44.675 38.12-75.254 40.304z"/><path fill="url(#nc-SVGID_14_)" d="M19.345 162.26l23.58-7.95 5.278-5.275-30.558 10.053c-1.408-2.736-2.702-5.542-3.87-8.41l-5.314 3.18c1.01 2.437 2.107 4.828 3.28 7.172l.143.284c.148.293.297.585.447.877l1.174 2.302-.083-.235 5.927-1.99c0-.002 0-.004-.002-.007z"/><circle fill="url(#nc-SVGID_15_)" cx="110.888" cy="111.188" r="32.906"/><path fill="url(#nc-SVGID_16_)" d="M111.047 80.337l6.944 21.37h22.47l-18.178 13.178 6.944 21.356-18.18-13.214L92.87 136.23l6.943-21.343-18.178-13.18h22.47z"/><path fill="url(#nc-SVGID_17_)" d="M110.888 73.566c-20.72 0-37.52 16.844-37.52 37.62 0 20.78 16.798 37.622 37.52 37.622s37.52-16.844 37.52-37.62c0-20.778-16.8-37.622-37.52-37.622zm.128 69.634c-17.662 0-31.98-14.37-31.98-32.1s14.318-32.098 31.98-32.098 31.98 14.37 31.98 32.1-14.318 32.098-31.98 32.098z"/></symbol><symbol id="ps2maps" viewBox="0 0 222.994 225.824"><path fill="#FFF" stroke="#000" stroke-width="2" stroke-miterlimit="10" d="M221.994 34.23L164.707 1.154l-53.21 30.72-53.21-30.72L1 34.23v66.147l53.034 30.62v60.598l57.286 33.075 57.287-33.075V131.2l53.387-30.823z"/><path fill="#89171A" d="M115.492 95.718v-56.83l49.216-28.413 49.215 28.414v56.828l-49.215 28.414z"/><path d="M164.707 11.63l48.215 27.836V95.14l-48.215 27.837-48.215-27.837V39.466l48.215-27.837m0-2.31l-50.215 28.992v57.984l50.215 28.992 50.215-28.992V38.31L164.707 9.32z"/><path fill="#1266B2" d="M9.07 95.718v-56.83l49.216-28.413 49.216 28.414v56.828l-49.216 28.414z"/><path d="M58.286 11.63L106.5 39.465V95.14l-48.214 27.837L10.07 95.14V39.466L58.287 11.63m0-2.31L8.07 38.31v57.985l50.216 28.992L108.5 96.295V38.31L58.287 9.32z"/><g><path fill="#7E2A90" d="M62.105 186.936v-56.83l49.215-28.414 49.215 28.415v56.83L111.32 215.35z"/><path d="M111.32 102.847l48.215 27.837v55.674l-48.215 27.837-48.215-27.837v-55.674l48.215-27.837m0-2.31L61.105 129.53v57.984l50.215 28.992 50.215-28.992V129.53l-50.215-28.992z"/></g></symbol><symbol id="ps4" viewBox="180.798 24.062 301.467 64.451"><path d="M335.36 71.1V41.127c0-6.115 2.855-10.494 8.942-10.494h37.547c.23 0 .45-.228.45-.454v-5.964c0-.052-.015-.103-.035-.152h-45.91c-9.95 1.265-14.81 8.2-14.81 17.064V71.1c0 6.115-2.935 10.495-8.94 10.495H272.95c-.225 0-.45.15-.45.453v5.965c0 .247.15.436.33.5h45.018c11.734-.31 17.51-7.8 17.51-17.412zM181.104 88.513h13.183c.178-.063.33-.252.33-.5V68.912c0-6.114 3.454-10.343 8.486-10.343h54.3c12.243 0 18.177-7.55 18.177-17.44 0-8.865-4.857-15.8-14.813-17.065H180.86c-.023.05-.062.09-.062.152v5.964c0 .302.15.454.45.454h71.574c6.084 0 8.938 4.38 8.938 10.494 0 6.116-2.854 10.495-8.938 10.495h-56.628c-8.787 0-15.396 7.477-15.396 17.29v19.104c0 .247.105.435.306.5z"/><path fill="none" d="M393.714 74.65h60.465c.22 0 .45-.228.45-.454V36.974c0-.83-.752-.906-1.13-.604l-60.157 37.223c-.38.227-.53.453-.45.755.07.15.3.3.82.3z"/><path d="M382.08 81.596h72.1c.22 0 .37.15.37.302v6.116c0 .302.23.453.452.453h12.996c.23 0 .45-.15.45-.453V82.05c0-.228.23-.454.45-.454h12.916c.3 0 .45-.227.45-.452v-6.04c0-.228-.15-.454-.45-.454h-12.916c-.22 0-.45-.227-.45-.453V30.632c0-3.555-1.322-5.82-3.543-6.57h-3.76c-1.172.3-2.446.84-3.812 1.66L379.677 73.67c-3.004 1.887-4.057 4-3.305 5.586.6 1.36 2.323 2.342 5.708 2.342zm11.263-8.003L453.5 36.37c.38-.302 1.13-.226 1.13.604v37.223c0 .227-.23.453-.45.453h-60.465c-.52 0-.752-.15-.822-.302-.08-.302.07-.53.45-.755z"/></symbol><symbol id="shield_generator" viewBox="0 0 159.932 203.301"><path d="M155.34 15.623C153.607 14.99 112.844.2 80.29.005V0l-.324.002L79.642 0v.005C47.087.2 6.322 14.99 4.592 15.623L0 17.305v83.934l.697 1.442c1.05 2.175 45.05 74.167 79.27 100.62 39.71-27.49 78.217-98.445 79.268-100.62l.697-1.443V17.304l-4.593-1.682zm-9.408 82.35c-4.163 8.094-26.847 50.172-65.966 86.582-39.12-36.41-61.803-78.488-65.966-86.583V27.19c11.414-3.795 41.867-13.104 65.966-13.187 24.1.083 54.552 9.392 65.966 13.186V97.97z"/><path d="M100.606 125L83.26 106.347V93.103h5.756v3.132h6.923V86.18H63.357v10.055h6.923v-3.132h5.756v12.952L58.42 125H43.678v12.116h71.64V125z"/><path d="M99.675 109.505l7.435-4.05L93.836 100l24.923 4.077-7.79 3.42 8.38 4.697zM61.59 109.505l-7.435-4.05L67.43 100l-24.924 4.077 7.79 3.42-8.38 4.697zM100.606 34.26L83.26 52.916V66.16h5.756v-3.134h6.923V73.08H63.357V63.027h6.923v3.133h5.756V53.205L58.42 34.26H43.678V22.145h71.64V34.26z"/><path d="M99.675 49.756l7.435 4.052-13.274 5.45 24.923-4.076-7.79-3.42 8.38-4.698zM61.59 49.756l-7.435 4.052 13.274 5.45-24.924-4.076 7.79-3.42-8.38-4.698z"/></symbol><symbol id="small_outpost" viewBox="0 0 243.859 243.859"><circle stroke="#FFF" stroke-width="13" stroke-miterlimit="10" cx="121.93" cy="121.93" r="115.43"/><path fill="#FFF" d="M141.44 62.803l-.016.013H101.47l-.016-.013-46.99 48.182v55.926h52.162v-22.06H76.753V114.52l28.885-29.643h31.618l28.885 29.643v30.333H136.27v22.06h52.163v-55.925z"/></symbol><symbol id="spawn_beacon" viewBox="0 0 216.463 240.114"><path d="M139.05 28.78h-25.313V25.5c0-3.038-2.462-25.5-5.5-25.5h-.01c-3.038 0-5.5 22.462-5.5 25.5v3.28H77.412C76.502 28.78 0 31.242 0 34.28s76.5 5.5 77.412 5.5H96.81l-22.392 8.158v78.614l-7.594 7.594v94.97H64.63c-3.04 0-5.5 2.46-5.5 5.5s2.46 5.5 5.5 5.5h36.895v-8.312h13.413v8.31h36.897c3.038 0 5.5-2.46 5.5-5.5s-2.462-5.5-5.5-5.5h-2.195v-94.968l-7.594-7.594V47.938l-22.392-8.158h19.398c.91 0 77.412-2.462 77.412-5.5s-76.502-5.5-77.413-5.5zm-8.005 26.858v67.437l-9.745 2.2v6.6l12.71 2.2 4.628 4.627v90.412h-12.7v-8.31H90.523v8.31h-12.7v-90.412l4.627-4.627 12.712-2.2v-6.6l-9.745-2.2V55.638l22.814-8.31 22.815 8.31z"/></symbol><symbol id="spawn_control_unit" viewBox="0 0 247.171 160.638"><path d="M142.428 149.677l-15.693-16.88v-11.98h5.207v2.833h6.263v-9.098H108.73v9.098h6.263v-2.834h5.208v11.72l-15.937 17.14H90.92v10.962h64.82v-10.96z"/><path d="M141.585 135.656l6.727-3.666-12.01-4.932 22.55 3.69-7.047 3.093 7.58 4.25zM107.128 135.656l-6.727-3.666 12.01-4.932-22.55 3.69 7.05 3.093-7.583 4.25zM142.428 67.577l-15.693 16.88v11.98h5.207v-2.834h6.263v9.098H108.73v-9.097h6.263v2.835h5.208v-11.72L104.26 67.58H90.92V56.615h64.82v10.96z"/><path d="M141.585 81.597l6.727 3.666-12.01 4.933 22.55-3.69-7.047-3.093 7.58-4.25zM107.128 81.597l-6.727 3.666 12.01 4.933-22.55-3.69 7.05-3.093-7.583-4.25zM123.585 0L83.858 51.13h18.78l20.947-27.176L144.53 51.13h18.783zM205.79 106.238h-18.783l29.916 38.813h-53.105v14.877h83.353zM60.164 106.238H41.382L0 159.928h83.352V145.05H30.247z"/></symbol><symbol id="spawn_room" viewBox="0 0 119.425 101.735"><path d="M96.552 67.096h.013l-22.85-14.183c5.47-3.783 9.572-9.75 11.297-16.794.292.085.593.134.9.134 2.693 0 4.875-3.41 4.875-7.616 0-4.206-2.182-7.616-4.874-7.616-.308 0-.61.05-.9.135C82.026 8.97 71.934 0 59.937 0S37.85 8.97 34.865 21.157c-.292-.086-.593-.135-.9-.135-2.693 0-4.875 3.41-4.875 7.616 0 4.206 2.182 7.616 4.874 7.616.308 0 .61-.05.9-.135 1.733 7.073 5.86 13.06 11.365 16.84L26.96 66.77C16.345 68.136 6.933 70.163 0 72.812V98.1l61.535 3.635 57.89-4.855V72.812c-6.062-2.492-13.96-4.386-22.873-5.716z"/></symbol><symbol id="tech_plant" viewBox="0 0 243.859 243.859"><circle stroke="#FFF" stroke-width="13" stroke-miterlimit="10" cx="121.93" cy="121.93" r="115.43"/><path fill="#FFF" d="M166.333 62.41c-12.13 0-22.268 8.678-24.538 20.152h-40.09v-19.08H54.718v47.887h46.99V92.29h40.088c2.27 11.475 12.41 20.154 24.538 20.154 13.795 0 25.017-11.222 25.017-25.017S180.128 62.41 166.333 62.41zm-74.356 39.23h-27.53V73.21h27.53v28.43zm74.356 1.074c-8.43 0-15.288-6.858-15.288-15.288s6.858-15.288 15.288-15.288 15.288 6.858 15.288 15.288-6.856 15.288-15.287 15.288zM166.333 130.61c-12.13 0-22.268 8.68-24.538 20.154H102.8c-2.27-11.474-12.408-20.153-24.537-20.153-13.795 0-25.017 11.223-25.017 25.018s11.222 25.017 25.017 25.017c12.13 0 22.268-8.68 24.538-20.153h38.995c2.27 11.474 12.41 20.153 24.538 20.153 13.795 0 25.017-11.222 25.017-25.017s-11.222-25.017-25.017-25.017zm-88.07 40.306c-8.43 0-15.29-6.858-15.29-15.288s6.86-15.288 15.29-15.288 15.287 6.858 15.287 15.288-6.858 15.288-15.288 15.288zm88.07 0c-8.43 0-15.288-6.858-15.288-15.288s6.858-15.288 15.288-15.288 15.288 6.858 15.288 15.288-6.856 15.288-15.287 15.288z"/></symbol><symbol id="teleporter" viewBox="0 0 153.153 215.038"><path d="M76.84 34.648l-.008-.028-.01.01-.01-.01-.008.028-43.746 43.746h26.25v23.16h35.028v-23.16h26.25zM76.84 186.527l-.008.028-.01-.01-.01.01-.008-.028-43.746-43.746h26.25v-23.16h35.028v23.16h26.25z"/><path d="M77.656 0c-.36 0-.72 0-1.08.003L75.496 0C67.77 0 0 .69 0 24.654 0 36.906 18.44 43.65 39.393 47.038l6.136-12.2c-4.793-.67-9.306-1.49-13.428-2.453-12.423-2.902-17.474-6.226-18.83-7.704 1.087-1.15 5.112-4.356 17.98-7.335C43.36 14.543 59.072 13 75.497 13c.27 0 .544 0 .816.002h.526l.816-.002c16.424 0 32.136 1.543 44.243 4.346 12.867 2.98 16.893 6.186 17.98 7.336-1.357 1.478-6.408 4.802-18.83 7.704-4.123.963-8.636 1.782-13.428 2.454l6.136 12.2c20.953-3.388 39.393-10.133 39.393-22.385C153.154.69 85.384 0 77.657 0zM77.656 215.038c-.36 0-.72 0-1.08-.003l-1.08.003c-7.726 0-75.496-.69-75.496-24.654C0 178.132 18.44 171.387 39.393 168l6.136 12.2c-4.793.67-9.306 1.49-13.428 2.453-12.423 2.902-17.474 6.226-18.83 7.704 1.087 1.15 5.112 4.357 17.98 7.336 12.107 2.802 27.82 4.346 44.243 4.346l.816-.003h.527l.817.002c16.424 0 32.136-1.544 44.243-4.347 12.868-2.98 16.894-6.186 17.98-7.336-1.356-1.478-6.407-4.802-18.83-7.704-4.122-.963-8.635-1.782-13.427-2.454l6.14-12.2c20.953 3.387 39.393 10.132 39.393 22.384 0 23.963-67.77 24.654-75.497 24.654z"/></symbol><symbol id="tr" viewBox="0 0 207.203 253.702"><path fill="#010101" d="M103.572 0L88.684 23.58v35.37H0l103.4 194.752 103.803-194.75h-89.345l.02-35.35z"/><path fill="#C62026" d="M20.267 69.622h62.565l-38.976 50.22zM89.2 213.426V82.272l-44.407 39.76zM186.79 69.622h-62.564l38.976 50.22zM117.858 213.426V82.272l44.406 39.76z"/></symbol><symbol id="vertical_generator" viewBox="0 0 159.932 203.301"><path d="M155.34 15.623C153.607 14.99 112.844.2 80.29.005V0l-.324.002L79.642 0v.005C47.087.2 6.322 14.99 4.592 15.623L0 17.305v83.934l.697 1.442c1.05 2.175 45.05 74.167 79.27 100.62 39.71-27.49 78.217-98.445 79.268-100.62l.697-1.443V17.304l-4.593-1.682zm-9.408 82.35c-4.163 8.094-26.847 50.172-65.966 86.582-39.12-36.41-61.803-78.488-65.966-86.583V27.19c11.414-3.795 41.867-13.104 65.966-13.187 24.1.083 54.552 9.392 65.966 13.186V97.97zM79.966 30.95v108.01"/><path d="M69.466 30.95h21v108.01h-21zM52.105 34.475v94.162M45.105 34.475h14v94.162h-14z"/><g><path d="M107.998 34.475v94.162M100.998 34.475h14v94.162h-14z"/></g></symbol><symbol id="vs" viewBox="0 0 582.289 612"><path fill="url(#vs-SVGID_1_)" d="M254.9 417.386C184.173 401.06 131.443 337.69 131.443 262c0-33.553 10.362-64.686 28.062-90.37l-25.936-27.032c-24.466 32.738-38.95 73.37-38.95 117.384 0 97.98 71.786 179.194 165.633 193.912l-5.353-38.508z"/><path fill="#020202" d="M262.507 458.187l-2.552-.4c-46.155-7.237-88.475-30.81-119.164-66.375-15.2-17.617-27.07-37.53-35.282-59.188-8.5-22.42-12.806-46.052-12.806-70.244 0-21.747 3.5-43.124 10.403-63.535 6.673-19.736 16.41-38.24 28.93-54.998l1.354-1.81 28.585 29.79-.887 1.288c-18.138 26.32-27.725 57.196-27.725 89.286 0 73.814 50.156 136.942 121.972 153.518l1.287.297 5.885 42.372zM133.76 147.567c-24.364 33.386-37.226 72.893-37.226 114.415 0 95.493 67.744 175.66 161.46 191.6l-4.813-34.63c-34.448-8.256-65.667-28.032-88.025-55.793-11.302-14.034-20.11-29.71-26.173-46.593-6.276-17.47-9.458-35.83-9.458-54.562 0-32.346 9.51-63.49 27.52-90.17l-23.284-24.27z"/><path fill="url(#vs-SVGID_2_)" d="M320.805 456.01c94.22-14.396 166.4-95.784 166.4-194.03 0-43.174-13.938-83.093-37.563-115.502L422.436 171.8c17.63 25.654 27.943 56.723 27.943 90.2 0 75.885-53.004 139.39-124.008 155.51l-5.567 38.5z"/><path fill="#020202" d="M318.537 458.297l6.123-42.364 1.284-.292C398.08 399.26 448.46 336.084 448.46 262c0-32.016-9.547-62.83-27.61-89.114l-.934-1.363 30-27.923 1.273 1.746c24.813 34.042 37.93 74.372 37.93 116.633 0 24.256-4.332 47.95-12.876 70.42-8.252 21.71-20.183 41.658-35.46 59.294-30.854 35.618-73.36 59.133-119.692 66.21l-2.555.393zm9.543-39.213l-5.004 34.623c92.66-15.447 162.21-97.41 162.21-191.728 0-40.72-12.416-79.612-35.93-112.62l-24.413 22.723c17.9 26.622 27.352 57.677 27.352 89.918 0 18.782-3.198 37.184-9.506 54.695-6.096 16.92-14.943 32.626-26.3 46.676-22.473 27.807-53.83 47.555-88.41 55.714z"/><path fill="url(#vs-SVGID_3_)" d="M329.65 107.274c17.54 4.377 33.932 11.66 48.633 21.307l32.303-22.2C381.87 84.26 346.86 69.913 308.704 66.483l20.946 40.79z"/><path fill="#020202" d="M378.31 130.89l-1.077-.707c-14.782-9.7-30.947-16.782-48.044-21.05l-.845-.21-22.93-44.66 3.465.312c37.46 3.365 73.035 17.296 102.88 40.285l2.085 1.607-35.536 24.422zm-47.35-25.262c16.79 4.286 32.692 11.23 47.294 20.647l29.062-19.975c-27.892-20.89-60.72-33.827-95.297-37.563l18.94 36.89z"/><path fill="url(#vs-SVGID_4_)" d="M274.28 66.38c-38.486 3.23-73.815 17.563-102.772 39.784l33.774 21.286c14.97-9.546 31.636-16.662 49.448-20.793l19.55-40.276z"/><path fill="#020202" d="M205.29 129.72l-37.13-23.4 2.184-1.674c30.114-23.113 66-37.003 103.775-40.173l3.355-.282-21.417 44.127-.892.206c-17.35 4.026-33.788 10.936-48.85 20.542l-1.026.655zm-30.41-23.697l30.403 19.162c14.89-9.34 31.07-16.126 48.123-20.186l17.664-36.397c-34.89 3.54-68.027 16.428-96.19 37.42z"/><path fill="url(#vs-SVGID_5_)" d="M286.564 251.756l-75.143-37.314L2.225 6.072S.5 1.085 5.29 3.96c4.79 2.874 249.84 164.47 249.84 164.47l35.61 73.61 36.976-71.308L574.87 4.604s11.248-8.435 1.534 4.6C566.69 22.238 371.676 213.93 371.676 213.93l-75.91 37.83 36.04 74.886-36.296 272.2s-4.473 24.408-8.307 1.278-38.85-272.778-38.85-272.778l38.21-75.59z"/><path fill="#020202" d="M290.933 612c-2.698 0-4.22-3.133-5.616-11.563-3.794-22.888-38.508-270.33-38.857-272.824l-.084-.596 37.61-74.403-73.692-36.597-.22-.22L.556 7.117l-.146-.42c-.287-.832-.844-2.923.187-4.372.538-.756 1.378-1.172 2.36-1.172.94 0 1.99.37 3.32 1.167 4.77 2.863 239.9 157.915 249.906 164.515l.44.292 34.174 70.64 35.44-68.346.408-.272L573.76 3.038C575.298 1.89 578.09 0 579.828 0c.962 0 1.777.483 2.184 1.292.716 1.423.283 3.215-4.068 9.053-9.69 13.005-196.954 197.117-204.922 204.948l-.218.213-.273.136-74.218 36.984 35.468 73.7-.077.57-36.3 272.25-.01.044c-.022.12-.543 2.942-1.392 5.815-1.444 4.905-2.96 6.995-5.067 6.995zm-40.596-284.324c1.914 13.64 35.063 249.84 38.76 272.135.75 4.534 1.45 6.686 1.896 7.69.852-1.652 1.966-5.37 2.626-8.954l36.21-271.587-36.61-76.076 77.332-38.534c7.51-7.387 194.945-191.717 204.317-204.293.654-.88 1.19-1.63 1.626-2.268-.16.114-.318.23-.474.346l-.082.057-246.748 165.86-38.512 74.27-37.046-76.577C242.097 162.138 17.088 13.76 4.764 5.894l207.79 206.97 76.592 38.036-38.81 76.776z"/><g><path fill="url(#vs-SVGID_6_)" d="M291.137 215.975L248.74 133.42l42.397-84.6 43.735 83.576z"/><path fill="#020202" d="M291.123 220.14l-44.533-86.71 44.51-88.815 45.936 87.782-.466.89-45.447 86.853zm-40.234-86.732l40.265 78.4 41.555-79.412-41.534-79.374-40.287 80.386z"/></g><path fill="url(#vs-SVGID_7_)" d="M283.63 242.045l-69.012-32.97L42.478 36.167l207.03 137.25z"/><path fill="url(#vs-SVGID_8_)" d="M299.6 242.045l32.715-66.71L539.088 36.168 368.354 209.584z"/><path fill="url(#vs-SVGID_9_)" d="M291.485 258.977L325.67 329.2 291.41 578.4l-35.513-249.454z"/><path fill="url(#vs-SVGID_10_)" d="M291.485 203.963l-35.59-70.543 35.59-70.543 35.59 70.543z"/></symbol><symbol id="warpgate" viewBox="0 0 243.859 243.859"><circle stroke="#FFF" stroke-width="13" stroke-miterlimit="10" cx="121.93" cy="121.93" r="115.43"/><path fill="#FFF" d="M158.558 70.17s44.073 46.645 31.553 72.675c-12.834-5.45-34.39-6.536-47.5-6.64-11.342-17.142-21.66-88.02-21.66-88.02s-10.327 70.942-21.677 88.042c-13.215.194-33.364 1.422-45.6 6.618-12.52-26.03 31.553-72.676 31.553-72.676-34.928 14.935-73.303 71.923-37.686 96.51l-.613-3.252c.206-3.53 3.155-9.237 18.077-13.52 5.542-1.592 24.59-2.88 36.966-3.575 3.993 3.06 11.125 5.106 19.286 5.106 8.22 0 15.395-2.077 19.37-5.173 12.31.677 32.43 1.997 38.154 3.64 14.922 4.285 17.87 9.99 18.077 13.52l-.613 3.254c35.617-24.587-2.758-81.575-37.686-96.51z"/></symbol><symbol id="warpgate_terminal" viewBox="0 0 158.721 118.481"><path d="M78.727 117.045c-32.202 0-58.4-26.2-58.4-58.4s26.197-58.4 58.4-58.4 58.4 26.198 58.4 58.4-26.198 58.4-58.4 58.4zm0-103.8c-25.034 0-45.4 20.366-45.4 45.4s20.366 45.4 45.4 45.4 45.4-20.366 45.4-45.4-20.366-45.4-45.4-45.4z"/><path d="M70.79 111.46c-22.193-52.326-22.193-53.313 0-105.632L76.31 8.17c-10.78 25.414-16.19 38.17-16.19 50.472 0 12.3 5.41 25.055 16.187 50.465l-5.52 2.353zM86.89 111.45l-5.53-2.333c10.782-25.42 16.19-38.175 16.19-50.476 0-12.3-5.41-25.057-16.19-50.47l5.524-2.343c22.192 52.32 22.192 53.308.005 105.623z"/><path d="M28.57 55.645h102.058v6H28.57zM78.788 43.813c-10.794 0-21.784-6.005-39.736-18.014l3.336-4.988c33.882 22.665 39.23 22.668 71.552.037l3.44 4.914c-17.184 12.033-27.79 18.05-38.592 18.05zM78.788 74.813c-10.794 0-21.784 6.005-39.736 18.014l3.336 4.987c33.882-22.664 39.23-22.668 71.552-.036l3.44-4.915c-17.184-12.034-27.79-18.05-38.592-18.05zM0 42.832h4.807V0h22.675v6H10.807v106.48H23.26v6H4.808V72.833H0zM158.72 42.832h-4.805V0H131.24v6h16.675v106.48H135.46v6h18.455V72.833h4.806z"/></symbol><symbol id="windows" viewBox="0 0 253.797 254"><path fill="#90C33F" d="M253.797 120.78l-137.703.47V20.5L253.797 0z"/><path fill="#F26930" d="M0 122.61l103.344-1.36V22L0 36.167z"/><path fill="#FDC414" d="M253.797 254l-137.703-19.667V132.5h137.703z"/><path fill="#26B1E6" d="M103.344 233.833L0 219.333V133h103.344z"/></symbol></svg>