<svg version="1.1" viewBox="0 0 256 256" x="0px" xmlns="http://www.w3.org/2000/svg" xmlns:xlink="http://www.w3.org/1999/xlink" y="0px">
	<defs>
		<g id="spawn_control_unit">
			<polygon points="147.308,188.499 131.615,171.62 131.615,159.638 136.822,159.638 136.822,162.473 143.085,162.473   143.085,153.375 131.341,153.375 125.351,153.375 113.607,153.375 113.607,162.473 119.871,162.473 119.871,159.638   125.078,159.638 125.078,171.357 109.14,188.499 95.801,188.499 95.801,199.46 160.618,199.46 160.618,188.499  "/>
			<polygon points="146.465,174.479 153.192,170.813 141.182,165.88 163.732,169.57 156.684,172.663 164.266,176.914  "/>
			<polygon points="112.008,174.479 105.281,170.813 117.291,165.88 94.741,169.57 101.788,172.663 94.207,176.914  "/>
			<polygon points="147.308,106.399 131.615,123.278 131.615,135.26 136.822,135.26 136.822,132.426 143.085,132.426 143.085,141.524   131.341,141.524 125.351,141.524 113.607,141.524 113.607,132.426 119.871,132.426 119.871,135.26 125.078,135.26 125.078,123.541   109.14,106.399 95.801,106.399 95.801,95.439 160.618,95.439 160.618,106.399  "/>
			<polygon points="146.465,120.42 153.192,124.086 141.182,129.018 163.732,125.329 156.684,122.235 164.266,117.985  "/>
			<polygon points="112.008,120.42 105.281,124.086 117.291,129.018 94.741,125.329 101.788,122.235 94.207,117.985  "/>
			<g>
				<polygon points="128.465,38.823 88.737,89.952 107.519,89.952 128.465,62.777 149.411,89.952 168.193,89.952   "/>
				<polygon points="210.668,145.06 191.887,145.06 221.803,183.874 168.698,183.874 168.698,198.749 252.05,198.749   "/>
				<polygon points="65.043,145.06 46.262,145.06 4.88,198.749 88.232,198.749 88.232,183.874 35.127,183.874   "/>
			</g>
		</g>
		<g id="shield_generator">
			<path d="M199.465,44.983c-1.731-0.633-42.494-15.423-75.049-15.618v-0.005c-0.108,0-0.216,0.002-0.324,0.002   c-0.108,0-0.216-0.002-0.324-0.002v0.005C91.213,29.56,50.449,44.35,48.719,44.983l-4.593,1.682v83.934l0.697,1.443   c1.051,2.175,45.051,74.167,79.269,100.62c39.711-27.49,78.218-98.445,79.269-100.62l0.697-1.443V46.666L199.465,44.983z    M190.058,127.333c-4.163,8.095-26.847,50.173-65.966,86.583c-39.119-36.41-61.803-78.487-65.966-86.583V56.55   c11.414-3.794,41.867-13.103,65.966-13.186c24.099,0.083,54.552,9.392,65.966,13.186V127.333z"/>
			<polygon points="144.732,154.362 127.387,135.707 127.387,122.464 133.142,122.464 133.142,125.596 140.065,125.596   140.065,115.541 127.085,115.541 120.464,115.541 107.484,115.541 107.484,125.596 114.407,125.596 114.407,122.464   120.162,122.464 120.162,135.416 102.547,154.362 87.803,154.362 87.803,166.477 159.443,166.477 159.443,154.362  "/>
			<polygon points="143.8,138.866 151.236,134.814 137.961,129.363 162.885,133.44 155.095,136.86 163.475,141.558  "/>
			<polygon points="105.716,138.866 98.281,134.814 111.555,129.363 86.632,133.44 94.421,136.86 86.041,141.558  "/>
			<polygon points="144.732,63.621 127.387,82.276 127.387,95.519 133.142,95.519 133.142,92.387 140.065,92.387 140.065,102.442   127.085,102.442 120.464,102.442 107.484,102.442 107.484,92.387 114.407,92.387 114.407,95.519 120.162,95.519 120.162,82.567   102.547,63.621 87.803,63.621 87.803,51.506 159.443,51.506 159.443,63.621  "/>
			<polygon points="143.8,79.117 151.236,83.168 137.961,88.62 162.885,84.543 155.095,81.123 163.475,76.425  "/>
			<polygon points="105.716,79.117 98.281,83.168 111.555,88.62 86.632,84.543 94.421,81.123 86.041,76.425  "/>
		</g>
		<g id="f_point">
			<g display="inline">
				<polygon points="31.815,96.117 31.815,34.389 95.511,34.389 95.511,19.389 16.815,19.389 16.815,96.117 		"/>
				<polygon points="152.162,34.389 216.624,34.389 216.624,96.117 231.624,96.117 231.624,19.389 152.162,19.389 		"/>
				<polygon points="216.624,152.767 216.624,218.815 152.162,218.815 152.162,233.815 231.624,233.815 231.624,152.767 		"/>
				<polygon points="95.511,218.815 31.815,218.815 31.815,152.767 16.815,152.767 16.815,233.815 95.511,233.815 		"/>
			</g>
			<g display="inline">
				<rect x="34.2" y="65.82" fill="none" width="180.526" height="137.564"/>
				<path d="M157.424,68.86c2.024,0,3.04,1.015,3.04,3.04v7.2c0,2.027-1.016,3.04-3.04,3.04h-46.081v32.48h43.201
					c2.024,0,3.04,1.015,3.04,3.04v7.36c0,2.028-1.016,3.04-3.04,3.04h-43.201v46.4c0,1.175-0.19,2-0.567,2.479
					c-0.377,0.48-1.157,0.721-2.342,0.721h-9.86c-1.94,0-2.91-1.065-2.91-3.2V72.06c0-2.132,0.97-3.2,2.91-3.2H157.424z"/>
			</g>
		</g>
		<g id="e_point">
			<g display="inline">
				<polygon points="31.815,96.117 31.815,34.389 95.511,34.389 95.511,19.389 16.815,19.389 16.815,96.117 		"/>
				<polygon points="152.162,34.389 216.624,34.389 216.624,96.117 231.624,96.117 231.624,19.389 152.162,19.389 		"/>
				<polygon points="216.624,152.767 216.624,218.815 152.162,218.815 152.162,233.815 231.624,233.815 231.624,152.767 		"/>
				<polygon points="95.511,218.815 31.815,218.815 31.815,152.767 16.815,152.767 16.815,233.815 95.511,233.815 		"/>
			</g>
			<g display="inline">
				<rect x="34.2" y="65.82" fill="none" width="180.526" height="137.564"/>
				<path d="M98.973,177.66c-1.94,0-2.91-1.065-2.91-3.2V72.06c0-2.132,0.97-3.2,2.91-3.2h54.851c2.024,0,3.04,1.015,3.04,3.04v7.2
					c0,2.027-1.016,3.04-3.04,3.04h-42.081v32.32h39.201c2.132,0,3.2,1.015,3.2,3.04v6.88c0,2.027-1.068,3.04-3.2,3.04h-39.201v36.96
					h43.84c1.065,0,1.84,0.188,2.32,0.56c0.479,0.375,0.72,1.148,0.72,2.32v7.36c0,2.027-1.015,3.04-3.04,3.04H98.973z"/>
			</g>
		</g>
		<g id="d_point">
			<g display="inline">
				<polygon points="31.815,96.117 31.815,34.389 95.511,34.389 95.511,19.389 16.815,19.389 16.815,96.117 		"/>
				<polygon points="152.162,34.389 216.624,34.389 216.624,96.117 231.624,96.117 231.624,19.389 152.162,19.389 		"/>
				<polygon points="216.624,152.767 216.624,218.815 152.162,218.815 152.162,233.815 231.624,233.815 231.624,152.767 		"/>
				<polygon points="95.511,218.815 31.815,218.815 31.815,152.767 16.815,152.767 16.815,233.815 95.511,233.815 		"/>
			</g>
			<g display="inline">
				<rect x="34.2" y="65.82" fill="none" width="180.526" height="137.564"/>
				<path d="M91.504,177.66c-1.708,0-2.56-1.065-2.56-3.2V72.06c0-2.132,0.96-3.2,2.88-3.2h33.44c6.825,0,12.561,0.667,17.2,2
					c4.64,1.335,8.4,3.12,11.28,5.36c2.88,2.24,4.933,4.855,6.16,7.84c1.225,2.988,1.84,6.135,1.84,9.44v59.52
					c0,3.308-0.615,6.455-1.84,9.44c-1.228,2.987-3.28,5.6-6.16,7.84s-6.641,4.027-11.28,5.36c-4.64,1.335-10.375,2-17.2,2H91.504z
					 M104.624,82.14v82.24h20.72c7.226,0,12.482-1.225,15.777-3.68c3.295-2.453,4.943-5.865,4.943-10.24v-54.4
					c0-4.373-1.648-7.785-4.943-10.24c-3.295-2.453-8.552-3.68-15.777-3.68H104.624z"/>
			</g>
		</g>
		<g id="c_point">
			<g>
				<polygon points="31.815,96.117 31.815,34.389 95.511,34.389 95.511,19.389 16.815,19.389 16.815,96.117   "/>
				<polygon points="152.162,34.389 216.624,34.389 216.624,96.117 231.624,96.117 231.624,19.389 152.162,19.389   "/>
				<polygon points="216.624,152.767 216.624,218.815 152.162,218.815 152.162,233.815 231.624,233.815 231.624,152.767   "/>
				<polygon points="95.511,218.815 31.815,218.815 31.815,152.767 16.815,152.767 16.815,233.815 95.511,233.815   "/>
			</g>
			<g>
				<rect fill="none" height="137.564" width="180.526" x="34.2" y="65.82"/>
				<path d="M161.823,154.3c0,3.308-0.56,6.455-1.68,9.44c-1.12,2.987-3.016,5.6-5.68,7.84c-2.668,2.24-6.296,4.027-10.881,5.359    c-4.587,1.333-10.295,2-17.12,2c-6.935,0-12.667-0.667-17.2-2c-4.535-1.332-8.135-3.119-10.8-5.359    c-2.667-2.24-4.56-4.853-5.68-7.84c-1.12-2.985-1.68-6.133-1.68-9.44V92.22c0-3.305,0.56-6.453,1.68-9.44    c1.12-2.985,3.013-5.6,5.68-7.84c2.665-2.24,6.265-4.025,10.8-5.36c4.533-1.333,10.265-2,17.2-2c6.825,0,12.533,0.667,17.12,2    c4.585,1.335,8.213,3.12,10.881,5.36c2.664,2.24,4.56,4.855,5.68,7.84c1.12,2.987,1.68,6.135,1.68,9.44v7.84    c0,2.135-0.96,3.2-2.88,3.2h-9.28c-2.027,0-3.04-1.065-3.04-3.2v-5.28c0-4.373-1.52-7.785-4.56-10.24    c-3.04-2.452-8.188-3.68-15.44-3.68c-7.255,0-12.375,1.228-15.36,3.68c-2.987,2.455-4.48,5.868-4.48,10.24v56.96    c0,4.375,1.493,7.787,4.48,10.239c2.985,2.455,8.105,3.681,15.36,3.681c7.253,0,12.4-1.226,15.44-3.681    c3.04-2.452,4.56-5.864,4.56-10.239v-7.521c0-2.024,1.013-3.04,3.04-3.04h9.28c1.92,0,2.88,1.016,2.88,3.04V154.3z"/>
			</g>
		</g>
		<g id="b_point">
			<g>
				<polygon points="31.815,96.117 31.815,34.389 95.511,34.389 95.511,19.389 16.815,19.389 16.815,96.117   "/>
				<polygon points="152.162,34.389 216.624,34.389 216.624,96.117 231.624,96.117 231.624,19.389 152.162,19.389   "/>
				<polygon points="216.624,152.767 216.624,218.815 152.162,218.815 152.162,233.815 231.624,233.815 231.624,152.767   "/>
				<polygon points="95.511,218.815 31.815,218.815 31.815,152.767 16.815,152.767 16.815,233.815 95.511,233.815   "/>
			</g>
			<g>
				<rect fill="none" height="137.564" width="180.526" x="34.2" y="65.82"/>
				<path d="M93.511,177.66c-1.925,0-2.887-1.065-2.887-3.2V72.06c0-2.132,0.962-3.2,2.887-3.2h28.388c6.84,0,12.615,0.615,17.32,1.84    c4.705,1.228,8.447,2.88,11.228,4.96s4.782,4.535,6.013,7.36c1.229,2.828,1.845,5.84,1.845,9.04v10.08    c0,4.16-1.053,7.815-3.152,10.96c-2.103,3.147-5.578,5.627-10.425,7.44c6.125,1.708,10.692,4.215,13.702,7.52    c3.01,3.307,4.515,7.307,4.515,12v13.601c0,3.308-0.614,6.399-1.845,9.279c-1.229,2.881-3.232,5.415-6.013,7.601    c-2.779,2.188-6.522,3.92-11.225,5.2c-4.705,1.279-10.478,1.92-17.318,1.92H93.511z M106.303,81.82v33.92h16.728    c6.69,0,11.627-1.2,14.813-3.6c3.185-2.4,4.78-5.84,4.78-10.32v-7.36c0-4.48-1.647-7.705-4.94-9.68    c-3.292-1.973-8.55-2.96-15.77-2.96H106.303z M106.303,127.9v36.8h20.24c7.225,0,12.483-1.173,15.778-3.521    c3.295-2.345,4.942-5.76,4.942-10.24v-9.76c0-4.053-1.647-7.279-4.942-9.68s-8.553-3.6-15.778-3.6H106.303z"/>
			</g>
		</g>
		<g id="a_point">
			<g>
				<polygon points="31.815,96.117 31.815,34.389 95.511,34.389 95.511,19.389 16.815,19.389 16.815,96.117   "/>
				<polygon points="152.162,34.389 216.624,34.389 216.624,96.117 231.624,96.117 231.624,19.389 152.162,19.389   "/>
				<polygon points="216.624,152.767 216.624,218.815 152.162,218.815 152.162,233.815 231.624,233.815 231.624,152.767   "/>
				<polygon points="95.511,218.815 31.815,218.815 31.815,152.767 16.815,152.767 16.815,233.815 95.511,233.815   "/>
			</g>
			<g>
				<rect fill="none" height="137.564" width="180.526" x="34.2" y="65.82"/>
				<path d="M129.423,68.86c1.92,0,3.2,1.015,3.84,3.04l31.04,102.72c0.641,2.027-0.159,3.04-2.399,3.04h-10.08    c-1.815,0-2.987-1.013-3.521-3.04l-7.52-24.8h-33.76l-7.36,24.8c-0.535,2.027-1.708,3.04-3.52,3.04h-9.28    c-2.135,0-2.88-1.013-2.24-3.04l31.04-102.72c0.64-2.025,1.92-3.04,3.84-3.04H129.423z M128.463,108.22    c-0.535-1.493-1.04-3.465-1.52-5.92c-0.48-2.453-0.908-4.905-1.28-7.36c-0.375-2.452-0.72-4.64-1.04-6.56    c-0.32-1.92-0.48-3.093-0.48-3.52c-0.108,0.32-0.295,1.387-0.56,3.2c-0.268,1.815-0.615,3.895-1.04,6.24    c-0.428,2.347-0.88,4.775-1.36,7.28c-0.48,2.508-0.987,4.615-1.52,6.32l-9.12,29.439h26.88L128.463,108.22z"/>
			</g>
		</g>
		<g id="teleporter">
			<polygon points="125.586,51.221 125.579,51.192 125.568,51.203 125.558,51.192 125.55,51.221 81.804,94.967 108.054,94.967   108.054,118.128 108.804,118.128 142.332,118.128 143.083,118.128 143.083,94.967 169.332,94.967  "/>
			<polygon points="125.586,203.099 125.579,203.128 125.568,203.117 125.558,203.128 125.55,203.099 81.804,159.353 108.054,159.353   108.054,136.192 108.804,136.192 142.332,136.192 143.083,136.192 143.083,159.353 169.332,159.353  "/>
			<path d="M126.403,16.572c-0.359,0-0.719,0.001-1.08,0.003c-0.36-0.001-0.721-0.003-1.08-0.003c-7.727,0-75.497,0.691-75.497,24.654   c0,12.252,18.44,18.997,39.393,22.384l6.136-12.199c-4.792-0.671-9.305-1.491-13.427-2.454c-12.423-2.902-17.474-6.226-18.83-7.704   c1.087-1.15,5.112-4.357,17.98-7.336c12.107-2.802,27.819-4.346,44.243-4.346c0.271,0,0.544,0.001,0.816,0.002l0.001,0.001   c0.088,0,0.175,0,0.263-0.001c0.088,0,0.175,0,0.262,0.001c0,0,0.001-0.001,0.001-0.001c0.272-0.001,0.545-0.002,0.816-0.002   c16.424,0,32.136,1.543,44.243,4.346c12.868,2.979,16.894,6.186,17.98,7.336c-1.356,1.478-6.407,4.802-18.83,7.704   c-4.122,0.963-8.635,1.782-13.427,2.454l6.136,12.199c20.953-3.387,39.393-10.132,39.393-22.384   C201.899,17.264,134.13,16.572,126.403,16.572z"/>
			<path d="M126.403,231.61c-0.359,0-0.719-0.001-1.08-0.003c-0.36,0.001-0.721,0.003-1.08,0.003c-7.727,0-75.497-0.691-75.497-24.654   c0-12.252,18.44-18.997,39.393-22.384l6.136,12.199c-4.792,0.671-9.305,1.491-13.427,2.454c-12.423,2.902-17.474,6.226-18.83,7.704   c1.087,1.15,5.112,4.357,17.98,7.336c12.107,2.802,27.819,4.346,44.243,4.346c0.271,0,0.544-0.001,0.816-0.002l0.001-0.001   c0.088,0,0.175,0,0.263,0.001c0.088,0,0.175,0,0.262-0.001c0,0,0.001,0.001,0.001,0.001c0.272,0.001,0.545,0.002,0.816,0.002   c16.424,0,32.136-1.543,44.243-4.346c12.868-2.979,16.894-6.186,17.98-7.336c-1.356-1.478-6.407-4.802-18.83-7.704   c-4.122-0.963-8.635-1.782-13.427-2.454l6.136-12.199c20.953,3.387,39.393,10.132,39.393,22.384   C201.899,230.919,134.13,231.61,126.403,231.61z"/>
		</g>
		<g id="equipment_terminal">
			<path d="M171.586,93.069l-3.816-5.151h-53.997v-5.277h-6.68v5.277h-8.072v-5.277H92.34v5.277H77.615l-5.625,5.803v16.902   l5.914,1.483l-5.914,24.847v16.981h24.803v-17.172l3.816-8.013h18.316l7.823-8.395v-9.54h44.646v-6.105h4.961V93.069H171.586z    M120.056,119.33l-3.892,4.042h-10.927v-11.975h14.819V119.33z"/>
			<polygon points="43.689,100.585 48.496,100.585 48.496,57.753 71.171,57.753 71.171,63.753 54.496,63.753 54.496,170.235   66.95,170.235 66.95,176.235 48.496,176.235 48.496,130.585 43.689,130.585  "/>
			<polygon points="202.41,100.585 197.604,100.585 197.604,57.753 174.928,57.753 174.928,63.753 191.604,63.753 191.604,170.235   179.149,170.235 179.149,176.235 197.604,176.235 197.604,130.585 202.41,130.585  "/>
		</g>
		<g id="spawn_room">
			<path d="M161.03,141.189h0.013l-22.852-14.183c5.472-3.783,9.573-9.749,11.298-16.794c0.292,0.086,0.593,0.135,0.901,0.135   c2.692,0,4.874-3.41,4.874-7.616c0-4.206-2.182-7.616-4.874-7.616c-0.308,0-0.609,0.05-0.901,0.135   c-2.984-12.187-13.076-21.157-25.073-21.157s-22.089,8.97-25.073,21.157c-0.292-0.086-0.593-0.135-0.901-0.135   c-2.692,0-4.874,3.41-4.874,7.616c0,4.206,2.182,7.616,4.874,7.616c0.308,0,0.609-0.05,0.901-0.135   c1.732,7.074,5.859,13.06,11.364,16.841l-19.269,13.81c-10.615,1.368-20.027,3.395-26.96,6.043v25.286l61.535,3.636l57.89-4.855   c0,0,0,0,0-24.068C177.84,144.414,169.942,142.52,161.03,141.189z"/>
		</g>
		<g id="gate_shield_generator">
			<path d="M173.778,105.069h-50.991l-3.428,7.284H68.581v17.568l12.212,17.14h85.271l14.14-16.133v-20.075L173.778,105.069z    M88.292,136.992c-5.088,0-9.213-4.125-9.213-9.213c0-5.088,4.125-9.213,9.213-9.213c5.088,0,9.213,4.125,9.213,9.213   C97.505,132.867,93.38,136.992,88.292,136.992z M113.525,136.992c-5.088,0-9.213-4.125-9.213-9.213   c0-5.088,4.125-9.213,9.213-9.213c5.088,0,9.213,4.125,9.213,9.213C122.737,132.867,118.613,136.992,113.525,136.992z    M138.606,136.992c-5.088,0-9.213-4.125-9.213-9.213c0-5.088,4.125-9.213,9.213-9.213c5.088,0,9.213,4.125,9.213,9.213   C147.818,132.867,143.694,136.992,138.606,136.992z M163.387,136.992c-5.088,0-9.213-4.125-9.213-9.213   c0-5.088,4.125-9.213,9.213-9.213c5.088,0,9.213,4.125,9.213,9.213C172.599,132.867,168.475,136.992,163.387,136.992z"/>
			<polygon points="116.787,84.881 155.566,84.881 155.566,101.378 110.574,101.378  "/>
			<g>
				<line x1="72.652" x2="111.645" y1="78.454" y2="89.809"/>
				<rect height="8.011" transform="matrix(0.9601 0.2796 -0.2796 0.9601 27.1973 -22.4087)" width="40.613" x="71.842" y="80.125"/>
			</g>
			<path d="M199.789,47.38c-1.731-0.633-42.494-15.423-75.049-15.618v-0.005c-0.108,0-0.216,0.002-0.324,0.002   c-0.108,0-0.216-0.002-0.324-0.002v0.005C91.537,31.957,50.773,46.746,49.042,47.38l-4.593,1.682v83.934l0.697,1.443   c1.051,2.175,45.051,74.167,79.269,100.62c39.711-27.49,78.218-98.445,79.269-100.62l0.697-1.443V49.062L199.789,47.38z    M190.382,129.729c-4.163,8.095-26.847,50.173-65.966,86.583c-39.119-36.41-61.803-78.487-65.966-86.583V58.947   c11.414-3.794,41.867-13.103,65.966-13.186c24.099,0.083,54.552,9.392,65.966,13.186V129.729z"/>
		</g>
		<g id="ground_transport_terminal">
			<polygon points="169.682,101.227 175.885,88.277 154.67,67.063 141.721,73.266 132.253,73.81 123.656,82.407 123.221,89.154   153.794,119.727 160.541,119.292 169.138,110.695  "/>
			<path d="M128.424,149.277l-34.753-34.753l-10.665,1.953l-17.274,18.476l-1.157,26.606l16.815,16.815l26.606-1.157l18.476-17.274   L128.424,149.277z M99.75,165.873l-6.374-6.374l8.499-8.499l-9.398-9.398l-8.499,8.499l-6.374-6.374l14.975-14.975l22.147,22.147   L99.75,165.873z"/>
			<path d="M152.458,121.638L121.309,90.49l-13.068,0.751l-11.115,11.115l-1.502,12.017l32.951,32.951l12.017-1.502l11.115-11.115   L152.458,121.638z M130.361,133.08l-6.462-2.585l-10.985-10.985l-1.292-6.677l9.908-9.908l3.985,3.985l-7.862,7.862l11.739,11.739   l7.862-7.862l3.769,3.769L130.361,133.08z"/>
			<polygon points="40.689,110.585 45.496,110.585 45.496,67.753 68.171,67.753 68.171,73.753 51.496,73.753 51.496,180.235   63.95,180.235 63.95,186.235 45.496,186.235 45.496,140.585 40.689,140.585  "/>
			<polygon points="199.41,110.585 194.604,110.585 194.604,67.753 171.928,67.753 171.928,73.753 188.604,73.753 188.604,180.235   176.149,180.235 176.149,186.235 194.604,186.235 194.604,140.585 199.41,140.585  "/>
		</g>
		<g id="warpgate_terminal">
			<path d="M124.416,184.799c-32.202,0-58.401-26.199-58.401-58.401s26.199-58.401,58.401-58.401s58.401,26.199,58.401,58.401   S156.618,184.799,124.416,184.799z M124.416,80.997c-25.034,0-45.401,20.367-45.401,45.401s20.367,45.401,45.401,45.401   s45.401-20.367,45.401-45.401S149.45,80.997,124.416,80.997z"/>
			<path d="M116.478,179.214c-22.192-52.326-22.192-53.313,0-105.632l5.523,2.343c-10.779,25.413-16.189,38.168-16.19,50.471   c0,12.3,5.409,25.055,16.186,50.465L116.478,179.214z"/>
			<path d="M132.578,179.204l-5.528-2.333c10.781-25.421,16.19-38.175,16.19-50.476c0-12.302-5.411-25.058-16.19-50.471l5.523-2.343   C154.765,125.901,154.765,126.888,132.578,179.204z"/>
			<rect height="6" width="102.058" x="74.259" y="123.398"/>
			<path d="M124.477,111.567c-10.794,0-21.784-6.005-39.736-18.014l3.336-4.987c33.882,22.664,39.231,22.668,71.552,0.036l3.441,4.915   C145.885,105.551,135.279,111.567,124.477,111.567z"/>
			<path d="M124.477,142.566c-10.794,0-21.784,6.005-39.736,18.014l3.336,4.987c33.882-22.664,39.231-22.668,71.552-0.036l3.441-4.915   C145.885,148.582,135.279,142.566,124.477,142.566z"/>
			<polygon points="45.689,110.585 50.496,110.585 50.496,67.753 73.171,67.753 73.171,73.753 56.496,73.753 56.496,180.235   68.95,180.235 68.95,186.235 50.496,186.235 50.496,140.585 45.689,140.585  "/>
			<polygon points="204.41,110.585 199.604,110.585 199.604,67.753 176.928,67.753 176.928,73.753 193.604,73.753 193.604,180.235   181.149,180.235 181.149,186.235 199.604,186.235 199.604,140.585 204.41,140.585  "/>
		</g>
		<g id="horizontal_generator">
			<path d="M199.789,47.38c-1.731-0.633-42.494-15.423-75.049-15.618v-0.005c-0.108,0-0.216,0.002-0.324,0.002   c-0.108,0-0.216-0.002-0.324-0.002v0.005C91.537,31.957,50.773,46.746,49.042,47.38l-4.593,1.682v83.934l0.697,1.443   c1.051,2.175,45.051,74.167,79.269,100.62c39.711-27.49,78.218-98.445,79.269-100.62l0.697-1.443V49.062L199.789,47.38z    M190.382,129.729c-4.163,8.095-26.847,50.173-65.966,86.583c-39.119-36.41-61.803-78.487-65.966-86.583V58.947   c11.414-3.794,41.867-13.103,65.966-13.186c24.099,0.083,54.552,9.392,65.966,13.186V129.729z"/>
			<g>
				<line x1="68.343" x2="178.685" y1="110.915" y2="110.915"/>
				<rect height="21" width="110.342" x="68.343" y="100.415"/>
			</g>
			<g>
				<line x1="68.343" x2="178.685" y1="82.534" y2="82.534"/>
				<rect height="13" width="110.342" x="68.343" y="76.034"/>
			</g>
			<g>
				<line x1="76.662" x2="169.877" y1="138.806" y2="138.806"/>
				<rect height="15" width="93.216" x="76.661" y="131.306"/>
			</g>
		</g>
		<g id="vertical_generator">
			<path d="M199.465,44.983c-1.731-0.633-42.494-15.423-75.049-15.618v-0.005c-0.108,0-0.216,0.002-0.324,0.002   c-0.108,0-0.216-0.002-0.324-0.002v0.005C91.213,29.56,50.449,44.35,48.719,44.983l-4.593,1.682v83.934l0.697,1.443   c1.051,2.175,45.051,74.167,79.269,100.62c39.711-27.49,78.218-98.445,79.269-100.62l0.697-1.443V46.666L199.465,44.983z    M190.058,127.333c-4.163,8.095-26.847,50.173-65.966,86.583c-39.119-36.41-61.803-78.487-65.966-86.583V56.55   c11.414-3.794,41.867-13.103,65.966-13.186c24.099,0.083,54.552,9.392,65.966,13.186V127.333z"/>
			<g>
				<line x1="124.092" x2="124.092" y1="60.311" y2="168.32"/>
				<rect height="108.009" width="21" x="113.592" y="60.311"/>
			</g>
			<g>
				<line x1="96.231" x2="96.231" y1="63.836" y2="157.997"/>
				<rect height="94.162" width="14" x="89.231" y="63.836"/>
			</g>
			<g>
				<line x1="152.124" x2="152.124" y1="63.836" y2="157.997"/>
				<rect height="94.162" width="14" x="145.124" y="63.836"/>
			</g>
		</g>
		<g id="galaxy_terminal">
			<polygon points="169.393,93.727 166.494,103.093 161.143,103.093 157.129,93.95 128.586,93.95 126.84,68.529 112.875,68.529   111.129,93.95 82.586,93.95 78.572,103.093 73.22,103.093 70.322,93.727 64.747,93.727 64.747,120.04 70.322,120.04   73.443,110.674 78.795,110.674 82.14,124.5 99.31,124.5 102.209,134.757 110.237,134.757 110.237,163.746 102.209,165.976   100.425,171.773 90.168,173.111 85.931,178.463 90.614,183.815 109.122,183.815 113.359,191.174 126.356,191.174 130.593,183.815   149.101,183.815 153.784,178.463 149.547,173.111 139.29,171.773 137.506,165.976 129.478,163.746 129.478,134.757   137.506,134.757 140.404,124.5 157.575,124.5 160.92,110.674 166.271,110.674 169.393,120.04 174.968,120.04 174.968,93.727  "/>
			<polygon points="40.689,110.585 45.496,110.585 45.496,67.753 68.171,67.753 68.171,73.753 51.496,73.753 51.496,180.235   63.95,180.235 63.95,186.235 45.496,186.235 45.496,140.585 40.689,140.585  "/>
			<polygon points="199.41,110.585 194.604,110.585 194.604,67.753 171.928,67.753 171.928,73.753 188.604,73.753 188.604,180.235   176.149,180.235 176.149,186.235 194.604,186.235 194.604,140.585 199.41,140.585  "/>
		</g>
		<g id="ammo_tower">
			<polygon points="77.675,169.189 25.265,169.189 25.265,27.788 167.152,27.788 167.152,100.92 153.152,100.92 153.152,41.788   54.633,41.788 39.265,55.698 39.265,155.189 77.675,155.189  "/>
			<g>
				<polygon points="110.914,79.473 110.914,52.473 67.611,52.473 67.611,62.489 61.316,62.489 61.316,52.473 49.201,52.473    49.201,79.473 61.316,79.473 61.316,69.691 67.611,69.691 67.611,79.473   "/>
				<polygon points="115.807,52.473 115.807,79.473 141.807,65.973   "/>
			</g>
			<g>
				<polygon points="110.914,111.989 110.914,84.989 67.611,84.989 67.611,95.005 61.316,95.005 61.316,84.989 49.201,84.989    49.201,111.989 61.316,111.989 61.316,102.208 67.611,102.208 67.611,111.989   "/>
				<polygon points="115.807,84.989 115.807,111.989 141.807,98.489   "/>
			</g>
			<g>
				<polygon points="84.583,130.206 106.15,130.206 106.15,116.707 67.611,116.707 67.611,126.723 61.316,126.723 61.316,116.707    49.201,116.707 49.201,143.706 61.316,143.706 61.316,133.925 67.611,133.925 67.611,143.706 84.583,143.706   "/>
			</g>
			<polygon points="115.807,126.398 188.075,126.398 188.075,130.206 246.509,130.206 246.509,140.25 188.075,140.25 188.075,147.14   144.855,147.14 144.855,143.706 124.416,143.706  "/>
			<polygon points="98.592,153.021 88.979,162.635 101.396,175.052 203.139,175.052 203.139,164.037 217.158,164.037 217.158,157.828   135.719,157.828 135.719,153.021  "/>
		</g>
		<g id="spawn_beacon">
			<path d="M155.241,36.723h-25.314v-3.28c0-3.038-2.462-25.5-5.5-25.5c-0.002,0-0.004,0-0.005,0s-0.004,0-0.005,0   c-3.038,0-5.5,22.462-5.5,25.5v3.28H93.602c-0.911,0-77.412,2.462-77.412,5.5s76.501,5.5,77.412,5.5H113L90.607,55.88v78.614   l-7.594,7.594v94.969h-2.195c-3.038,0-5.5,2.462-5.5,5.5s2.462,5.5,5.5,5.5h36.896v-8.311h3.831h5.752h3.831v8.311h36.896   c3.038,0,5.5-2.462,5.5-5.5s-2.462-5.5-5.5-5.5h-2.195v-94.969l-7.594-7.594V55.88l-22.392-8.158h19.398   c0.911,0,77.412-2.462,77.412-5.5S156.152,36.723,155.241,36.723z M147.235,63.581v67.437l-9.745,2.2v6.6l12.711,2.2l4.627,4.627   v90.412h-12.701v-8.311h-14.831h-5.752h-14.831v8.311H94.013v-90.412l4.627-4.627l12.711-2.2v-6.6l-9.745-2.2V63.581l22.814-8.311   L147.235,63.581z"/>
		</g>
		<g id="aircraft_terminal">
			<polygon points="113.986,107.686 87.695,127.596 72.636,113.302 58.852,113.812 96.699,178.126 101.734,163.331 96.374,144.698   127.259,129.638 138.746,164.607 152.274,147.505 156.103,131.68 156.103,112.536 171.929,100.539 171.929,88.287 159.261,87.323   140.533,93.137 126.894,84.004 108.793,77.675 86.506,79.417  "/>
			<polygon points="40.689,110.585 45.496,110.585 45.496,67.753 68.171,67.753 68.171,73.753 51.496,73.753 51.496,180.235   63.95,180.235 63.95,186.235 45.496,186.235 45.496,140.585 40.689,140.585  "/>
			<polygon points="199.41,110.585 194.604,110.585 194.604,67.753 171.928,67.753 171.928,73.753 188.604,73.753 188.604,180.235   176.149,180.235 176.149,186.235 194.604,186.235 194.604,140.585 199.41,140.585  "/>
		</g>
		<g id="ground_vehicle_terminal">
			<g>
				<polygon points="116.634,90.505 116.634,93.505 116.634,124.924 114.271,127.286 125.593,127.286 123.252,124.924 123.252,93.505    123.252,90.505 123.252,75.445 128.89,71.308 128.89,67.391 119.943,57.186 110.996,67.391 110.996,71.308 116.634,75.445   "/>
				<polygon points="128.18,129.852 111.717,129.852 109.088,132.469 109.088,161.291 112.583,164.786 127.303,164.786    130.797,161.291 130.797,132.469   "/>
			</g>
			<polygon points="151.659,93.505 126.252,93.505 126.252,123.681 132.919,130.348 133.797,131.227 133.797,132.469 133.797,161.291   133.797,162.534 132.919,163.412 129.424,166.907 128.546,167.786 127.303,167.786 112.583,167.786 111.34,167.786   110.462,166.907 106.967,163.412 106.088,162.534 106.088,161.291 106.088,132.469 106.088,131.227 106.967,130.348   113.634,123.681 113.634,93.505 88.667,93.505 82.482,100.432 82.482,177.867 94.071,177.867 102.769,187.763 116.034,187.763   124.292,187.763 137.558,187.763 146.255,177.867 157.844,177.867 157.844,100.432  "/>
			<polygon points="40.689,110.585 45.496,110.585 45.496,67.753 68.171,67.753 68.171,73.753 51.496,73.753 51.496,180.235   63.95,180.235 63.95,186.235 45.496,186.235 45.496,140.585 40.689,140.585  "/>
			<polygon points="199.41,110.585 194.604,110.585 194.604,67.753 171.928,67.753 171.928,73.753 188.604,73.753 188.604,180.235   176.149,180.235 176.149,186.235 194.604,186.235 194.604,140.585 199.41,140.585  "/>
		</g>
		<g id="landing_pad">
			<polygon points="96.208,169.189 25.265,169.189 25.265,27.788 167.152,27.788 167.152,100.92 153.152,100.92 153.152,41.788   54.633,41.788 39.265,55.698 39.265,155.189 96.208,155.189  "/>
			<g>
				<polygon points="110.914,79.473 110.914,52.473 67.611,52.473 67.611,62.489 61.316,62.489 61.316,52.473 49.201,52.473    49.201,79.473 61.316,79.473 61.316,69.691 67.611,69.691 67.611,79.473   "/>
				<polygon points="115.807,52.473 115.807,79.473 141.807,65.973   "/>
			</g>
			<g>
				<polygon points="110.914,111.989 110.914,84.989 67.611,84.989 67.611,95.005 61.316,95.005 61.316,84.989 49.201,84.989    49.201,111.989 61.316,111.989 61.316,102.208 67.611,102.208 67.611,111.989   "/>
				<polygon points="115.807,84.989 115.807,111.989 141.807,98.489   "/>
			</g>
			<g>
				<polygon points="110.914,143.706 110.914,116.707 67.611,116.707 67.611,126.723 61.316,126.723 61.316,116.707 49.201,116.707    49.201,143.706 61.316,143.706 61.316,133.925 67.611,133.925 67.611,143.706   "/>
				<polygon points="115.807,116.707 115.807,143.706 141.807,130.206   "/>
			</g>
			<path d="M172.196,168.487h42.284l-6.193-11.358l-36.091-15.704v-22.437c0-4.418-3.581-11.325-8-11.325s-8,6.907-8,11.325v22.643   l-35.618,15.498l-6.193,11.358h41.811v28.608h-25.408v7.358c0,3.038,2.462,9.5,5.5,9.5s5.5-5.858,5.5-5.858h22.645   c0.317,0,0.625-0.033,0.927-0.084c0.302,0.051,0.611,0.084,0.927,0.084h22.645c0,0,2.462,5.858,5.5,5.858s5.5-6.462,5.5-9.5v-7.358   h-27.737V168.487z"/>
		</g>
		<g id="warpgate">
			<circle cx="124.616" cy="126.18" r="115.43" stroke-miterlimit="10" stroke-width="13"/>
			<path d="M161.244,74.419c0,0,44.073,46.646,31.553,72.676c-12.835-5.45-34.391-6.536-47.5-6.641   c-11.343-17.141-21.661-88.018-21.661-88.018s-10.327,70.941-21.677,88.041c-13.215,0.194-33.364,1.422-45.6,6.618   c-12.52-26.029,31.553-72.676,31.553-72.676c-34.928,14.936-73.303,71.924-37.686,96.512l-0.613-3.253   c0.206-3.531,3.155-9.237,18.077-13.521c5.542-1.591,24.589-2.879,36.966-3.574c3.993,3.06,11.125,5.106,19.286,5.106   c8.219,0,15.395-2.076,19.371-5.172c12.308,0.677,32.43,1.997,38.153,3.64c14.922,4.285,17.871,9.99,18.077,13.521l-0.613,3.253   C234.547,146.343,196.172,89.355,161.244,74.419z"/>
		</g>
		<g id="small_outpost">
			<circle cx="124.616" cy="126.18" r="115.43" stroke-miterlimit="10" stroke-width="13"/>
			<polygon points="144.126,67.053 144.11,67.066 104.156,67.066 104.14,67.053 57.149,115.235 57.149,149.101   57.149,171.161 109.312,171.161 109.312,149.101 79.439,149.101 79.439,118.768 108.324,89.125 139.942,89.125 168.827,118.768   168.827,149.101 138.954,149.101 138.954,171.161 191.117,171.161 191.117,149.101 191.117,115.235  "/>
		</g>
		<g id="large_outpost">
			<circle cx="124.616" cy="126.18" r="115.43" stroke-miterlimit="10" stroke-width="13"/>
			<polygon points="213.688,81.542 180.598,81.542 180.598,81.848 180.578,81.848 152.507,53.968 96.577,53.968   68.506,81.848 68.485,81.848 68.485,81.542 35.395,81.542 35.395,120.147 49.183,120.147 49.183,186.021 109.235,186.02   109.235,163.654 87.788,163.654 87.788,98.971 107.187,79.704 141.897,79.704 161.295,98.97 161.295,163.654 138.725,163.654   138.725,186.02 199.9,186.021 199.9,120.147 213.688,120.147  "/>
		</g>
		<g id="amp_station">
			<circle cx="124.616" cy="126.18" r="115.43" stroke-miterlimit="10" stroke-width="13"/>
			<polygon points="133.543,44.554 79.054,135.14 122.843,139.927 97.7,207.804 170.178,116.893 125.278,112.316  "/>
		</g>
		<g id="bio_lab">
			<circle cx="124.616" cy="126.18" r="115.43" stroke-miterlimit="10" stroke-width="13"/>
			<path d="M175.538,160.79c-11.703-18.71-28.05-44.486-36.583-57.92V75.568h22.366V59.023H87.175v16.545h22.366   v26.895c-8.46,13.318-25.022,39.432-36.841,58.327c-4.399,7.033-7.693,18.051-4.525,25.623c1.577,3.769,4.546,6.314,8.361,7.165   l0.791,0.176h41.057h11.468h41.057l0.791-0.176c3.815-0.851,6.784-3.396,8.361-7.165   C183.23,178.842,179.937,167.824,175.538,160.79z M129.853,179.048h-11.468H81.609c0.118-2.412,1.129-6.573,3.559-10.459   c12.914-20.645,31.504-49.929,38.95-61.644c7.446,11.715,26.036,40.999,38.951,61.644c2.43,3.886,3.44,8.047,3.558,10.459H129.853z   "/>
		</g>
		<g id="tech_plant">
			<circle cx="124.616" cy="126.18" r="115.43" stroke-miterlimit="10" stroke-width="13"/>
			<path d="M169.019,66.659c-12.131,0-22.268,8.679-24.538,20.153h-40.089V67.733H57.403v47.886h46.989V96.541h40.089   c2.27,11.474,12.409,20.153,24.538,20.153c13.795,0,25.017-11.222,25.017-25.017S182.814,66.659,169.019,66.659z M94.663,105.891   H67.132V77.461h27.531V105.891z M169.019,106.964c-8.43,0-15.288-6.858-15.288-15.288s6.858-15.288,15.288-15.288   s15.288,6.858,15.288,15.288S177.45,106.964,169.019,106.964z"/>
			<path d="M169.019,134.861c-12.131,0-22.268,8.679-24.538,20.153h-38.994c-2.27-11.474-12.409-20.153-24.538-20.153   c-13.795,0-25.017,11.222-25.017,25.017s11.222,25.017,25.017,25.017c12.131,0,22.268-8.679,24.538-20.153h38.994   c2.27,11.474,12.409,20.153,24.538,20.153c13.795,0,25.017-11.222,25.017-25.017S182.814,134.861,169.019,134.861z M80.948,175.166   c-8.43,0-15.288-6.858-15.288-15.288s6.858-15.288,15.288-15.288s15.288,6.858,15.288,15.288S89.378,175.166,80.948,175.166z    M169.019,175.166c-8.43,0-15.288-6.858-15.288-15.288s6.858-15.288,15.288-15.288s15.288,6.858,15.288,15.288   S177.45,175.166,169.019,175.166z"/>
		</g>
		<g id="vs_logo">
			<g>
				<radialGradient cx="355.7381" cy="-280.1772" fx="337.9591" fy="-338.7921" gradientTransform="matrix(1 0 0 -1 -279 -171)" gradientUnits="userSpaceOnUse" id="SVGID_1_" r="87.749">
					<stop offset="0" style="stop-color:#E1E1E1"/>
					<stop offset="1" style="stop-color:#52B848"/>
				</radialGradient>
				<path d="M109.658,173.965c-29.569-6.825-51.614-33.319-51.614-64.962c0-14.028,4.332-27.044,11.732-37.782    L58.933,59.92c-10.228,13.687-16.284,30.674-16.284,49.075c0,40.963,30.012,74.916,69.247,81.069L109.658,173.965z" fill="url(#SVGID_1_)"/>
				<path d="M112.838,191.023l-1.067-0.167c-19.296-3.026-36.989-12.881-49.819-27.75    c-6.355-7.365-11.318-15.69-14.751-24.745c-3.553-9.373-5.354-19.253-5.354-29.367c0-9.092,1.463-18.029,4.349-26.562    c2.79-8.251,6.86-15.987,12.095-22.993l0.566-0.757l11.951,12.455l-0.371,0.538c-7.583,11.004-11.591,23.912-11.591,37.328    c0,30.859,20.969,57.251,50.993,64.181l0.538,0.124L112.838,191.023z M59.013,61.161C48.827,75.119,43.45,91.636,43.45,108.995    c0,39.923,28.322,73.439,67.502,80.103l-2.012-14.478c-14.402-3.452-27.454-11.72-36.801-23.326    c-4.725-5.867-8.407-12.421-10.942-19.479c-2.624-7.304-3.954-14.979-3.954-22.811c0-13.523,3.976-26.543,11.505-37.697    L59.013,61.161z" fill="#010101"/>
			</g>
			<g>
				<radialGradient cx="450.8338" cy="-300.2029" fx="474.4737" fy="-388.1387" gradientTransform="matrix(1 0 0 -1 -279 -171)" gradientUnits="userSpaceOnUse" id="SVGID_2_" r="91.058">
					<stop offset="0" style="stop-color:#E1E1E1"/>
					<stop offset="0.4685" style="stop-color:#8FCB87"/>
					<stop offset="0.8294" style="stop-color:#62BC4D"/>
					<stop offset="1" style="stop-color:#52B848"/>
				</radialGradient>
				<path d="M137.211,190.113c39.391-6.019,69.567-40.045,69.567-81.119c0-18.05-5.827-34.739-15.704-48.288    l-11.374,10.587c7.37,10.725,11.682,23.714,11.682,37.71c0,31.725-22.159,58.274-51.844,65.014L137.211,190.113z" fill="url(#SVGID_2_)"/>
				<path d="M136.263,191.069l2.56-17.711l0.537-0.122c30.158-6.848,51.22-33.261,51.22-64.233    c0-13.385-3.991-26.268-11.542-37.256l-0.391-0.57l12.542-11.674l0.532,0.73c10.374,14.232,15.858,31.093,15.858,48.761    c0,10.141-1.811,20.047-5.383,29.441c-3.45,9.076-8.438,17.416-14.825,24.789c-12.899,14.891-30.67,24.722-50.04,27.681    L136.263,191.069z M140.252,174.675l-2.092,14.475c38.739-6.458,67.816-40.725,67.816-80.156c0-17.023-5.191-33.283-15.022-47.083    l-10.206,9.5c7.483,11.13,11.435,24.113,11.435,37.592c0,7.852-1.337,15.545-3.974,22.866c-2.548,7.074-6.247,13.64-10.995,19.514    C167.819,163.008,154.71,171.264,140.252,174.675z" fill="#010101"/>
			</g>
			<g>
				<linearGradient gradientTransform="matrix(1 0 0 -1 -279 -171)" gradientUnits="userSpaceOnUse" id="SVGID_3_" x1="432.4497" x2="432.4497" y1="-198.2627" y2="-224.2236">
					<stop offset="0" style="stop-color:#CDCCCC"/>
					<stop offset="0.4194" style="stop-color:#88C986"/>
					<stop offset="0.8129" style="stop-color:#5FBB4C"/>
					<stop offset="1" style="stop-color:#52B848"/>
				</linearGradient>
				<path d="M140.909,44.316c7.333,1.83,14.186,4.875,20.332,8.908l13.505-9.282    c-12.005-9.247-26.642-15.245-42.594-16.679L140.909,44.316z" fill="url(#SVGID_3_)"/>
				<path d="M161.252,54.189l-0.45-0.295c-6.18-4.055-12.938-7.016-20.086-8.8l-0.353-0.088l-9.587-18.671l1.449,0.13    c15.661,1.407,30.534,7.231,43.011,16.842l0.872,0.672L161.252,54.189z M141.457,43.628c7.019,1.792,13.667,4.695,19.772,8.632    l12.15-8.351c-11.661-8.734-25.385-14.142-39.841-15.704L141.457,43.628z" fill="#010101"/>
			</g>
			<g>
				<linearGradient gradientTransform="matrix(1 0 0 -1 -279 -171)" gradientUnits="userSpaceOnUse" id="SVGID_4_" x1="375.2777" x2="375.2777" y1="-198.2204" y2="-223.7514">
					<stop offset="0" style="stop-color:#CDCCCC"/>
					<stop offset="0.4119" style="stop-color:#88C987"/>
					<stop offset="0.8108" style="stop-color:#60BB4D"/>
					<stop offset="1" style="stop-color:#52B848"/>
				</linearGradient>
				<path d="M117.76,27.22c-16.09,1.35-30.86,7.342-42.966,16.632l14.12,8.899    c6.258-3.991,13.226-6.966,20.673-8.693L117.76,27.22z" fill="url(#SVGID_4_)"/>
				<path d="M88.917,53.7l-15.523-9.783l0.913-0.7c12.59-9.663,27.593-15.47,43.386-16.795l1.403-0.118l-8.954,18.448    l-0.373,0.086c-7.254,1.683-14.126,4.572-20.423,8.588L88.917,53.7z M76.203,43.793l12.711,8.011    c6.225-3.905,12.99-6.742,20.119-8.439l7.385-15.216C101.832,29.629,87.978,35.017,76.203,43.793z" fill="#010101"/>
			</g>
			<g>
				<radialGradient cx="402.7798" cy="-425.0861" gradientTransform="matrix(1 0 0 -1 -279 -171)" gradientUnits="userSpaceOnUse" id="SVGID_5_" r="266.8567">
					<stop offset="0" style="stop-color:#52B848"/>
					<stop offset="1" style="stop-color:#CDCCCC"/>
				</radialGradient>
				<path d="M122.896,104.72L91.481,89.12L4.021,2.006c0,0-0.721-2.084,1.282-0.882    s104.451,68.761,104.451,68.761l14.888,30.774L140.1,70.847L243.429,1.392c0,0,4.702-3.526,0.641,1.923    c-4.061,5.45-85.591,85.591-85.591,85.591l-31.736,15.815l15.067,31.308l-15.174,113.8c0,0-1.87,10.204-3.473,0.534    s-16.242-114.041-16.242-114.041L122.896,104.72z" fill="url(#SVGID_5_)"/>
				<path d="M124.722,255.328c-1.128,0-1.764-1.31-2.348-4.834c-1.586-9.569-16.099-113.017-16.245-114.06    l-0.035-0.249l15.724-31.106l-30.809-15.3l-0.092-0.092L3.324,2.443L3.263,2.268C3.143,1.92,2.91,1.046,3.341,0.44    c0.225-0.316,0.576-0.49,0.987-0.49c0.392,0,0.832,0.155,1.387,0.488c1.995,1.197,100.296,66.02,104.479,68.779l0.184,0.122    l14.287,29.533l14.817-28.574l0.17-0.114L242.965,0.738c0.642-0.48,1.809-1.27,2.536-1.27c0.402,0,0.743,0.202,0.913,0.54    c0.299,0.595,0.118,1.344-1.701,3.785c-4.051,5.437-82.341,82.409-85.672,85.683l-0.091,0.089l-0.114,0.057l-31.028,15.462    l14.828,30.812l-0.032,0.238l-15.176,113.82l-0.004,0.019c-0.009,0.05-0.227,1.23-0.582,2.431    C126.237,254.454,125.603,255.328,124.722,255.328z M107.75,136.46c0.8,5.702,14.659,104.451,16.204,113.772    c0.314,1.895,0.606,2.795,0.793,3.215c0.356-0.691,0.822-2.246,1.098-3.744l15.139-113.543l-15.305-31.805l32.33-16.11    c3.14-3.088,81.501-80.151,85.419-85.409c0.274-0.368,0.498-0.681,0.68-0.948c-0.067,0.048-0.133,0.096-0.198,0.145l-0.034,0.024    L140.717,71.398l-16.101,31.051l-15.488-32.015C104.305,67.253,10.235,5.221,5.082,1.932L91.954,88.46l32.021,15.902    L107.75,136.46z" fill="#010101"/>
			</g>
			<g>
				<radialGradient cx="403.713" cy="-259.6387" gradientTransform="matrix(1 0 0 -1 -279 -171)" gradientUnits="userSpaceOnUse" id="SVGID_6_" r="59.6424">
					<stop offset="0" style="stop-color:#52B848"/>
					<stop offset="0.1506" style="stop-color:#55B948"/>
					<stop offset="0.3137" style="stop-color:#5CBA48"/>
					<stop offset="0.4827" style="stop-color:#68BE5C"/>
					<stop offset="0.6557" style="stop-color:#7CC579"/>
					<stop offset="0.83" style="stop-color:#9FCC9F"/>
					<stop offset="1" style="stop-color:#CDCCCC"/>
				</radialGradient>
				<polygon fill="url(#SVGID_6_)" points="124.808,89.761 107.082,55.247 124.808,19.878 143.092,54.819   "/>
				<path d="M124.802,91.502l-18.618-36.251l18.609-37.131l19.204,36.699l-0.195,0.372L124.802,91.502z     M107.981,55.242l16.834,32.777l17.373-33.2l-17.364-33.184L107.981,55.242z" fill="#010101"/>
			</g>
			<radialGradient cx="404.4018" cy="-272.8476" gradientTransform="matrix(1 0 0 -1 -279 -171)" gradientUnits="userSpaceOnUse" id="SVGID_7_" r="119.2929">
				<stop offset="0" style="stop-color:#5E57A5"/>
				<stop offset="1" style="stop-color:#07070B"/>
			</radialGradient>
			<polygon fill="url(#SVGID_7_)" points="121.668,100.66 92.817,86.876 20.85,14.588 107.403,71.969  "/>
			<radialGradient cx="404.4018" cy="-272.8476" gradientTransform="matrix(1 0 0 -1 -279 -171)" gradientUnits="userSpaceOnUse" id="SVGID_8_" r="120.2132">
				<stop offset="0" style="stop-color:#5E57A5"/>
				<stop offset="1" style="stop-color:#07070B"/>
			</radialGradient>
			<polygon fill="url(#SVGID_8_)" points="128.346,100.66 142.023,72.771 228.469,14.588 157.09,87.089  "/>
			<radialGradient cx="403.713" cy="-418.7988" gradientTransform="matrix(1 0 0 -1 -279 -171)" gradientUnits="userSpaceOnUse" id="SVGID_9_" r="139.7662">
				<stop offset="0" style="stop-color:#5E57A5"/>
				<stop offset="1" style="stop-color:#07070B"/>
			</radialGradient>
			<polygon fill="url(#SVGID_9_)" points="124.953,107.739 139.245,137.097 124.921,241.281 110.074,136.991  "/>
			<radialGradient cx="403.7607" cy="-253.9343" gradientTransform="matrix(1 0 0 -1 -279 -171)" gradientUnits="userSpaceOnUse" id="SVGID_10_" r="48.2215">
				<stop offset="0" style="stop-color:#5E57A5"/>
				<stop offset="1" style="stop-color:#07070B"/>
			</radialGradient>
			<polygon fill="url(#SVGID_10_)" points="124.953,84.739 110.074,55.247 124.953,25.755 139.833,55.247  "/>
		</g>
		<g id="tr_logo">
			<polygon fill="#010101" points="124.861,1.825 109.973,25.405 109.973,60.776 21.289,60.776 124.689,255.527 228.492,60.776   139.147,60.776 139.168,25.427  "/>
			<polygon fill="#C62026" points="41.556,71.447 104.121,71.447 65.145,121.668  "/>
			<polygon fill="#C62026" points="110.489,215.251 110.489,84.098 66.083,123.857  "/>
			<polygon fill="#C62026" points="208.08,71.447 145.515,71.447 184.491,121.668  "/>
			<polygon fill="#C62026" points="139.147,215.251 139.147,84.098 183.553,123.857  "/>
		</g>
		<g id="nc_logo">
			<g>
				<linearGradient gradientTransform="matrix(1 0 0 -1 1642 389)" gradientUnits="userSpaceOnUse" id="SVGID_11_" x1="-1505.4192" x2="-1505.4192" y1="367.5038" y2="208.7957">
					<stop offset="0" style="stop-color:#2F4DA1"/>
					<stop offset="1" style="stop-color:#030405"/>
				</linearGradient>
				<path d="M81.035,25.89l51.993,51.86c0,0-27.234-14.034-54.578,6.29c-4.689,3.485-5.916,4.798-8.581,8.209    c0,0-5.12,5.901-7.835,12.368c-1.744,4.155-3.078,8.829-3.731,12.05c0,0-2.661,10.04,1.119,24.474    c2.931,11.193,10.287,19.261,12.099,21.5c1.812,2.239,15.67,16.669,36.883,17.522c21.213,0.853,36.137-11.806,36.137-11.806    h62.476c5.629-12.861,8.753-27.068,8.753-42.006c0-57.91-46.945-104.856-104.856-104.856c-10.417,0-20.399,1.546-29.897,4.375    L81.035,25.89z" fill="url(#SVGID_11_)"/>
			</g>
			<linearGradient gradientTransform="matrix(1 0 0 -1 1642 389)" gradientUnits="userSpaceOnUse" id="SVGID_12_" x1="-1511.0706" x2="-1511.0706" y1="363.1292" y2="157.8298">
				<stop offset="0" style="stop-color:#F6EB16"/>
				<stop offset="1" style="stop-color:#F8961D"/>
			</linearGradient>
			<path d="M58.649,35.403L72,74.765l-0.027-0.027L41.813,47.393c-2.934,2.461-6.329,6.072-6.329,6.072   l22.392,32.439L23.257,68.66c0,0-3.837,6.317-4.556,7.516l28.516,24.065l-35.631-7.755c-1.626,3.864-2.638,8.821-2.638,8.821   l32.646,15.03L6.389,117.83c-0.48,2.878-0.48,9.434-0.48,9.434l31.739,5.556l-30.54,8.914c0,0,1,7.808,1.826,9.9l31.153-1.546   l-26.423,15.87c0,0,2.559,6.769,3.758,8.475l30.433-10.127l-22.249,23.438c0,0,4.107,5.696,6.346,7.935l27.202-18.368   l-16.696,28.741c0,0,3.531,3.265,7.369,5.85l23.345-24.997l-8.661,33.818c0,0,5.663,2.745,8.674,3.864l17.089-30.767l0.06,35.617   c0,0,3.318,0.859,9.634,1.519l8.12-37.355l10.601,37.568c0,0,45.571-1.093,75.311-40.587l51.733,0.16c0,0,2.478-0.08,3.138,2.578   l0.04,5.576c0,0,4.357-2.265,6.463-7.382c0.754-1.832,0.69-4.678,0.24-6.289c-0.693-2.478-2.009-4.25-3.171-5.25   c-4.584-3.944-16.283-5.063-16.283-5.063l-11.033-6.556H144.54c0,0-14.924,12.659-36.137,11.806   c-21.213-0.853-35.071-15.283-36.883-17.522c-1.812-2.239-9.167-10.307-12.099-21.499c-3.78-14.435-1.119-24.474-1.119-24.474   c0.653-3.221,1.987-7.895,3.731-12.05c2.715-6.467,7.835-12.368,7.835-12.368c2.665-3.411,3.893-4.724,8.581-8.209   c27.344-20.324,54.578-6.29,54.578-6.29L81.016,25.871C81.016,25.871,69.895,28.581,58.649,35.403z" fill="url(#SVGID_12_)"/>
			<g>
				<linearGradient gradientUnits="userSpaceOnUse" id="SVGID_13_" x1="29.6998" x2="29.6997" y1="518.2525" y2="-18.1784">
					<stop offset="0" style="stop-color:#FFC907"/>
					<stop offset="0.255" style="stop-color:#E89B24"/>
					<stop offset="0.8317" style="stop-color:#AD2923"/>
					<stop offset="1" style="stop-color:#9B1B1F"/>
				</linearGradient>
				<path d="M38.963,98.445l8.253,1.796L18.909,76.12c1.389-2.537,2.877-5.013,4.463-7.417l-5.559-2.772    c-1.291,1.996-2.52,4.035-3.684,6.116l0,0l-0.02,0.037c-0.663,1.187-1.306,2.386-1.927,3.599L38.963,98.445z" fill="url(#SVGID_13_)"/>
				<linearGradient gradientUnits="userSpaceOnUse" id="SVGID_14_" x1="22.648" x2="22.648" y1="427.1036" y2="28.7389">
					<stop offset="0" style="stop-color:#FFC907"/>
					<stop offset="0.255" style="stop-color:#E89B24"/>
					<stop offset="0.8317" style="stop-color:#AD2923"/>
					<stop offset="1" style="stop-color:#9B1B1F"/>
				</linearGradient>
				<path d="M2.61,102.381l30.907,14.299l9.169-0.449L9.194,101.017c0.716-2.885,1.549-5.724,2.498-8.508    L5.683,91.2c-0.791,2.382-1.503,4.801-2.135,7.252l-0.001-0.001l-0.025,0.106C3.197,99.823,2.891,101.097,2.61,102.381    L2.61,102.381z" fill="url(#SVGID_14_)"/>
				<linearGradient gradientUnits="userSpaceOnUse" id="SVGID_15_" x1="40.249" x2="40.2489" y1="496.4362" y2="117.9707">
					<stop offset="0" style="stop-color:#FFC907"/>
					<stop offset="0.255" style="stop-color:#E89B24"/>
					<stop offset="0.8317" style="stop-color:#AD2923"/>
					<stop offset="1" style="stop-color:#9B1B1F"/>
				</linearGradient>
				<path d="M56.384,183.335l2.771-6.023l-27.306,17.836c-2.167-2.488-4.22-5.078-6.147-7.764l-4.36,4.527    c1.67,2.29,3.427,4.511,5.263,6.663l-0.002,0.001l0.098,0.111c0.82,0.958,1.653,1.904,2.504,2.834l5.25-3.484    c-0.006-0.006-0.011-0.012-0.016-0.018L56.384,183.335z" fill="url(#SVGID_15_)"/>
				<linearGradient gradientUnits="userSpaceOnUse" id="SVGID_16_" x1="76.9709" x2="76.9709" y1="704.2555" y2="97.0256">
					<stop offset="0" style="stop-color:#FFC907"/>
					<stop offset="0.255" style="stop-color:#E89B24"/>
					<stop offset="0.8317" style="stop-color:#AD2923"/>
					<stop offset="1" style="stop-color:#9B1B1F"/>
				</linearGradient>
				<path d="M91.028,192.235l-17.742,31.962c-2.986-1.149-5.907-2.428-8.755-3.836l-1.618,6.249    c3.456,1.667,7.012,3.157,10.656,4.464l17.032-30.311L91.028,192.235z" fill="url(#SVGID_16_)"/>
				<linearGradient gradientUnits="userSpaceOnUse" id="SVGID_17_" x1="100.2222" x2="100.2222" y1="784.9406" y2="82.0222">
					<stop offset="0" style="stop-color:#FFC907"/>
					<stop offset="0.255" style="stop-color:#E89B24"/>
					<stop offset="0.8317" style="stop-color:#AD2923"/>
					<stop offset="1" style="stop-color:#9B1B1F"/>
				</linearGradient>
				<path d="M107.871,192.235l-8.192,38.324c-3.213-0.342-6.384-0.827-9.503-1.453v6.491    c2.688,0.51,5.411,0.92,8.163,1.232l-0.001,0.003l0.151,0.015c1.21,0.135,2.425,0.253,3.647,0.349l1.374-6.296    c-0.003,0-0.007-0.001-0.01-0.001l6.769-31.255L107.871,192.235z" fill="url(#SVGID_17_)"/>
				<linearGradient gradientUnits="userSpaceOnUse" id="SVGID_18_" x1="18.8374" x2="18.8373" y1="347.7672" y2="74.7946">
					<stop offset="0" style="stop-color:#FFC907"/>
					<stop offset="0.255" style="stop-color:#E89B24"/>
					<stop offset="0.8317" style="stop-color:#AD2923"/>
					<stop offset="1" style="stop-color:#9B1B1F"/>
				</linearGradient>
				<path d="M6.209,130.984l23.786,4.07l7.655-2.234l-31.538-5.641c-0.002-0.276-0.005-0.551-0.005-0.828    c0-2.949,0.124-5.869,0.363-8.757l-6.121,0.207c-0.207,2.736-0.315,5.501-0.322,8.289l-0.001,0l0.001,0.038    c0,0.074-0.001,0.149-0.001,0.223c0,1.2,0.021,2.394,0.059,3.585l6.127,1.092C6.21,131.014,6.21,130.999,6.209,130.984z" fill="url(#SVGID_18_)"/>
				<linearGradient gradientUnits="userSpaceOnUse" id="SVGID_19_" x1="56.4129" x2="56.4128" y1="605.4302" y2="108.765">
					<stop offset="0" style="stop-color:#FFC907"/>
					<stop offset="0.255" style="stop-color:#E89B24"/>
					<stop offset="0.8317" style="stop-color:#AD2923"/>
					<stop offset="1" style="stop-color:#9B1B1F"/>
				</linearGradient>
				<path d="M71.894,193.834l1.599-7.195l-23.557,24.96c-2.553-1.829-5.022-3.768-7.396-5.814l-3.207,5.488    c2.024,1.717,4.112,3.361,6.257,4.931l-0.001,0.001l0.105,0.074c0.992,0.724,1.994,1.434,3.011,2.126l0,0l0,0l0.169-0.179    l4.209-4.456l-0.002-0.002L71.894,193.834z" fill="url(#SVGID_19_)"/>
				<linearGradient gradientUnits="userSpaceOnUse" id="SVGID_20_" x1="20.6976" x2="20.6976" y1="323.1132" y2="107.8554">
					<stop offset="0" style="stop-color:#FFC907"/>
					<stop offset="0.255" style="stop-color:#E89B24"/>
					<stop offset="0.8317" style="stop-color:#AD2923"/>
					<stop offset="1" style="stop-color:#9B1B1F"/>
				</linearGradient>
				<path d="M4.838,155.324l29.96-1.517l5.29-3.718l-31.001,1.167c-0.77-3.163-1.4-6.382-1.876-9.65    l-5.903,1.705c0.421,2.761,0.947,5.488,1.567,8.179l-0.002,0l0.035,0.141c0.291,1.253,0.6,2.498,0.932,3.734l0.002,0.009l0,0l0,0    L4.838,155.324z" fill="url(#SVGID_20_)"/>
				<linearGradient gradientUnits="userSpaceOnUse" id="SVGID_21_" x1="137.4956" x2="137.4953" y1="2034.7107" y2="-360.3688">
					<stop offset="0" style="stop-color:#FFC907"/>
					<stop offset="0.255" style="stop-color:#E89B24"/>
					<stop offset="0.8317" style="stop-color:#AD2923"/>
					<stop offset="1" style="stop-color:#9B1B1F"/>
				</linearGradient>
				<path d="M110.913,15.164c-21.146,0-40.908,5.936-57.723,16.235L67.47,71.14l4.597,3.798L58.66,35.483    c15.382-8.865,33.225-13.938,52.253-13.938c57.883,0,104.807,46.964,104.807,104.847c0,14.907-3.114,29.014-8.725,41.966h6.65    c5.257-12.952,8.155-27.133,8.155-41.966C221.8,64.985,172.155,15.164,110.913,15.164z" fill="url(#SVGID_21_)"/>
				<linearGradient gradientUnits="userSpaceOnUse" id="SVGID_22_" x1="43.6498" x2="43.6497" y1="605.2318" y2="-61.2182">
					<stop offset="0" style="stop-color:#FFC907"/>
					<stop offset="0.255" style="stop-color:#E89B24"/>
					<stop offset="0.8317" style="stop-color:#AD2923"/>
					<stop offset="1" style="stop-color:#9B1B1F"/>
				</linearGradient>
				<path d="M33.043,56.206c0.005-0.005,0.01-0.011,0.015-0.016l18.376,26.505l6.444,3.209L35.683,53.386    c1.984-2.045,4.048-4.011,6.192-5.889l-4.663-4.22c-1.755,1.566-3.458,3.188-5.11,4.862l0-0.001l-0.038,0.04    c-0.896,0.908-1.777,1.831-2.641,2.77L33.043,56.206z" fill="url(#SVGID_22_)"/>
				<linearGradient gradientUnits="userSpaceOnUse" id="SVGID_23_" x1="159.959" x2="159.9589" y1="804.4768" y2="76.43">
					<stop offset="0" style="stop-color:#FFC907"/>
					<stop offset="0.255" style="stop-color:#E89B24"/>
					<stop offset="0.8317" style="stop-color:#AD2923"/>
					<stop offset="1" style="stop-color:#9B1B1F"/>
				</linearGradient>
				<path d="M118.482,230.888l1.74,6.262c33.522-2.794,62.811-20.538,81.214-46.567h-7.701    C176.01,213.405,149.06,228.706,118.482,230.888z" fill="url(#SVGID_23_)"/>
				<linearGradient gradientUnits="userSpaceOnUse" id="SVGID_24_" x1="28.3585" x2="28.3585" y1="367.9665" y2="126.31">
					<stop offset="0" style="stop-color:#FFC907"/>
					<stop offset="0.255" style="stop-color:#E89B24"/>
					<stop offset="0.8317" style="stop-color:#AD2923"/>
					<stop offset="1" style="stop-color:#9B1B1F"/>
				</linearGradient>
				<path d="M19.371,177.425l23.579-7.95l5.279-5.275l-30.558,10.053c-1.408-2.736-2.702-5.542-3.87-8.411    l-5.314,3.182c1.01,2.436,2.106,4.827,3.28,7.171l-0.002,0.001l0.144,0.283c0.148,0.293,0.297,0.585,0.447,0.877l1.174,2.301    l-0.083-0.235l5.926-1.991C19.373,177.429,19.372,177.427,19.371,177.425z" fill="url(#SVGID_24_)"/>
			</g>
			<linearGradient gradientTransform="matrix(1 0 0 -1 1642 389)" gradientUnits="userSpaceOnUse" id="SVGID_25_" x1="-1531.087" x2="-1531.087" y1="295.5538" y2="229.7422">
				<stop offset="0" style="stop-color:#F6EB16"/>
				<stop offset="1" style="stop-color:#F8961D"/>
			</linearGradient>
			<circle cx="110.913" cy="126.352" fill="url(#SVGID_25_)" r="32.906"/>
			<linearGradient gradientTransform="matrix(1 0 0 -1 1642 389)" gradientUnits="userSpaceOnUse" id="SVGID_26_" x1="-1530.9271" x2="-1530.9271" y1="293.4988" y2="237.5949">
				<stop offset="0" style="stop-color:#F8BE15"/>
				<stop offset="0.3054" style="stop-color:#E18F26"/>
				<stop offset="1" style="stop-color:#A72022"/>
			</linearGradient>
			<polygon fill="url(#SVGID_26_)" points="111.073,95.501 118.016,116.871 140.486,116.871 122.307,130.05 129.251,151.405   111.073,138.191 92.895,151.394 99.838,130.051 81.66,116.871 104.13,116.871  "/>
			<linearGradient gradientTransform="matrix(1 0 0 -1 1642 389)" gradientUnits="userSpaceOnUse" id="SVGID_27_" x1="-1531.087" x2="-1531.087" y1="300.2693" y2="225.0269">
				<stop offset="0" style="stop-color:#FFC907"/>
				<stop offset="0.255" style="stop-color:#E89B24"/>
				<stop offset="0.8317" style="stop-color:#AD2923"/>
				<stop offset="1" style="stop-color:#9B1B1F"/>
			</linearGradient>
			<path d="M110.913,88.731c-20.721,0-37.52,16.844-37.52,37.621c0,20.778,16.798,37.621,37.52,37.621   s37.52-16.844,37.52-37.621C148.433,105.574,131.634,88.731,110.913,88.731z M111.042,158.364   c-17.662,0-31.979-14.371-31.979-32.099s14.317-32.099,31.979-32.099c17.662,0,31.979,14.371,31.979,32.099   S128.704,158.364,111.042,158.364z" fill="url(#SVGID_27_)"/>
		</g>

		<g id="ps2maps_logo">
			<polygon display="inline" fill="#FFFFFF" stroke="#000000" stroke-width="2" stroke-miterlimit="10" points="238.497,63.694
				181.211,30.62 128,61.341 74.789,30.62 17.503,63.694 17.503,129.843 70.537,160.462 70.537,221.061 127.823,254.135
				185.11,221.061 185.11,160.666 238.497,129.843 	"/>
			<g display="inline">
				<polygon fill="#89171A" points="131.995,125.183 131.995,68.354 181.211,39.94 230.426,68.354 230.426,125.183 181.211,153.598
					"/>
				<path d="M181.211,41.095l48.215,27.837v55.674l-48.215,27.837l-48.215-27.837V68.932L181.211,41.095 M181.211,38.785
					l-50.215,28.992v57.984l50.215,28.992l50.215-28.992V67.777L181.211,38.785L181.211,38.785z"/>
			</g>
			<g display="inline">
				<polygon fill="#1266B2" points="25.574,125.183 25.574,68.354 74.79,39.94 124.005,68.354 124.005,125.183 74.79,153.598 		"/>
				<path d="M74.789,41.095l48.215,27.837v55.674l-48.215,27.837l-48.215-27.837V68.932L74.789,41.095 M74.789,38.785L24.574,67.777
					v57.984l50.215,28.992l50.215-28.992V67.777L74.789,38.785L74.789,38.785z"/>
			</g>
			<g display="inline">
				<polygon fill="#7E2A90" points="78.608,216.401 78.608,159.572 127.823,131.158 177.038,159.572 177.038,216.401 127.823,244.815
							"/>
				<path d="M127.823,132.313l48.215,27.837v55.674l-48.215,27.837l-48.215-27.837V160.15L127.823,132.313 M127.823,130.003
					l-50.215,28.992v57.984l50.215,28.992l50.215-28.992v-57.984L127.823,130.003L127.823,130.003z"/>
			</g>
		</g>
	</defs>
</svg>
